<?xml version="1.0" standalone="no"?>
<svg viewBox="-350 -150 1500 1500" style="width: 585px; height: 585px; justify-content: center; align-self: center; transform: scale(-1, 1);" xmlns="http://www.w3.org/2000/svg"><rect x="-350" y="-150" width="100%" height="100%" fill="#f9858b" rx="30"></rect><g transform="rotate(1 410.2930660247803 564.9780044555664)"><g transform="translate(0 459)"><path d="M4.46846 617.466C1.47446 644.912 -5.30754 675.146 7.62046 701.041C-0.521543 701.406 6.08346 703.761 10.4775 704.571C12.9865 706.513 16.3585 707.282 19.5295 707.012C35.9935 710.492 52.9895 711.753 69.7065 713.722C278.424 731.058 488.541 726.454 697.649 718.984C704.451 718.689 709.013 713.749 709.534 707.095C717.198 609.173 721.012 510.948 720.817 412.727C717.412 378.21 743.501 391.679 729.584 346.195C718.396 298.22 701.837 251.523 680.721 207.027C666.125 178.072 652.372 147.605 630.125 123.594C623.095 122.623 617.11 115.64 611.169 111.74C605.152 110.568 600.692 105.459 594.594 103.888C582.973 100.865 556.967 94.4355 547.07 102.168C546.68 102.061 546.284 101.97 545.892 101.859C543.955 104.007 541.294 102.396 539.849 100.466C534.904 96.6265 513.29 96.2318 510.837 90.3398C498.049 78.7398 494.628 54.3264 494.628 40.0437C489.846 34.6707 489.514 35.6685 483.023 32.8285C476.659 24.8015 468.971 17.8095 460.39 12.2975C412.099 -19.4105 342.022 14.0015 330.717 69.1145C312.846 83.2645 294.451 97.6385 272.562 105.012C261.88 99.5165 249.711 97.7625 238.374 97.7515C229.923 97.4445 218.245 92.5575 212.753 101.452C120.356 131.699 64.5925 219.67 24.9405 303.023C19.3825 314.891 12.7335 327.317 14.4345 340.838C15.6035 357.031 33.1775 366.669 29.8565 383.83C25.0295 431.036 19.5385 478.194 14.5135 525.386C11.1645 556.079 7.81646 586.773 4.46846 617.466Z" transform="translate(43.00014 -25.00075)" fill="#FFFFFF" stroke="none"></path><path d="M645.623 99.1429C681.181 128.037 700.94 171.736 716.266 213.804C733.781 261.884 749.219 311.02 760.316 361.003C761.733 367.384 757.422 373.413 750.737 373.58C743.83 373.751 736.989 374.332 730.201 375.333C731.589 384.236 732.022 393.377 732.807 402.275C733.854 414.145 734.874 426.019 735.603 437.915C738.267 481.422 738.407 525.056 737.583 568.627C737.171 590.409 736.461 612.176 735.437 633.937C734.925 644.816 734.347 655.692 733.702 666.563C733.569 668.813 733.525 671.199 733.48 673.649C733.32 682.234 733.147 691.602 729.08 698.608C725.726 704.385 718.627 701.95 717.012 696.874C716.939 696.917 716.866 696.958 716.792 697.001C714.818 691.974 715.298 686.482 715.763 681.16C715.844 680.241 715.924 679.327 715.99 678.421C716.453 672.165 716.893 665.905 717.311 659.645C718.104 647.784 718.818 635.917 719.453 624.046C721.765 580.845 723.125 537.614 723.951 494.36C724.361 472.904 724.546 451.448 725.067 429.993C725.332 419.104 725.67 408.217 725.873 397.326C726.005 390.241 725.897 383.067 726.318 375.956C722.837 376.555 719.367 377.258 715.911 378.097C710.073 379.514 704.313 381.242 698.646 383.238C696.982 383.824 695.285 384.564 693.565 385.314C689.479 387.094 685.26 388.932 681.035 388.915C679.156 388.907 677.563 388.385 676.259 387.542C680.854 432.991 683.866 478.612 687.079 524.17C690.578 573.769 694.995 623.456 697.036 673.139C697.071 678.631 692.375 683.265 686.911 683.265C681.096 683.265 677.267 678.586 676.786 673.139C676.533 670.265 676.297 667.387 676.065 664.51C669.677 668.278 662.06 668.294 654.621 668.309C652.728 668.313 650.846 668.317 648.999 668.383C639.379 668.725 629.76 669.059 620.141 669.387C601.565 670.018 582.989 670.623 564.412 671.2C497.403 673.28 430.379 675.157 363.347 676.239L358.055 676.325C326.304 676.839 294.551 677.353 262.795 677.352C245.857 677.352 228.951 677.196 212.018 676.76C203.714 676.547 195.394 676.072 187.126 675.266C180.357 674.606 173.666 673.399 166.926 672.526C166.847 674.055 166.774 675.584 166.692 677.113C166.337 683.729 166.344 691.54 161.931 696.931C158.631 700.963 153.9 702.344 149.504 699.413C143.281 695.261 143.116 686.833 143.306 680.109C143.476 674.116 143.893 668.12 144.193 662.132C144.811 649.815 145.429 637.499 146.046 625.18C148.567 574.89 151.798 524.62 155.136 474.377C156.742 450.206 158.438 426.055 159.658 401.861C160.154 391.997 160.503 382.09 160.395 372.204C152.538 372.144 144.685 371.99 136.842 371.703C142.745 374.451 148.617 377.385 153.039 382.107C156.425 385.721 154.345 393.463 148.598 392.83C137.847 391.644 128.355 385.27 118.799 380.45C109.322 375.668 99.8494 370.883 90.3904 366.068C80.6374 361.103 70.8844 356.138 61.1304 351.173C55.8734 348.497 50.4384 345.984 45.1714 343.211C44.7194 365.812 42.0994 388.351 39.9274 410.832C35.6604 454.985 30.6744 499.022 27.2944 543.262C25.5934 565.533 24.3494 587.84 23.7124 610.166C23.3944 621.333 23.2674 632.498 23.2344 643.667C23.2314 644.714 23.2279 645.762 23.2243 646.81C23.2079 651.678 23.1914 656.546 23.2284 661.415C23.2346 662.255 23.251 663.083 23.2673 663.903C23.3325 667.187 23.3946 670.323 22.7824 673.42C22.6784 674.444 22.3934 675.448 21.9564 676.409C21.6934 677.131 21.3854 677.854 21.0174 678.578C20.9574 678.5 20.8964 678.421 20.8374 678.344C16.7774 684.042 7.54642 686.91 2.79342 678.578C-0.0983479 673.508 -0.0139264 667.349 0.0666757 661.468C0.0852178 660.115 0.103558 658.777 0.0854167 657.47C0.000416649 651.226 -0.0355834 644.983 0.0454166 638.739C0.207417 626.256 0.578417 613.776 1.13342 601.305C3.14042 556.215 7.73642 511.401 13.7364 466.68C16.7384 444.307 20.2334 421.999 24.2394 399.783C27.9274 379.333 31.7714 358.821 37.5094 338.831C37.1324 338.594 36.7484 338.37 36.3754 338.127C30.7624 334.493 25.4074 329.918 22.5054 323.762C18.7214 315.738 19.9124 307.063 22.5544 298.885C27.7524 282.792 33.9594 266.934 40.5194 251.353C53.5344 220.442 68.6594 190.465 88.6014 163.386C124.541 114.585 175.918 75.7179 237.596 69.4109C237.921 69.3769 237.964 69.8799 237.67 69.9629C206.66 78.7349 177.596 94.8639 152.29 114.66C144.576 120.694 137.269 127.161 130.337 133.988C130.515 133.956 130.704 133.924 130.907 133.893C133.709 133.471 136.543 133.241 139.36 132.948C144.993 132.363 150.66 132.17 156.313 131.868C167.281 131.28 178.246 130.665 189.223 130.263C191.943 130.163 194.67 130.06 197.402 129.956C217.216 129.202 237.31 128.438 257.035 129.194C258.073 129.234 258.998 129.433 259.821 129.747C257.039 125.832 254.471 121.779 252.198 117.596C246.741 107.553 241.733 96.1239 240.994 84.5189C239.001 83.5509 239.149 81.0299 240.938 80.1909C240.944 79.9809 240.939 79.7719 240.949 79.5619C240.97 79.1229 241.493 79.0149 241.735 79.3489C241.869 79.5339 241.999 79.7209 242.133 79.9069C254.679 78.5479 266.715 77.4399 278.875 73.7309C290.388 70.2179 301.003 64.5929 310.852 57.7119C320.234 51.1569 328.847 42.7579 335.548 33.4699C339.214 28.3889 342.428 22.9829 345.108 17.3189C346.262 14.8809 347.188 12.3779 348.107 9.84589C348.689 8.24189 349.178 6.49389 350.087 5.03189C351.432 2.86989 354.167 1.57489 355.33 0.90589C358.45 -0.88611 363.327 -0.00911032 365.014 3.44489C363.98 2.68089 364.322 3.20889 366.04 5.03189C366.876 6.47189 367.296 8.02589 367.301 9.69389C367.301 11.9589 366.498 14.0749 365.679 16.1349C364.354 19.4699 362.914 22.7739 361.312 25.9859C358.232 32.1609 354.497 37.9359 350.299 43.4069C341.787 54.4989 331.426 63.8229 319.599 71.2909C299.52 83.9729 270.538 92.9509 246.567 86.3789C252.992 96.1629 258.731 106.348 266.216 115.481C275.285 126.547 285.693 136.887 297.007 145.659C319.433 163.044 346.387 173.938 373.941 180.03C402.544 186.352 433.029 188.235 462.115 184.362C489.075 180.772 515.519 171.26 536.409 153.475C555.156 137.514 568.509 117.217 576.599 94.1099C556.978 90.8589 537.643 85.2929 523.409 70.4339C508.912 55.2999 504.722 32.2419 507.627 12.0429C507.712 11.4519 508.639 11.6209 508.64 12.1799C508.663 22.1429 510.888 32.3969 516.823 40.5359C522.105 47.7769 527.717 54.5059 534.694 60.1979C550.154 72.8109 571.29 75.9359 590.474 78.1289C595.321 78.6839 599.468 81.8019 599.468 87.1239C599.468 89.3619 598.39 91.8049 596.7 93.5879C596.766 94.7069 596.634 95.9149 596.233 97.2079C592.25 110.056 586.283 122.237 578.788 133.42C583.394 132.692 588.107 132.422 592.688 132.011C600.198 131.337 607.775 131.052 615.307 130.7C623.164 130.331 631.044 130.308 638.908 130.153C639.265 130.146 639.644 130.135 640.04 130.124C645.662 129.969 654.887 129.714 654.881 137.444C654.876 145.181 645.622 144.89 640.006 144.714C639.621 144.702 639.254 144.69 638.908 144.682C631.045 144.492 623.161 144.452 615.307 144.031C607.441 143.608 599.546 143.267 591.705 142.522C585.83 141.963 579.768 141.607 574.01 140.147C564.45 152.841 552.885 164.049 540.032 173.209C538.854 174.05 537.653 174.849 536.452 175.649C572.787 172.091 609.516 171.757 646.079 171.425C656.861 171.327 667.63 171.229 678.369 171.049C680.505 171.013 682.084 171.85 683.116 173.108C679.946 166.426 676.594 159.843 672.977 153.414C653.014 117.936 623.503 83.3179 583.625 70.2349C582.934 70.0079 583.216 68.9999 583.924 69.1499C606.984 74.0169 627.346 84.2909 645.623 99.1429ZM125.896 138.471C127.507 139.679 128.023 140.441 130.431 140.864C133.042 141.321 135.727 141.467 138.363 141.725C144.003 142.277 149.657 142.483 155.316 142.751C166.616 143.288 177.915 143.856 189.223 144.2C191.945 144.282 194.674 144.369 197.408 144.456C217.223 145.086 237.319 145.725 257.035 144.848C262.524 144.604 265.021 140.078 264.522 135.954C268.73 141.165 273.331 146.057 278.231 150.517C286.109 157.686 294.613 164.041 303.578 169.649C297.762 169.862 291.84 170.591 286.351 170.827C277.049 171.225 267.747 171.624 258.445 172.024C238.843 172.866 219.243 173.77 199.644 174.686C163.371 176.381 127.222 178.491 91.0874 181.951C101.407 166.442 112.967 151.813 125.896 138.471ZM62.3454 233.55C57.9634 242.958 53.9094 252.495 50.1774 262.097C45.3214 274.591 40.1334 287.405 36.4144 300.383C84.2964 292.181 132.661 288.856 181.146 286.37C270.118 281.805 359.465 282.737 448.505 284.249C537.491 285.759 626.451 288.511 715.407 291.235C725.894 291.555 725.913 307.825 715.407 307.547C699.219 307.12 683.032 306.675 666.844 306.235C667.191 308.633 667.475 311.071 667.78 313.596C668.623 320.559 669.609 327.506 670.437 334.47C671.043 339.582 671.618 344.697 672.193 349.811C679.854 349.74 687.523 349.531 695.194 349.322C707.997 348.973 720.802 348.624 733.581 348.917C737.048 348.997 738.426 351.982 737.813 354.514C738.032 354.493 738.251 354.473 738.471 354.454C733.184 331.339 727.63 308.307 721.386 285.418C711.337 248.588 700.601 210.723 684.394 175.796C685.201 179.442 683.194 183.862 678.369 183.893C667.619 183.963 656.842 184.117 646.05 184.271C606.146 184.842 566.043 185.415 526.377 181.764C504.063 194.064 478.77 200.346 453.39 202.434C421.765 205.036 388.877 201.864 358.299 193.409C344.212 189.514 330.513 184.258 317.561 177.595C317.034 178.245 316.334 178.755 315.453 178.994C311.72 180.004 307.746 180.049 303.836 180.092C302.65 180.106 301.47 180.119 300.304 180.159C295.653 180.318 291.002 180.477 286.351 180.637L257.449 181.627C238.182 182.288 218.913 182.883 199.644 183.47C162.923 184.588 126.289 185.542 89.5764 184.252C79.8644 199.101 71.2574 214.718 63.6504 230.754C85.6734 231.535 107.676 233.391 129.726 234.052C152.491 234.735 175.298 234.602 198.062 233.92C280.652 231.449 363.087 225.69 445.707 223.747C486.86 222.779 528.025 222.292 569.19 222.287C590.104 222.284 611.019 222.394 631.931 222.655C642.221 222.783 652.511 222.941 662.801 223.129C668.443 223.233 674.086 223.345 679.728 223.466C684.937 223.579 688.705 224.801 693.401 226.887C698.102 228.974 695.88 235.272 692.113 236.739C688.832 238.018 686.25 239.081 682.715 239.188C680.968 239.241 679.206 239.173 677.447 239.105C676.547 239.071 675.647 239.036 674.75 239.018C668.775 238.895 662.801 238.782 656.826 238.679C645.209 238.48 633.591 238.323 621.973 238.192Q587.118 237.799 552.259 237.868C469.045 238.029 385.917 240.536 302.781 243.969C299.442 244.107 296.103 244.247 292.763 244.386C255.677 245.937 218.558 247.49 181.438 246.732C160.914 246.313 140.434 245.234 119.994 243.313C100.794 241.51 80.9494 238.801 62.3454 233.55ZM40.4384 323.534C45.8624 327.792 52.6384 330.535 58.7824 333.541C74.5874 341.273 90.3954 349 106.198 356.737C110.179 358.686 114.154 360.645 118.127 362.608C132.022 361.057 145.99 360.022 159.987 359.286C159.784 355.258 159.51 351.235 159.105 347.223C158.593 342.144 158.151 337.209 159.9 332.362C159.999 332.088 160.305 332.004 160.526 332.197C165.131 336.19 166.869 342.098 168.409 347.846C169.378 351.464 170.237 355.106 171.011 358.766C193.521 357.807 216.072 357.452 238.479 356.778C320.978 354.293 403.515 352.808 486.03 350.92C491.293 350.8 496.555 350.675 501.818 350.551C537.812 349.7 573.8 348.85 609.805 349.256C626.475 349.444 643.139 349.804 659.807 349.845C659.706 343.061 659.668 336.276 659.813 329.501C659.864 327.135 659.873 324.745 659.882 322.345C659.901 316.922 659.921 311.446 660.425 306.061C628.563 305.191 596.703 304.309 564.842 303.415C476.373 300.93 387.873 298.934 299.362 299.432C254.98 299.682 210.626 300.567 166.256 301.62C152.973 301.935 139.699 302.333 126.427 302.73C96.0632 303.639 65.7152 304.547 35.3134 304.473C35.1714 305.017 35.0114 305.56 34.8754 306.106C33.0534 313.412 34.5094 318.878 40.4384 323.534ZM674.797 373.429C679.069 368.542 687.443 366.434 693.417 364.271C699.14 362.2 704.983 360.459 710.895 359.013C698.37 359.363 685.825 359.471 673.307 359.768C673.807 364.322 674.305 368.875 674.797 373.429ZM566.013 477.869C533.414 478.132 500.813 478.16 468.215 477.951C403.688 477.537 339.182 475.95 274.669 474.668C256.714 474.313 238.783 473.96 220.825 473.959C211.528 473.959 202.2 474.021 192.913 474.424C187.068 474.678 181.142 474.715 175.324 475.417L175.401 473.376C176.078 455.26 176.757 437.127 176.734 419.004C238.28 428.325 300.487 430.885 362.641 432.719C425.61 434.577 488.594 435.54 551.59 435.632C569.493 435.659 587.396 435.619 605.298 435.513C613.917 435.463 622.537 435.397 631.156 435.316C632.654 435.302 634.154 435.302 635.655 435.302C638.8 435.302 641.947 435.303 645.079 435.171C649.974 434.965 652.931 433.805 656.35 430.323C658.1 428.542 658.189 425.468 656.35 423.694C651.13 418.659 645.123 418.865 638.53 419.092C637.414 419.13 636.282 419.169 635.134 419.183C627.178 419.282 619.222 419.367 611.265 419.439C595.353 419.584 579.439 419.676 563.525 419.717C532.362 419.796 501.198 419.676 470.036 419.358C407.056 418.714 344.09 417.314 281.125 415.839C246.315 415.024 211.512 415.248 176.73 416.936C176.717 413.814 176.688 410.691 176.627 407.569C176.398 395.745 175.246 383.921 173.444 372.228C190.49 372.169 207.535 371.805 224.504 371.587C265.767 371.058 307.021 370.227 348.279 369.399C389.205 368.579 430.131 367.758 471.057 366.937C511.957 366.117 552.983 366.058 593.834 363.85C615.88 362.658 637.934 361.038 659.997 360.187L660.126 366.262C660.657 391.107 661.628 415.928 662.881 440.747C663.483 452.672 664.118 464.597 664.771 476.52C664.455 476.489 664.132 476.47 663.8 476.467C644.574 476.339 625.327 476.759 606.081 477.178L606.077 477.178C592.719 477.47 579.361 477.761 566.013 477.869ZM665.914 650.719C661.606 650.759 657.284 651.059 652.979 651.227C644.687 651.548 636.395 651.865 628.102 652.176C611.185 652.81 594.268 653.421 577.349 654.01C543.845 655.175 510.337 656.25 476.826 657.237C409.805 659.208 342.75 660.402 275.738 662.656C257.147 663.281 238.557 663.767 219.983 664.779C210.358 665.303 200.688 665.754 191.109 666.869C183.028 667.809 175.062 669.395 167.026 670.577C167.565 660.106 168.07 649.633 168.595 639.163C169.092 629.257 169.556 619.35 170.017 609.442C201.386 611.083 232.792 611.746 264.203 612.026C297.429 612.323 330.645 613.147 363.873 613.211C419.854 613.322 475.838 612.739 531.818 612.156C541.619 612.054 551.42 611.952 561.22 611.854C579.824 611.666 598.43 611.48 617.035 611.293C626.337 611.2 635.64 611.106 644.942 611.012C646.486 610.997 648.033 610.997 649.581 610.998C652.689 611 655.8 611.001 658.896 610.873C663.848 610.667 666.855 609.259 670.449 605.927C672.366 604.15 672.446 600.531 670.449 598.768C667.565 596.221 664.888 594.267 660.89 593.981C658.267 593.793 655.567 593.903 652.889 594.012C651.559 594.067 650.236 594.121 648.929 594.138C640.291 594.251 631.653 594.366 623.015 594.479C606.403 594.698 589.792 594.916 573.18 595.134C539.956 595.571 506.732 596.018 473.51 596.524C440.95 597.021 408.387 597.391 375.833 598.209C342.594 599.046 309.394 600.557 276.163 601.625C240.791 602.761 205.437 604.118 170.145 606.772C170.993 588.407 171.774 570.038 172.509 551.667C242.584 555.481 312.707 558.196 382.899 558.315C456.027 558.44 529.151 557.19 602.252 555.282C612.553 555.012 622.854 554.74 633.153 554.417C638.469 554.25 643.785 554.096 649.101 553.904C653.009 553.762 657.025 553.595 660.558 551.726C667.53 548.038 668.733 537.269 660.461 534.323C655.939 532.713 651.142 534.287 650.042 538.364C649.704 538.397 649.382 538.424 649.101 538.435C645.114 538.585 641.126 538.696 637.14 538.822C628.501 539.096 619.863 539.377 611.224 539.648C595.275 540.147 579.325 540.608 563.374 541.03C530.808 541.893 498.238 542.596 465.665 543.139C401.175 544.213 336.69 545.206 272.208 546.68C239.002 547.44 205.806 548.425 172.604 549.267C173.397 529.298 174.146 509.329 174.821 489.358C174.9 487.018 174.986 484.676 175.071 482.335C179.829 483.381 184.701 483.96 189.548 484.646C197.959 485.836 206.396 486.717 214.843 487.608C230.759 489.287 246.727 490.317 262.702 491.199C295.271 492.995 327.849 494.262 360.452 495.255C424.945 497.219 489.518 497.647 554.037 497.426C561.946 497.399 569.865 497.402 577.797 497.404L577.803 497.404C604.984 497.414 632.23 497.423 659.338 496.241C661.496 496.831 663.72 496.77 665.871 496.067C667.637 527.287 669.502 558.5 671.335 589.716C672.572 610.777 673.663 631.909 675.182 652.977C672.215 651.516 669.484 650.688 665.914 650.719Z" transform="translate(30.00028 3.00011)" fill="#000000" fill-rule="evenodd" stroke="none"></path></g><g transform="translate(225 0)"><g><g><path d="M101.559 0.333343C253.129 -7.12039 355.969 112.412 360.393 160.078C363.464 193.166 361.38 237.293 361.38 266.859C361.38 281.951 368.996 327.825 360.393 349.821C341.247 398.78 319.615 437.129 259.678 437.129C199.741 437.129 108.369 406.064 76.9939 365.997C71.2653 358.681 0.0805339 305.131 0.0805339 263.038C0.0805339 173.233 -6.59297 5.6519 101.559 0.333343Z" transform="translate(47.92791 63.53391)" fill="#FFFFFF" stroke="none"></path><path d="M130.169 8.08201C126.236 2.06001 120.723 -1.82699 112.085 0.873012C109.564 1.66201 107.285 3.04601 105.243 4.84101C100.149 1.50301 93.1925 2.28801 88.9815 8.45201C87.8215 10.151 86.8675 12.009 86.0795 13.963C81.7845 12.14 77.3215 12.22 73.0945 16.483C71.4035 18.188 70.3515 20.268 69.9015 22.47C69.7845 22.221 69.6615 21.986 69.5475 21.729L69.4385 21.496C67.2054 16.9608 59.6802 15.194 55.6535 18.086C52.9925 19.998 50.9535 22.158 49.7315 24.815C48.0485 24.808 46.3925 25.015 44.8015 25.576C38.8505 27.676 36.3325 33.844 36.7825 39.867C31.7175 41.682 26.8975 44.251 22.5025 47.612C18.9025 50.362 17.4725 54.052 18.5525 57.752C14.3025 59.592 10.7725 62.252 8.60248 66.602C6.15248 71.522 5.87248 77.212 7.77248 81.712C7.12948 82.952 6.60948 84.243 6.18348 85.563C2.34348 86.533 -0.50952 90.207 0.0764801 94.541C0.54448 97.998 2.84148 100.3 5.68748 101.133C6.37848 104.072 7.49148 106.916 8.98948 109.524C5.55448 112.069 2.55448 115.314 1.08148 119.193C-0.0355199 122.137 0.39548 124.764 1.74248 126.804C1.78648 130.366 3.75248 134.025 6.76748 135.751C4.49748 140.261 6.13948 146.521 10.9155 148.307C8.96848 152.259 7.86348 156.533 8.27248 161.163C8.83248 167.613 12.1225 173.783 17.1725 177.453C15.7635 183.522 15.8725 189.832 17.6725 196.062C19.1845 201.303 24.6405 203.464 29.4065 201.62C30.2185 203.8 31.9275 205.69 34.1285 206.721C34.1958 206.753 34.2636 206.782 34.3316 206.811L34.7415 206.972C34.0945 208.185 33.7905 209.621 34.0095 211.246C34.5635 215.346 38.8475 218.637 43.0445 217.265C46.3395 216.188 49.3435 214.307 52.2145 212.263C52.2255 213.059 52.3345 213.85 52.5155 214.582C53.7655 219.639 58.3425 222.881 63.3485 223.472C67.7635 223.993 71.9015 222.469 75.3495 219.895C79.0185 227.25 87.5185 229.858 94.9505 225.462C98.6995 223.245 103.16 219.539 106.525 215.261C107.589 214.535 108.618 213.734 109.599 212.875C107.895 216.956 106.287 221.085 104.792 225.272C103.843 227.932 102.944 230.611 102.083 233.301C99.7895 233.899 97.7075 234.667 96.1525 235.403C92.0265 237.353 90.1335 242.747 91.0645 247.176C88.9195 249.601 87.5175 252.564 87.5175 256.304C87.5175 258.383 87.9195 260.24 88.6105 261.898C87.2945 264.078 86.1525 266.431 85.1535 269.003C83.7495 272.622 84.8785 276.484 87.2555 279.39C85.5645 281.805 84.5175 284.644 84.5485 288.043C84.5625 289.578 84.8195 291.073 85.2715 292.487C84.0975 295.32 84.1505 298.495 85.1785 301.309C82.4005 304.868 80.5315 308.749 81.5525 312.828C82.0925 314.987 83.3005 316.757 84.8555 318.226C84.6965 319.601 84.7475 320.991 84.9935 322.332C83.8825 324.323 83.3715 326.648 83.5325 328.982C83.9425 334.916 87.3455 338.136 91.7655 339.694C91.6015 340.045 91.4415 340.398 91.3175 340.773C90.2705 343.952 90.4825 347.746 92.1055 350.707C92.2735 351.013 92.4595 351.295 92.6425 351.582C93.8995 353.896 95.9375 355.717 98.3415 357.064C98.9628 357.412 99.8264 357.711 100.769 358.011L102.222 358.468C102.16 358.539 102.102 358.605 102.05 358.664L101.422 359.394C99.2233 361.996 97.2682 364.809 97.0615 368.339C96.8365 372.211 98.8465 375.955 102.117 378.044C102.444 378.252 102.815 378.459 103.205 378.661L103.209 379.035C102.354 380.225 101.812 381.649 101.962 383.045C102.683 389.796 106.739 393.017 112.739 395.403L113.942 395.914L114.025 397.416C114.052 397.914 114.092 398.411 114.13 398.908C113.865 399.519 113.648 400.06 113.529 400.377L113.448 400.599C111.09 407.652 114.528 415.28 120.533 419.343C121.371 419.911 122.246 420.396 123.147 420.815C124.019 423.714 125.503 426.339 127.47 428.668C129.085 430.582 131.218 432.384 133.587 433.713C134.911 436.175 136.983 437.984 139.675 438.895C140.067 439.028 140.464 439.131 140.864 439.215C140.491 442.129 141.266 445.195 143.288 447.365C144.286 448.436 145.373 449.134 146.519 449.587C147.136 449.887 147.809 450.07 148.504 450.135C149.945 450.374 151.455 450.333 152.993 450.198C154.005 451.667 155.203 453.047 156.592 454.323C158.106 455.71 160.145 456.389 162.102 456.211C166.348 458.825 171.35 459.071 176.2 458.479C177.299 458.345 178.354 458.047 179.313 457.604C183.884 462.999 188.756 468.135 193.822 473.073C201.142 480.203 208.202 487.373 218.272 490.203C220.842 490.922 224.162 488.283 223.002 485.482C217.263 471.573 203.412 462.502 193.542 451.512C188.442 445.832 183.692 439.852 179.552 433.432C175.132 426.592 172.022 421.672 163.892 419.132L163.295 418.941C151.396 415.068 141.933 407.377 135.952 396.252C130.933 386.913 128.312 373.422 132.852 363.212C133.622 362.292 134.202 361.232 134.542 360.082C134.912 359.522 135.302 358.962 135.722 358.432C140.522 352.363 147.642 349.012 155.002 347.302C159.172 346.332 163.672 345.892 167.952 346.042C171.42 346.169 174.806 347.004 178.24 347.45C178.603 347.736 178.964 348.017 179.316 348.291L179.964 348.796C184.559 352.368 190.413 356.714 196.314 356.873C210.845 357.266 209.81 340.76 209.118 329.714C209.056 328.722 208.997 327.774 208.952 326.886L208.907 325.913C208.426 313.582 208.16 301.247 207.673 288.918L207.67 288.825C207.664 288.591 207.665 288.236 207.671 287.78L207.725 284.968C208.256 281.129 208.884 277.303 209.643 273.491C214.618 273.804 219.707 272.411 224.079 269.733C229.934 270.323 235.777 268.067 239.769 263.765C240.648 263.498 241.51 263.168 242.336 262.777C242.944 262.49 243.485 262.198 244.011 261.89C247.839 263.478 252.41 263.116 255.935 259.668C258.243 259.808 260.54 259.328 262.311 258.169C263.965 257.089 265.57 255.966 267.12 254.779C269.667 254.716 272.329 253.745 274.826 251.713L278.411 248.792C279.724 248.953 281.059 248.874 282.354 248.499C286.487 247.301 290.399 245.57 293.983 243.32C295.717 243.308 297.544 242.847 299.382 241.825C310.808 235.469 321.667 228.623 331.82 220.507C336.207 220.068 339.845 217.079 343.094 213.996C349.651 212.087 355.435 210.156 361.092 205.93C364.989 203.019 368.524 199.693 371.855 196.165C373.247 196.831 374.744 197.29 376.254 197.508C378.941 197.896 381.617 197.131 384.26 196.376C387.436 195.468 390.563 194.574 393.601 195.711C398.865 197.682 403.05 201.935 408.29 204.087C411.155 205.264 414.099 205.943 417.012 205.97C417.983 206.538 418.947 207.118 419.902 207.71C422.19 210.605 425.328 212.615 428.904 213.949C429.181 214.166 429.466 214.372 429.742 214.592C432.55 216.835 435.224 219.227 437.779 221.734C438.18 222.857 438.675 223.955 439.279 225.007C441.07 228.127 443.687 230.819 446.822 232.596C446.931 232.658 447.119 232.75 447.36 232.86L447.673 233C449.109 234.916 450.47 236.891 451.76 238.918C451.806 239.501 451.883 240.083 452.029 240.66C452.737 243.425 454.567 245.562 456.736 247.282C462.678 257.517 473.385 275.833 474.742 275.762C473.086 284.481 472.125 293.388 471.271 302.228L470.552 309.783C469.172 324.302 468.142 338.873 467.612 353.453C467.196 364.783 467.236 376.125 467.346 387.46L467.488 401.009C467.617 413.375 467.652 425.814 465.742 438.052C458.842 482.243 423.872 519.512 378.992 525.652C366.562 527.363 353.592 526.762 341.362 524.012C335.263 522.652 329.242 520.802 323.473 518.392C317.013 515.692 311.172 511.863 304.663 509.272C298.092 506.663 293.562 516.152 298.042 520.632C306.528 529.108 319.886 533.948 331.419 537.117L332.692 537.462C344.612 540.652 357.142 542.052 369.462 541.363C393.684 539.993 416.492 531.232 435.412 516.092C453.891 501.292 467.672 481.772 474.552 459.033C481.482 436.143 480.251 412.114 479.038 388.427C478.779 383.365 478.52 378.318 478.342 373.302C477.742 356.113 477.383 338.892 477.473 321.682C477.507 314.939 477.737 308.173 477.968 301.401C478.278 292.296 478.589 283.181 478.422 274.102C478.742 273.762 479.032 273.352 479.272 272.892C481.355 268.927 483.471 263.971 484.454 259.121C486.465 257.876 487.478 255.281 487.745 253.061C487.932 251.509 487.33 249.936 486.322 248.649C486.868 247.551 487.015 245.944 487.378 244.794C488.322 241.814 489.122 238.973 489.454 235.853C489.73 233.253 489.673 230.505 488.851 227.992C488.432 226.705 487.879 225.55 487.162 224.466C488.047 223.113 488.655 221.597 488.655 219.651C488.655 215.642 486.338 212.179 482.949 210.184C482.234 209.81 481.508 209.463 480.766 209.143L480.754 209.135L480.69 208.787C480.627 208.432 480.565 208.067 480.513 207.752L480.311 206.452C479.837 203.231 479.536 200.185 477.878 197.263C475.701 193.424 472.146 191.238 468.056 189.885C467.3 189.635 465.892 189.474 465.063 189.017C465.886 189.403 465.199 187.264 464.785 185.976C464.715 185.757 464.652 185.562 464.606 185.409L464.438 184.797C462.497 177.92 457.882 174.025 451.988 170.515L451.228 170.069C449.239 168.915 447.148 167.907 445.78 166.019C443.896 163.42 443.2 160.049 441.564 157.297C440.218 155.03 438.486 152.936 436.273 151.483C435.684 148.627 435.167 145.768 433.768 143.155C430.423 136.894 423.391 134.392 416.813 133.082C414.398 132.6 411.347 132.687 409.194 131.312C408.784 130.873 408.349 130.455 407.889 130.065C406.577 128.403 404.681 125.379 403.427 123.839C397.692 116.802 390.241 114.133 381.311 115.865C380.659 115.992 379.289 116.549 378.409 116.691C378.353 116.581 378.293 116.458 378.225 116.311L378.014 115.859C376.553 112.832 374.118 109.515 371.849 107.171C365.712 100.833 357.688 100.488 349.494 100.712L347.323 100.777C345.296 100.817 344.401 100.636 342.852 98.98L342.52 98.6262C339.202 95.1081 335.97 92.1964 331.098 90.887C326.443 89.636 321.57 90.516 317.015 91.704L316.533 91.8278C312.245 92.9088 309.46 93.0965 305.032 91.922L303.816 91.6054C294.32 89.1804 285.491 88.0846 275.835 91.036C275.481 91.144 275.137 91.281 274.777 91.399L273.914 91.6933C272.523 92.1779 271.152 92.7172 269.813 93.328C267.114 91.603 263.503 91.563 260.62 94.309C258.362 96.461 255.986 98.527 253.718 100.688C245.49 101.94 237.343 103.709 229.337 105.99C228.859 106.972 228.007 107.802 226.708 108.243C208.674 114.353 191.737 123.47 177.718 136.461C176.142 137.921 174.276 137.958 172.767 137.233C174.654 134.215 176.707 131.304 178.942 128.554C183.419 123.047 188.508 118.097 193.853 113.415C202.434 108.331 211.547 104.135 220.998 100.728C224.413 94.916 227.477 88.815 231.052 83.292L231.181 83.0864C233.822 78.6951 229.963 74.0264 225.492 73.602L225.472 73.602L225.539 73.1846C227.113 63.157 226.356 52.5272 217.942 45.632C216.222 44.222 214.36 43.097 212.427 42.256C212.979 41.253 213.575 40.266 214.26 39.311L214.428 39.0714C219.826 31.1498 212.015 21.925 203.938 21.326C200.19 21.047 196.327 21.454 192.726 22.56C191.741 22.863 190.78 23.305 189.834 23.776C188.733 23.102 187.558 22.6 186.369 22.321C185.325 20.309 183.948 18.547 182.076 17.14C178.232 14.248 173.276 13.106 168.559 14.316C167.724 14.531 166.944 14.823 166.206 15.17C165.155 14.412 163.935 13.796 162.635 13.37C162.056 12.12 161.378 10.935 160.539 9.87101C156.204 4.36301 149.272 3.32901 142.878 5.55701L142.13 5.83201C140.515 5.59201 138.813 5.93201 137.161 7.10001C136.426 7.62001 135.745 8.26501 135.097 8.97201L134.928 9.06101C134.644 8.88501 134.349 8.71901 134.022 8.58201C133.599 8.41601 133.04 8.20501 132.809 8.14901C131.875 7.92401 131.036 7.91301 130.169 8.08201ZM169.342 372.392C160.962 369.203 150.672 368.222 142.193 371.542C141.523 371.802 141.273 373.033 142.193 373.163C150.382 374.372 158.013 376.002 165.273 380.192C168.752 382.203 171.943 384.493 174.792 387.342C177.672 390.222 179.702 394.192 183.322 396.163C187.483 398.432 191.582 394.703 190.832 390.392C189.383 382.067 177.358 375.557 169.956 372.631L169.342 372.392Z" transform="translate(-65.99968 -34.00051)" fill="#000000" fill-rule="evenodd" stroke="none"></path></g></g><g transform="translate(159 186)"><g><path d="M15.9252 11.6746C25.7472 1.65261 51.3592 -8.04539 58.0782 10.4616C59.3582 13.9866 56.6332 18.7396 52.9632 19.4706C49.6471 20.1305 46.5373 19.632 43.413 19.1311C40.8749 18.7243 38.3271 18.3158 35.6512 18.5256C30.8182 18.9066 25.7772 20.5216 21.9132 23.5156C11.2112 31.8076 8.85721 45.8326 1.40021 56.3866C1.03721 56.9006 0.332206 56.6846 0.265206 56.0786C-1.43279 40.7136 5.16721 22.6506 15.9252 11.6746ZM164.471 1.74571C157.919 -0.296292 150.538 -0.493292 144.02 1.80871C140.872 2.92071 138.005 4.40171 135.378 6.45171C132.79 8.47171 131.676 10.5267 129.743 13.0307C129.356 13.5327 129.994 14.2247 130.537 14.0637C140.738 11.0477 154.631 13.0867 163.104 19.4867C166.689 22.1957 169.646 25.8837 171.372 30.0517C173.985 36.3617 174.902 42.3067 182.45 44.4907C185.823 45.4677 189.549 44.4077 192.02 41.9617L192.635 41.3517L192.843 41.141C197.439 36.3352 195.245 29.5801 190.11 26.6157C189.161 24.8407 188.283 21.8597 187.448 20.4167C185.876 17.6937 183.916 15.1357 181.798 12.8177C177.13 7.71171 171.071 3.80371 164.471 1.74571ZM156.036 44.5815C172.692 43.8015 183.053 61.9875 179.223 76.8885C178.561 79.4595 175.685 81.9835 172.909 81.6945L172.209 81.6301C171.854 81.596 171.497 81.5511 171.169 81.4605C168.533 80.7305 166.17 77.9885 166.362 75.1465L166.413 74.3184C166.801 67.2793 166.038 59.1692 157.673 57.4645C150.578 56.0185 146.617 62.8475 146.533 69.1335C146.517 70.2495 145.263 71.0285 144.276 70.4285C139.147 67.3075 138.259 61.0985 140.218 55.7515C142.701 48.9765 148.915 44.9145 156.036 44.5815ZM63.4997 61.6149C57.6307 50.8989 44.5537 44.4379 32.4327 48.4819C25.8267 50.6849 20.5927 56.2799 17.8997 62.5709C15.8467 67.3649 14.8117 75.7409 20.5707 78.5239C21.3347 78.8929 22.0987 78.8039 22.7357 78.2449C28.1577 73.4889 27.9337 65.3249 35.6637 62.6269C42.2807 60.3169 49.5447 64.6709 51.3347 71.2699L51.4015 71.5005C52.9774 76.6056 60.0783 78.726 63.8697 74.5789C66.2937 71.9279 66.9157 69.7239 67.3287 66.2279C67.6147 63.7979 65.5587 62.2109 63.4997 61.6149ZM150.214 87.9682C148.264 65.8832 117.473 73.0662 105.201 80.0942C104.352 80.5802 104.675 82.0962 105.722 82.0162C108.163 81.8301 110.587 81.5015 113.011 81.173C117.151 80.612 121.287 80.0515 125.495 80.2022C129.964 80.3642 137.1 81.2762 138.777 86.2682C140.672 91.9112 134.562 96.2222 129.979 97.5692L129.713 97.6467C125.466 98.8763 117.455 100.78 113.649 98.1962C106.243 93.1662 98.3377 104.175 104.298 110.315C111.459 117.692 126.126 113.85 134.401 110.448L134.732 110.309C143.555 106.552 151.11 98.1312 150.214 87.9682ZM43.3465 121.477C56.0075 119.94 68.3817 122.402 80.7379 124.859C85.1111 125.729 89.4821 126.598 93.8627 127.29C102.711 128.686 111.57 129.728 120.523 130.116C122.324 130.194 124.127 130.24 125.929 130.277C126.096 128.691 126.984 127.234 128.908 126.361C132.852 124.574 136.008 123.768 140.338 123.94C144.301 124.097 148.278 124.504 152.181 125.218C159.268 126.518 166.386 129.466 171.57 134.589C183.567 146.442 181.741 165.481 172.471 178.391C153.319 205.069 118.364 206.307 88.4261 205.959L85.6634 205.923C82.6154 205.879 79.4206 205.891 76.1327 205.904L76.121 205.904C50.0058 206.004 18.0177 206.126 7.01977 178.584C2.46558 167.179 3.09822 153.96 8.67421 143.021C15.3249 129.974 29.3247 123.179 43.3465 121.477ZM81.4794 137.485L78.0689 137.102C77.7892 137.07 77.5094 137.038 77.2297 137.006C68.0368 135.957 58.8485 134.909 49.6549 135.539C48.2839 135.634 46.8919 135.783 45.4969 135.988C47.1713 142.03 47.0306 149.126 47.7301 155.107C48.0005 157.42 48.3418 159.714 48.7199 161.999L50.3634 161.922C60.5285 161.371 70.7036 161.032 80.8767 160.628C80.8759 158.718 80.8864 156.807 80.9169 154.895L80.9545 152.983C80.9884 151.554 80.9853 150.072 80.9822 148.563C80.9748 144.913 80.9669 141.102 81.4794 137.485ZM99.1274 138.664C108.873 138.652 119.127 138.311 129.049 136.71C129.463 137.009 129.9 137.27 130.361 137.459L130.753 137.601C130.23 142.195 129.86 146.809 129.523 151.424L129.029 158.345L127.265 158.439C114.764 159.074 102.261 159.687 89.7565 160.254L89.3311 156.653C88.8541 152.537 88.4152 148.417 88.0313 144.292C87.8407 142.25 87.709 140.155 87.4555 138.085C91.3441 138.43 95.2347 138.669 99.1274 138.664ZM22.3597 149.574C26.3002 142.485 33.6324 138.61 41.3798 136.776C39.4864 142.644 39.3956 149.948 39.2149 155.765L39.1128 158.814C39.0769 160.004 39.0488 161.196 39.0268 162.39C32.3981 162.629 25.7374 162.918 19.1896 163.68C18.992 158.767 20.0208 153.781 22.3597 149.574ZM133.358 138.428C133.904 144.953 134.207 151.505 134.609 158.042L142.85 157.602C144.224 157.527 145.597 157.45 146.97 157.371C148.454 157.286 150.056 157.099 151.708 156.906C156.003 156.406 160.64 155.865 164.453 156.955C164.856 152.155 163.484 147.479 159.152 144.255C151.547 138.591 141.864 140.608 133.358 138.428ZM162.585 164.278C159.359 165.039 155.772 165.031 152.353 165.023C150.839 165.02 149.358 165.017 147.956 165.08C143.678 165.275 139.399 165.444 135.121 165.617C135.322 168.538 135.519 171.457 135.733 174.376C136.008 178.148 136.034 182.135 136.756 185.891C145.366 182.953 153.08 178.241 158.868 170.706C160.31 168.829 161.601 166.626 162.585 164.278ZM128.251 165.905L128.495 165.895C128.318 168.393 128.136 170.89 127.967 173.389C127.697 177.412 127.761 181.732 127.061 185.787C126.359 186.373 125.83 187.229 125.649 188.501L125.629 188.717C115.677 190.492 105.17 190.681 95.4074 190.604C95.2976 190.367 95.1879 190.129 95.0362 189.893C94.6001 189.21 94.0144 188.74 93.3688 188.448L93.4296 188.028C93.5443 187.307 93.3051 186.307 93.0891 185.404C92.9875 184.979 92.891 184.576 92.8389 184.233C92.4547 181.703 92.0855 179.17 91.7413 176.635C91.3022 173.412 90.918 170.182 90.5419 166.953C103.117 166.73 115.683 166.39 128.251 165.905ZM21.2471 173.269C20.3321 171.062 19.7204 168.691 19.4061 166.269C25.8672 166.917 32.448 167.056 38.9849 167.117C39.0069 172.956 39.2992 178.802 40.1125 184.552C40.4388 186.865 41.731 188.215 43.3585 188.777C33.9787 186.944 25.1138 182.593 21.2471 173.269ZM80.9375 167.124C71.8788 167.278 62.8162 167.397 53.7594 167.286L49.6479 167.223C50.5161 171.881 51.461 176.523 52.2463 181.212C53.0656 186.099 48.7639 189.206 45.0409 189.081C45.459 189.149 45.8761 189.22 46.2942 189.279C55.9646 190.647 65.9434 190.576 75.817 190.505C77.8197 190.491 79.8181 190.477 81.8087 190.475C81.3529 187.814 81.3567 184.909 81.3601 182.337L81.3601 182.337C81.3614 181.325 81.3627 180.365 81.3358 179.491L81.3177 179.012C81.1371 175.047 81.0104 171.086 80.9375 167.124Z" transform="translate(50.00019 64.99949)" fill="#000000" fill-rule="evenodd" stroke="none"></path></g></g><g transform="translate(123 338)"><g><path d="M212.043 152.834C212.043 152.834 167.653 159.357 147.783 150.138C127.973 140.949 108.703 132.057 90.7328 119.884C72.3228 107.413 56.7028 92.6033 45.5528 73.6462C35.1828 56.0075 26.5628 37.291 17.8828 18.7189C17.3755 17.6336 12.3928 6.84431 10.6328 3.22611C7.92276 -2.38401 0.00276151 -0.623038 0.00276151 8.08566C0.00276151 16.7944 -0.387239 82.7459 14.8328 108.689C28.5628 132.121 51.8328 148.493 74.9528 162.783C100.533 178.584 134.513 195.664 165.033 200.177C192.653 204.257 224.173 192.797 244.173 173.907C265.083 154.151 271.003 127.312 281.793 101.609C284.203 95.8646 275.659 92.3999 273.153 98.0498C268.433 108.689 212.043 152.834 212.043 152.834Z" transform="translate(-2.482762 -14.77045)" fill="#000000" stroke="none"></path></g></g><g transform="translate(47 241)"></g></g></g></svg>