<?xml version="1.0" standalone="no"?>
<svg viewBox="-1300 -200 3350 3350" style="width: 585px; height: 585px; justify-content: center; align-self: center; transform: scale(-1, 1);" xmlns="http://www.w3.org/2000/svg"><rect x="-1300" y="-200" width="100%" height="100%" fill="#fbeaeb" rx="30"></rect><g transform="rotate(1 643.9603576660156 1489.6181411743164)"><g transform="translate(-286 492)"><path d="M1256.37 2319.45C1259.11 2331.31 1262.03 2343.84 1264.71 2355.67C1265.01 2356.28 1264.41 2357.62 1263.98 2357.81C1222.47 2366.55 1184.18 2371.34 1141.92 2376.49C1083.68 2384.67 1007.64 2394.05 957.649 2366.28C952.06 2384.97 931.281 2384.95 912.425 2384.94C908.051 2384.93 903.78 2384.93 899.827 2385.16L898.278 2385.17C878.153 2385.37 809.876 2386.05 807.94 2381.98C803.489 2365.55 801.034 2348.37 814.436 2340.6C813.219 2321.78 813.118 2304.05 812.303 2287.86C807.741 2273.06 808.552 2256.25 807.6 2240.57C807.573 2238.27 807.474 2235.9 807.375 2233.52C806.954 2223.43 806.518 2212.97 811.425 2205.05C813.829 2204.55 816.527 2204.41 819.278 2204.28C824.575 2204.01 830.066 2203.74 834.027 2200.79C826.805 2173.39 816.668 2142.96 791.947 2120.42C773.814 2121.69 755.692 2121.95 737.632 2121.1C714.195 2121.3 703.011 2112.46 697.509 2088.32C683.322 2038.12 668.958 1982.37 655.744 1931.63C622.159 1796.08 582.979 1656.82 528.595 1527.68C516.641 1496.78 503.505 1464.49 495.681 1433.45C414.207 1657.01 389.643 1869.07 373.521 2132.97C372.728 2146.92 371.909 2161.35 368.757 2174.97C368.261 2177.99 365.805 2177.28 363.77 2176.69C363.55 2176.63 363.334 2176.57 363.127 2176.51C355.36 2181.46 346.237 2181.56 335.821 2181.56C335.113 2217.14 341.248 2254.82 351.84 2289.63C361.211 2286.28 371.587 2283.26 380.545 2282.35C381.478 2282.56 381.519 2284.11 381.549 2285.23C381.557 2285.54 381.565 2285.81 381.589 2286.02C384.74 2289.54 388.346 2293.34 391.532 2296.7C392.198 2295.69 392.86 2294.73 393.519 2293.78C396.841 2295.99 399.691 2298.88 403.188 2300.84C404.2 2301.41 405.225 2301.31 406.043 2300.85C407.649 2301.89 409.4 2302.72 411.231 2303.52C411.985 2304.03 412.741 2304.53 413.497 2305.03C411.561 2307.07 409.436 2309.15 407.095 2311.27C441.89 2341.13 484.902 2360.66 538.392 2371.04C566.824 2375.81 601.917 2378.87 614.828 2406.84C618.339 2414.79 620.668 2423.83 615.559 2428.8C616.135 2434.76 615.616 2440.93 615.095 2447.11C614.793 2450.7 614.491 2454.29 614.402 2457.85C614.36 2458.5 614.245 2459.19 612.635 2459.41C587.892 2460.75 559.984 2464.78 530.444 2469.04C527.991 2469.39 525.508 2469.75 522.995 2470.11C450.987 2480.47 355.417 2494.23 299.46 2453.28C296.69 2461.04 295.58 2470.58 291.894 2477.64C243.047 2475.89 194.732 2475.12 145.667 2472.14C145.661 2472.13 141.757 2467.6 141.757 2467.6L141.687 2467.69C141.345 2463.99 140.816 2460.36 140.291 2456.76C138.988 2447.83 137.707 2439.05 139.367 2429.67C139.846 2424.23 140.323 2418.92 144.973 2417.17C145.371 2415.74 145.672 2414.49 147.303 2413.56C147.592 2413.23 149.43 2411.09 149.761 2410.71C142.935 2389.1 155.176 2354.78 164.757 2335.39C166.955 2324.07 169.926 2310.05 174.661 2296.68L176.923 2295.91L177.263 2293.14C178.914 2291.75 182.371 2292.8 185.259 2293.68C186.527 2294.07 187.686 2294.42 188.534 2294.52C189.725 2271.29 188.483 2248.44 187.24 2225.54C186.537 2212.59 185.833 2199.64 185.568 2186.59C183.625 2183.76 181.828 2180.84 180.188 2177.8C177.405 2179.85 174.776 2178.49 171.41 2176.31C164.782 2178.39 159.593 2172.54 157.573 2166.05C122.556 2034.55 111.714 1871.93 140.035 1737.53C168.311 1536.11 157.813 1335.6 147.305 1134.9C145.135 1093.45 142.964 1051.99 141.135 1010.52C113.543 1008.15 118.299 973.252 121.237 952.977C122.671 936.979 123.85 920.633 124.439 904.419C124.596 890.373 125.077 876.052 130.227 863.071C85.5508 828.681 27.8038 801.821 8.73885 745.997C-10.7752 622.816 5.06385 489.541 29.9828 366.563C61.8758 208.287 126.127 92.1509 289.339 98.2009L289.96 98.7619C328.297 105.171 370.845 73.3899 377.021 33.5379C377.957 27.9179 378.751 23.2899 382.771 20.9189C384.036 -11.5291 495.405 -1.39811 509.321 18.7539C513.758 17.9698 514.385 20.4169 515.128 23.312C515.413 24.4231 515.714 25.6001 516.255 26.6859C517.551 32.8599 519.043 39.5789 520.55 45.7069L525.686 45.6749C530.942 59.2149 533.269 75.6859 548.033 83.1459C564.432 83.4129 585.035 84.8899 602.221 94.7839C740.806 124.227 762.89 266.412 757.563 389.125C753.612 464.343 773.565 540.833 793.506 617.275C821.525 724.686 849.52 832.002 811.139 935.562C839.712 1005.46 839.137 1099.69 780.147 1148.31C785.064 1154.82 786.25 1162.87 787.571 1171.05C797.199 1225.02 802.366 1281.13 807.305 1336.73C829.696 1585.35 846.514 1844.17 951.484 2076.77C951.34 2076.93 945.468 2078.76 945.291 2078.86C954.528 2091.71 957.903 2107.65 964.773 2122.04C975.751 2146.66 986.918 2165.71 1000.78 2183.72C1007.21 2177.32 1011.1 2179.91 1018.11 2184.91C1021.72 2188.03 1028.63 2189.49 1029.48 2194.21C1034.04 2196.69 1039.79 2200.68 1044.44 2203.9L1044.42 2203.97C1049.65 2207.63 1055.58 2211.41 1060.92 2214.85C1062.59 2212.65 1065.74 2206.67 1068.64 2199.87C1069.15 2199.9 1069.69 2199.88 1070.26 2199.77C1070.6 2199.7 1070.92 2199.61 1071.25 2199.49C1068.77 2206.71 1066.04 2213.46 1065.05 2217.38C1107.76 2243.66 1152.38 2261.4 1197.6 2269.58C1225.64 2274.41 1238.31 2282.49 1252.79 2317.95C1253.59 2318.22 1256.1 2318.44 1256.37 2319.45ZM224.586 578.422L226.001 561.539L226.261 558.339L220.275 557.133L218.755 549.543C209.687 578.488 198.47 606.877 189.724 635.98C186.271 656.401 198.227 666.948 212.771 678.911C218.335 644.931 223.38 610.501 223.53 576.444L224.586 578.422Z" transform="translate(300 -32)" fill="#FFFFFF" fill-rule="evenodd" stroke="none"></path><path d="M395.23 2.28445C393.27 0.513452 390.49 -0.446548 387.26 0.204452C377.654 2.13633 377.235 12.0644 375.751 19.7735L375.64 20.3335C374.22 27.3435 371.56 33.7935 367.98 39.9735C353.398 64.7575 325.499 82.0014 296.31 78.2534C294.98 77.0535 293.11 76.4635 291.3 77.0635C291.43 77.1735 291.57 77.2844 291.7 77.3835C120.275 71.0915 59.116 202.78 29.262 349.737C5.40795 457.577 -4.00605 568.626 1.54995 678.943C1.89742 682.205 2.04642 686.905 2.21493 692.22C2.70546 707.693 3.36127 728.38 9.55995 733.963C27.864 789.628 85.225 815.786 128.48 849.083C124.424 860.716 123.893 873.019 123.661 885.238L123.581 889.815C122.9 905.484 121.85 921.143 120.42 936.773C120.157 939.648 119.794 942.595 119.427 945.58C117.991 957.241 116.482 969.501 120.55 980.423C123.811 989.08 131.108 998.115 140.76 999.263C143.356 1022.92 144.2 1046.86 146.24 1070.53C146.91 1130.08 149.265 1189.71 151.621 1249.36C157.845 1406.92 164.073 1564.59 139.247 1721.02C126.638 1802.92 116.259 1885.87 124.851 1968.74C131.067 2028.11 142.628 2086.87 155.458 2145.11L156.889 2151.58C159.33 2159.56 165.64 2167.15 174.54 2165.78C177.608 2167.64 181.343 2169.07 184.67 2167.45C184.842 2181.65 185.625 2195.84 186.408 2210.03C187.555 2230.82 188.702 2251.61 187.928 2272.41C187.757 2272.37 187.587 2272.32 187.417 2272.28C185.789 2271.86 184.187 2271.45 182.364 2271.74C179.988 2272.12 177.45 2273.44 176.629 2275.87C176.566 2276.05 176.527 2276.25 176.503 2276.45C176.311 2276.51 176.117 2276.59 175.92 2276.69C175.35 2276.43 174.61 2276.93 174.74 2277.52C169.986 2290.41 166.787 2304.43 164.149 2317.97C154.894 2335.78 149.279 2355.63 147.411 2375.69L147.364 2376.1C146.695 2381.79 145.896 2388.59 148.16 2393.99L148.073 2394.09C146.601 2395.17 145.437 2396.52 144.946 2398.08C144.93 2398.09 144.914 2398.1 144.898 2398.11L144.604 2398.28C140.168 2401.06 139.253 2406.64 138.74 2411.55L138.552 2413.43C137.818 2420.85 137.285 2428.79 138.47 2436.19C139.112 2440.2 140.207 2443.98 140.571 2448.08C140.885 2451.62 140.89 2455.17 141.577 2458.66C141.967 2460.65 144.883 2461.03 146.025 2459.63C147.01 2460.78 148.194 2461.41 149.61 2461.38C198.27 2464.35 247.15 2465.14 295.87 2466.89C298.52 2466.99 301.05 2464.94 301.73 2462.43C303.28 2456.74 304.95 2451.08 306.57 2445.41C364.238 2482.91 454.851 2469.84 535.319 2458.24C564.673 2454.01 592.678 2449.97 617.24 2448.65C620.81 2448.23 623.33 2446.06 623.56 2442.32C623.645 2438.75 623.951 2435.15 624.257 2431.55C624.739 2425.88 625.22 2420.21 624.84 2414.63C630.103 2407.96 627.05 2396.93 623.82 2389.65L623.53 2389C609.76 2359.13 574.137 2355.4 545.258 2350.68L543.499 2350.38C498.482 2341.71 454.377 2324.71 418.79 2295.26C428.395 2286.15 439.778 2271.1 438.551 2257.35C437.27 2251.37 431.9 2248.05 426.02 2248.41C413.096 2249.5 403.564 2262.66 396.128 2272.27L395.33 2273.29C393.75 2271.62 392.2 2269.94 390.66 2268.24C390.49 2264.65 388.1 2261.15 383.92 2261.65C375.64 2262.64 367.59 2264.66 359.71 2267.34C357.76 2258.27 354.16 2249.41 352.15 2240.3C347.079 2218.48 345.711 2196.2 345.162 2173.85L345.09 2170.73C354.761 2170.58 360.317 2170.12 367.83 2166.13C371.91 2167.33 376.53 2165.82 377.79 2160.35C381.9 2142.58 382.12 2124.22 383.37 2106.06C397.094 1878.67 421.693 1649.67 499.248 1434.13C500.423 1438.33 501.667 1442.51 503.041 1446.67C507.506 1460.2 512.568 1473.57 517.705 1486.86C527.704 1512.73 537.711 1538.6 547.703 1564.48C562.445 1602.65 577.066 1640.93 590.283 1679.67C624.857 1795.29 653.265 1912.83 684.55 2029.34C688.56 2044.15 692.63 2058.94 696.8 2073.7C702.623 2098.87 714.82 2110.46 741.561 2110.35C759.121 2111.17 776.715 2110.97 794.26 2109.8C814.554 2128.99 824.6 2154.5 831.827 2180.7L832.29 2182.39C830.345 2183.36 826.942 2183.45 823.401 2183.54C817.404 2183.69 811.012 2183.85 810.65 2188.32C805.631 2196.54 806.085 2206.58 806.522 2216.22C806.656 2219.19 806.789 2222.12 806.759 2224.95C807.733 2241.07 806.902 2258.15 811.69 2273.59C811.957 2289.86 812.598 2306.13 813.46 2322.39C799.716 2332.31 803.116 2351.67 806.888 2366.08L807.36 2367.85C806.746 2375.64 855.225 2374.9 884.25 2374.46L884.262 2374.46L884.296 2374.46L884.318 2374.46C893.713 2374.32 901.05 2374.21 904.02 2374.43C908.404 2374.07 913.243 2374.08 918.239 2374.1C936.046 2374.17 955.84 2374.24 964.11 2357.23C1016.58 2383.06 1085.04 2373.93 1146.74 2365.7C1163.09 2363.52 1178.96 2361.41 1193.93 2360.02C1219.11 2356.32 1244.18 2351.95 1269.13 2346.96C1272.75 2346.23 1274.5 2342.1 1273.75 2338.82C1272.38 2332.77 1270.99 2326.73 1269.59 2320.69L1265.4 2302.55C1264.91 2300.43 1262.88 2298.5 1260.67 2297.96C1254.31 2281.52 1244.13 2265.08 1228.38 2256.43C1218.87 2251.5 1208.33 2250.07 1197.96 2248.01L1196.49 2247.72C1153.51 2239.14 1112.65 2222.02 1075.28 2199.45C1078.99 2188.95 1082.47 2178.53 1084.7 2167.64C1088.34 2155.46 1078.65 2145.28 1066.5 2150.38C1056.11 2155.05 1049.72 2169.09 1046.45 2179.55L1046.18 2180.42C1043.49 2178.57 1040.65 2176.72 1037.73 2175.04C1036.21 2170.79 1031.19 2168.98 1027.32 2166.57C1026.62 2166.1 1025.88 2165.59 1025.13 2165.07C1019.41 2161.08 1012.34 2156.14 1005.94 2160.96C992.832 2143.48 982.327 2124.09 973.46 2104.16C967.26 2091.66 964.462 2077.64 957.041 2065.87C959.557 2065.06 961.692 2062.16 960.226 2059.01C952.098 2041.57 944.378 2023.93 937.13 2006.1C936.444 2004.41 935.76 2002.72 935.078 2001.03L930.993 1990.89C927.706 1981.97 924.588 1972.97 921.773 1963.83C912.884 1934.98 903.425 1906.34 895.389 1877.22C894.718 1874.79 894.064 1872.36 893.406 1869.92C871.107 1779.14 856.303 1686.27 842.71 1593.62L840.835 1580.8C830.793 1494.26 824.106 1407.3 816.45 1320.54L816.014 1315.61C812.956 1281.09 809.747 1246.57 805.328 1212.2C803.088 1194.78 800.796 1177.32 797.61 1160.04L797.455 1159.19C796.132 1151.76 795.264 1143.74 792.46 1136.74C792.003 1135.6 791.458 1134.48 790.811 1133.46C849.716 1080.98 847.629 988.525 820.64 919.734C858.713 813.333 830.682 707.246 802.673 601.242C787.198 542.677 771.73 484.137 767.42 425.583C766.869 408.564 766.797 391.059 766.724 373.357C766.285 266.168 765.816 151.715 658.686 93.5355C642.88 84.8145 625.902 77.7755 608.14 74.2845C592.211 65.3249 573.321 62.9346 555.23 62.4627L553.51 62.4235C543.453 56.9614 540.293 44.7235 536.733 34.4605L536.259 33.1145C535.23 29.3245 532.92 25.0535 532.51 21.1735C532.47 20.8335 531.95 20.6945 531.86 21.0835L531.438 22.2365C518.02 60.3008 554.413 99.6928 591.43 104.484C608.288 163.941 572.829 216.95 508.929 213.581C434.939 208.033 330.346 167.204 303.6 92.0535C314.119 91.8572 324.184 88.9095 334.128 85.7906L337.74 84.6535C340.31 83.4765 343.888 83.6535 345.47 81.0434C371.037 68.1935 390.76 44.0205 395.02 15.6035C394.885 15.7092 394.677 15.8538 394.374 16.0498L394.096 16.2277C394.514 15.9588 394.895 15.6703 395.24 15.3735C395.6 11.0135 395.65 6.65445 395.23 2.28445ZM596.02 107.404C595.41 106.553 594.78 105.713 594.11 104.914C594.61 104.984 595.11 105.043 595.62 105.103C595.76 105.873 595.89 106.643 596.02 107.404ZM682.503 256.753L685.367 275.636C695.886 344.875 706.739 414.102 721.671 482.545C722.494 486.316 727.35 481.253 726.457 473.951C717.297 399.046 682.812 256.606 682.498 256.681C682.497 256.681 682.497 256.682 682.496 256.684L682.503 256.753ZM224.69 544.484L225.44 542.173L225.18 545.373L224.939 544.925L224.69 544.484ZM221.74 553.383C214.242 576.192 205.458 598.595 198.681 621.643C197.273 637.242 202.075 643.712 213.53 653.614C218.487 625.32 220.54 596.623 223.19 568.023C222.787 563.134 222.706 558.203 221.74 553.383ZM767.356 683.508C757.704 638.583 748.084 619.625 760.307 684.33L761.634 691.318C766.929 719.335 772.507 751.098 777.746 785.292L778.839 792.45C784.308 827.904 792.904 879.802 793.539 921.379C794.24 967.241 771.628 981.748 761.673 988.135C761.388 988.318 761.113 988.494 760.85 988.664C759.406 992.895 760.634 996.555 761.946 1000.46C762.243 1001.35 762.544 1002.24 762.82 1003.16C764.83 1011.16 765.35 1018.85 764.778 1027.07C762.791 1055.12 747.809 1080.45 741 1107.06C749.725 1104.67 759.458 1096.8 767.08 1090.57C780.614 1079.8 790.059 1063.85 794.14 1046.92C796.08 1038.93 794.67 1029.06 800.11 1022.51C801.71 1020.58 805.17 1020.77 806.8 1022.51C811.24 1027.24 810.82 1033.04 810.1 1039.09C807.681 1059.68 798.63 1079.86 784.05 1094.67C783.363 1102.28 781.095 1109.05 779.59 1116.28C780.17 1117.9 780.75 1119.52 781.3 1121.15C791.176 1112.62 799.433 1102.3 805.83 1090.93C832.824 1043.52 825.382 989.307 818.244 937.31C817.833 934.313 817.423 931.324 817.02 928.343C815.537 932.005 812.157 933.463 808.87 933.103C806.981 937.832 802.044 934.818 801.848 928.703C800.626 890.596 795.564 836.419 786.25 780.923C780.7 747.856 773.978 714.331 767.356 683.508ZM304.25 935.883C336.85 909.072 392.659 900.498 406.82 856.543C420.031 885.724 431.481 916.599 452.419 941.353C472.958 965.935 511.468 982.154 513.06 1018.05C503.255 1012.35 495.616 1002.51 487.69 994.524C479.653 986.276 472.414 977.366 465.02 968.553C457.89 960.673 446.86 972.133 453.48 980.083C481.456 1010.83 481.812 1050.26 469.46 1087.76C467.48 1078.78 465.9 1069.86 462.93 1061.05C455.56 1039.2 444.38 1018.84 430.43 1000.52C427.07 996.115 418.37 998.354 420.58 1004.67C427.55 1024.58 430.7 1046.61 427.54 1067.61C426.06 1077.4 421.84 1086.71 421.27 1096.65C421.229 1097.4 421.293 1098.4 421.363 1099.49C421.614 1103.38 421.936 1108.36 417.69 1106.82C415.723 1106.11 413.96 1102.14 413.017 1099.33L412.85 1098.81C408.416 1084.25 409.349 1068.83 407.65 1053.85L407.578 1053.19C405.465 1033.94 402.131 1014.24 388.34 999.623C385.28 996.373 380.76 998.464 379.31 1002C374.685 1013.16 374.006 1025.45 373.331 1037.67C372.396 1054.6 371.467 1071.41 360.081 1084.96C359.1 1086.04 353.5 1091.51 352.59 1090.79C351.278 1089.76 352.289 1084.6 352.777 1082.11C352.821 1081.88 352.861 1081.68 352.894 1081.5L352.97 1081.08C362.412 1042.06 342.771 1007.68 324.524 975.734C316.713 962.06 309.158 948.834 304.25 935.883ZM256.01 986.144L258.055 986.351C277.511 988.314 297.598 990.28 316.78 985.683C345.067 1027.04 345.678 1040.27 342.405 1084.38L341.859 1091.61C343.4 1100.81 352.65 1103.56 360.23 1098.82C380.063 1085.3 381.884 1062.19 383.65 1039.77C384.328 1031.18 384.997 1022.68 386.67 1014.87C406.539 1038.23 386.853 1112.08 418.058 1117.58C431.218 1117.37 432.62 1107.68 431.874 1097.12L431.799 1096.14C432.29 1090.15 434.37 1084.24 435.87 1078.45C439.76 1063.31 440.28 1047.09 438.16 1031.3C450.841 1052.91 457.767 1077.34 459.219 1102.18C461.82 1109.69 470.54 1111.93 476.33 1106.67C484.269 1099.45 486.528 1085.59 488.52 1075.15L488.91 1073.14C493 1055.74 495.377 1037.34 490.95 1019.78C493.97 1022.5 497.05 1025.13 500.19 1027.67C517.604 1041.66 533.04 1028.89 527.31 1008.05C600.875 1024.07 684.542 1029.96 752.99 993.423C759.033 1022.68 747.338 1051.24 736.278 1078.26C735.077 1081.19 733.884 1084.1 732.722 1087L731.631 1089.73C715.827 1130.03 746.623 1127.37 770.22 1106.41L770.48 1107.63C768.313 1113.24 767.011 1119.87 768.47 1125.94C764.285 1132.05 770.181 1140.22 777.06 1139.99C797.202 1250.83 796.507 1364.31 812.313 1475.83C820.037 1532.73 827.661 1589.92 836.302 1646.98C842.507 1691.67 849.875 1736.19 858.968 1780.36C876.99 1873.79 900.169 1965.99 933.55 2055.07C872.948 2081.83 804.643 2092.69 738.12 2089.63C724.843 2089.65 720.321 2084.78 717.424 2072.67L717.241 2071.88C704.52 2028.91 692.706 1985.65 681.04 1942.38C636.72 1780.13 599.963 1613.99 527.021 1461.5C521.775 1452.08 518.716 1441.43 515.3 1431.38C512.301 1421.61 510.439 1411.49 510.66 1401.23C528.302 1349.7 546.296 1298.25 561.93 1246.05C580.607 1229.65 603.237 1217.44 617.376 1196.54L618.177 1195.34C621.383 1190.45 622.311 1186.49 620.11 1180.94C619.32 1178.93 617.09 1176.89 614.69 1177.86C609.457 1178.98 606.076 1182.71 603.971 1187.48C601.75 1191.33 599.17 1194.94 596.36 1198.37C587.351 1209.26 576.465 1218.43 566.92 1228.83C579.493 1187.05 586.771 1144.16 594.845 1101.41L595.838 1096.17C596.78 1092.3 590.98 1090.69 589.88 1094.52C558.077 1231.03 504.33 1360.64 461.298 1493.73C393.703 1703.24 374.871 1924.26 360.49 2142.78C353.67 2143.99 346.948 2145.73 340.66 2148.46C332.501 2149.02 324.374 2149.69 316.21 2150.15C272.914 2152.98 228.937 2152.01 186.8 2140.76C186.684 2140.16 186.09 2139.61 185.99 2140.56C182.56 2139.72 179.14 2138.86 175.72 2138C161.493 2069.14 147.173 1999.96 143.19 1929.59C138.593 1860.1 148.412 1791.21 158.195 1722.58C159.281 1714.97 160.366 1707.35 161.431 1699.74L162.334 1693.25C184.163 1533.38 175.162 1372.55 166.176 1211.98C163.121 1157.38 160.067 1102.82 158.228 1048.33C156.708 1026.04 156.394 1003.24 151.69 981.473C181.901 976.631 212.131 980.525 242.18 984.395C245.917 984.876 249.651 985.357 253.382 985.821L256.01 986.144ZM786.901 1136.83L788.187 1135.74C789.247 1138.86 789.245 1142.93 789.243 1146.18C789.243 1147.35 789.242 1148.42 789.292 1149.3L789.493 1152.66C788.458 1147.55 787.391 1142.45 786.25 1137.36C786.469 1137.19 786.685 1137.01 786.901 1136.83ZM947.95 2075.18L941.301 2077.42C900.256 2091.2 858.36 2104.12 814.76 2107.98C817.1 2110.3 819.07 2113.05 820.8 2115.97C822.308 2117.26 823.828 2118.89 823.4 2120.83C824.8 2123.66 826.04 2126.53 827.22 2129.24C834.117 2145.65 842.078 2161.79 847.891 2178.67C848.413 2180.85 849.409 2183.3 850.443 2185.85C852.752 2191.53 855.254 2197.69 853.12 2202.4C899.472 2222.59 957.131 2213.6 992.54 2176.67L991.291 2174.83C970.944 2144.69 953.062 2111.57 947.95 2075.18ZM813.94 2120.19C813.96 2120.36 813.97 2120.52 813.98 2120.69C814.307 2121.03 814.633 2121.36 814.957 2121.71L815.44 2122.22L814.88 2120.84C814.57 2120.64 814.25 2120.41 813.94 2120.19ZM1064.76 2166.21C1066.13 2164.39 1070.92 2158.02 1073.67 2160.39C1076.58 2163.47 1066.48 2187 1063.67 2191.85L1063.5 2192.13C1060.48 2190.18 1057.49 2188.27 1054.52 2186.23C1056.88 2179.19 1060.06 2172.46 1064.68 2166.31L1064.76 2166.21ZM192.18 2159.87L192.229 2160.12C194.717 2160.51 197.21 2160.86 199.714 2161.14C205.796 2161.83 211.958 2162.14 218.097 2162.27C209.457 2161.02 200.811 2160.01 192.18 2159.87ZM336.748 2166.51C332.533 2167 328.313 2167.43 324.087 2167.81C307.138 2169.34 290.13 2170.11 273.122 2170.6L265.182 2170.82C249.333 2171.24 233.382 2171.62 217.563 2170.76C209.563 2170.32 201.359 2169.38 193.624 2167.21C200.429 2202.9 203.929 2239.26 203.82 2275.58C205.945 2277.42 205.515 2280.46 204.95 2282.78L205.483 2284.36C206.723 2288.06 207.907 2291.81 208.38 2295.59C250.225 2320.48 286.016 2302.44 323.39 2283.6C329.875 2280.33 336.409 2277.04 343.03 2273.94C335.651 2254.75 333.406 2233.71 332.17 2213.32C331.481 2197.47 332.666 2182 336.748 2166.51ZM420.41 2263.43C422.066 2262.3 423.964 2261.02 426.01 2260.79C423.023 2270.84 416.687 2279.89 408.62 2286.39C406.47 2284.42 404.36 2282.41 402.29 2280.37C407.68 2274.11 413.58 2268.32 420.41 2263.43ZM1247.53 2316.16C1250.26 2315.79 1252.83 2315.67 1254.79 2314.24C1256.34 2321.29 1257.89 2328.34 1259.45 2335.38C1219.17 2343.17 1178.58 2349.32 1137.77 2353.64C1126.27 2354.31 1114.29 2355.53 1102.08 2356.78C1054.15 2361.67 1002.63 2366.92 962.57 2340.35C957.24 2336.63 951.76 2342.74 952.66 2347.96L952.699 2348.22C953.286 2352.77 948.679 2356.56 944.93 2358.09C940.732 2359.81 936.076 2360.14 931.537 2360.32L928.6 2360.42C891.846 2362.01 855.075 2361.27 818.34 2359.88C815.001 2349.87 813.471 2338.78 819.75 2329.82C882.427 2324.8 945.281 2325.7 1008.13 2326.61C1077.2 2327.61 1146.26 2328.6 1215.06 2321.72C1221.05 2320.58 1233.41 2321.13 1239.62 2317.11C1242.14 2316.92 1244.64 2316.58 1247.14 2316.22L1247.53 2316.16ZM165.8 2400.15C161.657 2402.45 157.124 2402.72 153.31 2405.77C150.63 2420.43 150.85 2435.64 154.07 2450.19C199.77 2450.68 245.53 2452.99 291.21 2454.56C293.05 2447.49 294.79 2440.38 296.71 2433.33L296.755 2433.19L296.856 2432.91C301.597 2433.07 306.339 2433.21 311.082 2433.33C362.557 2470.22 454.516 2457.04 533.289 2445.75C561.874 2441.65 588.722 2437.8 611.27 2436.68L612.14 2422.59C611.283 2423.19 610.434 2423.52 609.619 2423.64C610.406 2421.58 609.007 2418.9 606.215 2419.68C601.708 2420.94 597.179 2422.11 592.634 2423.2C592.289 2423.06 591.898 2423 591.46 2423.03C555.892 2426.07 520.193 2426.14 484.52 2426.2C480.32 2426.21 476.121 2426.22 471.923 2426.23C453.422 2426.28 434.931 2426.68 416.439 2427.07C395.215 2427.52 374.005 2427.97 352.783 2427.91C336.578 2427.87 320.374 2427.62 304.176 2427.14C257.521 2418.48 211.198 2408.25 165.8 2400.15Z" transform="translate(292.9999 -20.00065)" fill="#000000" fill-rule="evenodd" stroke="none"></path></g><g transform="translate(225 0)"><g><g><path d="M345.142 90.1373C346.232 80.0123 334.379 53.0009 334.665 58.4799C315.663 29.1809 278.58 17.6589 246.585 7.98693C178.664 -14.4351 125.626 12.6439 77.9044 60.6369C49.7304 86.9539 22.9224 116.351 8.77943 152.782C-19.0436 222.28 22.6614 301.526 86.0844 334.726C91.2024 337.496 96.7794 340.126 101.653 343.472C127.871 358.619 158.658 363.859 187.873 370.452C242.529 382.945 311.172 376.991 343.382 324.955C365.229 288.025 359.425 243.256 357.715 202.272C355.146 166.363 350.637 125.783 345.142 90.1373Z" transform="translate(48.99997 119.0004)" fill="#FFFFFF" stroke="none"></path><path d="M279.593 0.314017C231.741 -2.49198 179.404 13.552 143.994 46.654C138.935 51.382 134.281 56.661 129.975 62.293C124.341 67.671 118.995 73.345 114.001 79.298C79.4814 120.439 60.4014 172.179 53.1514 224.958C49.4214 252.128 48.4714 279.579 50.1714 306.949C50.7651 316.485 51.847 326.007 52.9292 335.533C54.8544 352.479 56.7808 369.435 55.9614 386.489C55.3714 398.589 53.1914 411.009 47.2214 421.699C41.5964 431.777 32.7458 438.7 23.982 445.853L22.2314 447.288C13.3714 454.589 3.94137 463.069 0.94137 474.628C-2.31863 487.169 3.11137 499.809 13.7814 506.849C24.4314 513.878 38.2714 514.458 49.9014 509.759C56.6644 507.023 62.6164 503.035 68.1324 498.31C73.9294 502.148 81.3714 504.086 88.4824 503.662C94.8374 503.283 102.145 501.619 108.882 498.687C114.561 502.892 122.173 504.356 129.127 504.128C137.722 503.847 147.326 501.439 155.076 496.652C158.604 497.621 162.356 498.047 166.171 497.859C184.451 496.949 196.801 482.819 201.031 465.759C205.621 447.208 202.521 426.798 197.561 408.628C192.551 390.259 184.401 372.679 173.751 356.899C171.871 354.119 169.931 351.399 167.901 348.729C165.701 344.089 163.29 339.538 160.571 335.248C158.58 332.119 156.381 328.829 153.85 325.849C154.621 324.919 155.341 323.878 156.1 322.788C157.641 320.579 156.061 317.288 153.611 316.659C151.391 316.099 149.491 315.038 147.181 314.769C144.931 314.498 142.58 314.619 140.33 314.458C136.401 314.189 132.611 313.069 129.161 311.169C128.901 311.029 128.641 310.878 128.391 310.718C128.387 310.723 128.385 310.725 128.382 310.725C128.379 310.725 128.377 310.72 128.371 310.708C128.1 310.559 127.821 310.388 127.561 310.229C120.211 305.569 115.79 298.138 114.151 289.538C112.361 280.128 113.951 269.649 117.911 260.958C120.661 254.929 126.191 247.038 132.821 245.019C134.475 245.595 136.296 246.599 138.179 247.636C143.265 250.44 148.799 253.49 152.681 249.009C154.33 247.109 154.661 244.138 152.681 242.269C151.711 241.359 150.471 240.538 149.111 239.809C149.821 238.798 150.521 237.788 151.211 236.779C152.271 235.449 153.271 234.079 154.161 232.659C154.58 231.989 155.001 231.319 155.441 230.649L155.491 230.559L158.694 225.867C166.152 214.908 173.5 203.874 180.771 192.788C186.29 188.859 191.731 184.809 197.1 180.699C223.481 160.538 248.1 137.929 269.571 112.569C276.451 104.439 283.031 96.038 289.241 87.378C311.771 92.439 334.83 95.679 357.031 101.979C371.531 106.099 385.911 111.119 399.04 118.628C405.391 122.259 411.401 126.429 416.661 131.529C419.131 133.929 421.441 136.489 423.481 139.259C425.901 142.548 427.631 143.998 431.361 145.089C431.671 145.809 432.121 146.519 432.701 147.189C433.441 148.038 434.261 148.679 435.141 149.138C434.951 151.309 434.691 153.479 434.641 155.699C434.581 158.339 434.583 160.988 434.585 163.634C434.586 164.947 434.587 166.259 434.58 167.569C434.572 169.252 434.559 170.936 434.547 172.62C434.5 178.853 434.454 185.092 434.611 191.319C434.883 202.155 435.537 213.001 436.253 223.831L437.121 236.819C439.04 265.729 442.441 294.638 443.421 323.589C444.231 347.829 442.031 374.859 425.421 394.019C417.881 402.729 408.531 409.399 398.241 414.498C387.521 419.798 375.33 424.079 363.631 426.429C347.958 429.589 331.455 429.057 315.523 428.185L313.251 428.059C305.35 427.619 297.251 427.489 289.431 426.279C283.451 425.359 277.781 422.798 272.011 421.169C270.491 420.739 268.83 421.949 268.871 423.559C269.156 436.147 284.134 437.868 294.29 438.599L297.99 438.85C313.684 439.885 329.447 440.688 345.181 440.239C346.361 440.208 347.551 440.159 348.731 440.109C343.231 450.138 344.1 462.548 349.691 472.659C351.231 475.439 353.141 477.919 355.35 480.089C362.131 486.788 371.651 490.569 381.211 491.029C381.461 491.138 381.721 491.248 381.981 491.349L382.561 491.583C390.871 494.918 399.472 497.454 408.531 496.378C414.54 495.669 419.961 493.042 424.164 489.238C429.623 490.951 435.522 490.748 441.033 489.144C447.354 492.078 454.15 493.591 460.751 489.748C467.441 485.859 471.401 477.779 471.151 470.149C470.868 461.706 465.091 455.544 458.017 451.767C456.926 448.075 455.208 444.456 453.432 440.889L451.792 437.61L449.691 432.609C448.892 430.721 448.084 428.837 447.278 426.954C445.555 422.163 443.936 417.33 442.693 412.394C441.795 408.827 441.393 405.597 440.2 402.728C452.719 387.163 459.169 368.03 460.54 347.059C461.451 333.079 460.401 319.038 459.061 305.119L458.283 297.033C456.978 283.556 455.635 270.076 454.201 256.609C452.201 237.779 449.931 218.979 447.421 200.218C446.221 191.208 444.721 182.279 443.091 173.339C442.818 171.839 442.54 170.339 442.26 168.839L440.571 159.839C439.951 156.538 438.981 153.259 438.171 149.979C441.901 150.279 445.841 148.048 447.721 144.509C450.176 139.89 448.828 133.639 447.685 128.344C447.507 127.52 447.334 126.719 447.182 125.951L446.824 124.08C444.601 112.713 440.676 101.68 435.701 91.218C425.281 69.298 409.001 50.819 387.941 38.619C383.736 36.181 379.395 33.939 374.955 31.867C368.373 27.058 361.235 22.974 353.91 19.485C330.488 8.32802 305.51 1.83402 279.593 0.314017ZM156.411 275.759C151.631 269.659 142.011 263.878 133.991 266.309C128.511 267.958 123.321 273.479 123.711 279.399C123.771 280.288 125.191 280.619 125.371 279.628C126.421 273.779 132.381 273.179 136.831 275.579C140.931 277.788 143.271 282.569 146.141 286.019C148.671 289.048 153.791 288.579 156.411 286.019C159.491 283.009 158.811 278.819 156.411 275.759ZM603.171 348.009C603.361 348.019 603.541 348.029 603.711 348.099C603.825 348.147 603.921 348.224 604.01 348.308L604.851 349.149C605.151 349.449 605.131 349.909 604.851 350.209C604.605 350.482 604.162 350.49 603.872 350.279L603.791 350.209L602.92 349.337C602.824 349.234 602.743 349.122 602.701 348.979C602.661 348.839 602.661 348.679 602.651 348.529C602.641 348.259 602.901 348.009 603.171 348.009Z" transform="translate(-41.99967 59.99968)" fill="#000000" fill-rule="evenodd" stroke="none"></path></g></g><g transform="translate(159 186)"><g><path d="M175.373 49.5872C175.699 49.4437 175.991 49.2049 176.203 48.8583C178.978 44.3099 179.267 38.8813 178.039 33.5637C176.563 27.172 172.899 20.9588 168.944 16.7559C163.959 11.4582 157.895 7.75374 151.246 4.94731C150.762 4.74287 150.267 4.53098 149.763 4.31514C142.964 1.40541 134.597 -2.01031 127.865 1.47064C125.161 2.86951 123.673 5.20381 123.256 7.7496C122.814 10.4534 123.597 13.4099 125.462 15.7216C128.557 19.5594 133.339 20.3533 138.087 21.0465C139.602 21.2677 141.106 21.486 142.53 21.8229C147.429 22.9821 152.604 24.4361 157.104 26.7244C166.253 31.3762 170.54 38.5898 172.747 48.2853C172.837 48.6781 173.037 48.9988 173.3 49.2406C173.575 49.4928 173.921 49.6579 174.285 49.7192C174.651 49.7808 175.032 49.7375 175.373 49.5872ZM58.3942 19.1934C55.0693 22.4329 51.1339 22.9347 47.1526 23.381C44.9405 23.6313 43.1746 23.8331 41.4369 24.2252C36.6605 25.3034 31.9393 26.9272 27.6319 29.2659C23.1292 31.7106 18.2224 34.659 14.6922 38.4361C13.8528 39.3349 13.0615 40.278 12.2691 41.2232C11.5465 42.0851 10.8505 42.9149 10.1169 43.7149C9.27449 44.6339 8.47449 45.597 7.67875 46.5576C7.1867 47.3681 7.0895 47.5675 6.99041 47.775C6.8413 48.0869 6.66786 48.4359 6.46976 48.8103C6.19845 49.323 5.88066 49.8843 5.54784 50.3932C4.9941 51.3234 4.69697 51.5796 4.44022 51.6942C4.01419 51.8839 3.61015 51.9774 3.21817 51.9268C2.85064 51.8793 2.50438 51.7028 2.16244 51.4138C0.455387 49.9715 -0.0480658 47.6046 0.00353523 45.092C0.0818393 41.2793 1.48813 37.0578 2.78452 34.4628C5.79888 28.4331 9.97938 22.1649 15.0062 17.6646C20.7422 12.5276 27.0177 8.63869 34.2256 5.95894C38.705 4.29304 43.8913 2.76391 48.7713 2.95706C52.284 3.09609 55.6373 4.14026 58.4066 6.74782C60.1072 8.34853 60.9235 10.6254 60.9235 12.9006C60.9235 15.2211 60.0757 17.5554 58.3942 19.1934ZM164.634 78.3299C166.478 78.8824 167.779 78.6212 169.441 77.7551C170.719 77.0896 171.589 76.0387 172.088 74.8117C172.599 73.5559 172.706 72.1077 172.454 70.7659C171.405 65.1948 168.042 60.2513 163.503 57.0672C159.091 53.9728 153.589 52.5435 148.048 53.7341C144.003 54.6036 138.007 58.4424 134.85 63.1243C133.504 65.1203 132.671 67.2595 132.581 69.3723C132.495 71.387 133.008 73.4183 135.676 76.096C135.935 76.177 136.208 76.2208 136.477 76.2208C137.138 76.2208 137.821 75.9439 138.274 75.5441C139.469 74.4935 140.311 73.1636 141.178 71.7329C141.641 70.9679 142.102 70.1976 142.69 69.5195C144.449 67.4927 147.002 65.7736 149.683 65.3262C152.167 64.911 154.406 65.6469 156.181 67.0355C158.256 68.6601 159.713 71.1522 160.252 73.8146C160.472 74.8933 161.036 75.8657 161.818 76.6477C162.607 77.4367 163.615 78.0237 164.634 78.3299ZM46.1749 69.1109C43.7479 67.5587 40.8928 67.0259 37.7287 68.4655C35.256 69.5899 30.9192 73.3385 27.9011 78.2662C25.8363 81.6374 24.3721 85.5922 24.6769 89.7117C24.7477 90.6684 24.3942 91.3738 23.8366 91.8954C23.3962 92.3073 22.7601 92.61 22.013 92.7047C21.3786 92.785 20.6686 92.7125 20.0913 92.5324C18.9931 92.1896 18.4119 91.4772 18.1929 90.8957C16.0797 85.2836 16.9901 79.0208 19.3585 73.3707C22.5547 65.7456 28.3592 59.3585 32.1622 57.2993C38.6698 53.7742 46.347 53.612 52.8639 57.2031C58.4114 60.2596 61.8802 65.1942 65.3301 70.2242C66.0635 71.2934 66.7914 72.3548 67.5436 73.3976C69.0513 75.487 69.2013 77.5593 68.6175 79.3363C67.9707 81.3049 66.3215 82.9663 64.2592 83.8357C62.353 84.6393 60.1407 84.7524 58.1831 83.9268C56.5293 83.2293 55.0117 81.8695 54.0513 79.5625C52.434 75.6771 49.7393 71.3904 46.1749 69.1109ZM127.748 115.98C135.872 104.601 124.366 93.898 116.814 89.3079C114.836 87.8879 116.406 83.1842 120.634 83.9112C159.031 90.5082 139.136 156.649 90.112 120.354C84.2754 115.645 91.3434 105.275 97.6342 109.307C97.9532 109.552 98.2876 109.81 98.6364 110.08C105.704 115.544 118.636 125.542 127.748 115.98ZM117.042 185.1C109.675 187.233 101.768 187.424 94.2589 185.221C87.4481 183.222 80.4549 178.823 75.4423 173.003C70.9894 167.832 68.1055 161.549 68.2187 154.842C68.2316 154.076 68.5055 153.436 68.9268 152.94C69.3804 152.406 70.014 152.039 70.6926 151.88C71.3906 151.716 72.1285 151.774 72.7568 152.059C73.3256 152.318 73.8129 152.757 74.1176 153.398C74.8879 154.41 75.6553 155.407 76.4257 156.376C82.6196 164.024 88.618 169.74 97.9319 171.79C102.985 172.903 108.032 172.409 112.663 170.712C117.62 168.895 122.102 165.7 125.613 161.612C127.2 159.765 129.074 159.011 130.905 158.998C132.982 158.983 135.034 159.948 136.579 161.49C138.099 163.006 139.116 165.065 139.209 167.219C139.29 169.11 138.673 171.085 137.032 172.848C131.626 178.652 124.621 182.904 117.042 185.1Z" transform="translate(54.00004 55.05923)" fill="#000000" fill-rule="evenodd" stroke="none"></path></g></g><g transform="translate(123 338)"></g><g transform="translate(47 241)"></g></g></g></svg>