<?xml version="1.0" standalone="no"?>
<svg viewBox="-350 -150 1500 1500" style="width: 585px; height: 585px; justify-content: center; align-self: center; transform: scale(-1, 1);" xmlns="http://www.w3.org/2000/svg"><rect x="-350" y="-150" width="100%" height="100%" fill="#fbeaeb" rx="30"></rect><g transform="rotate(1 421.7973175048828 595.5661984530452)"><g transform="translate(0 459)"><path d="M757.879 690.381C756.284 660.747 754.324 631.136 751.978 601.551C747.303 542.621 741.182 483.645 730.996 425.392C720.947 367.916 706.883 312.027 686.621 257.258C677.221 231.848 667.041 210.171 652.273 187.329C638.309 165.732 620.49 151.098 598.29 138.061C578.288 126.315 555.051 105.935 535.867 92.7806C527.858 87.2896 511.38 87.6556 505.888 79.5326C498.696 68.8956 503.359 52.6146 496.109 42.0126C487.822 29.8906 476.212 20.4736 463.12 13.6326C448.831 3.95663 432.001 -0.423374 415.126 0.179626C390.242 -1.32937 365.18 6.59263 349.204 26.8466C341.232 36.9546 336.577 48.6166 335.933 61.5296C335.765 64.8886 336.844 67.5366 338.62 69.4486C337.567 70.8566 336.519 72.2656 335.478 73.6826C332.21 68.8426 324.572 66.2706 319.482 69.9236C302.83 81.8766 284.833 91.3806 265.838 98.3476C261.394 96.2446 256.014 97.2186 252.207 100.652C250.662 102.044 249.023 103.235 247.31 104.246C240.267 106.155 233.115 107.75 225.857 108.983C223.585 109.368 221.66 110.658 220.2 112.397C218.037 110.375 215.064 109.404 211.744 110.67C173.409 125.283 137.207 147.984 109.69 178.74C79.2037 212.813 63.1917 255.198 51.0017 298.622C37.8057 345.629 29.3727 393.806 22.2897 442.064C15.1127 490.961 8.04369 540.049 3.10569 589.229C0.326692 616.905 -0.733308 644.832 0.524692 672.63C1.15169 686.522 2.42069 700.37 4.44169 714.13C4.91269 717.349 5.40569 721.057 6.19969 724.758C3.78669 724.289 0.912692 726.329 1.40169 729.594C4.80769 752.335 32.3017 758.959 51.2637 761.577C82.2807 765.86 113.459 768.235 144.774 768.418C175.547 768.597 206.315 766.622 237.024 764.853C268.508 763.04 299.991 761.218 331.474 759.372C457.613 751.977 583.759 744.662 709.899 737.264C721.423 736.588 734.582 735.673 744.453 728.989C757.984 719.825 758.68 705.263 757.879 690.381L757.879 690.381Z" transform="translate(43.00041 -41.99982)" fill="#FFFFFF" stroke="none"></path><path d="M353.236 0.226086C353.473 -0.180914 354.101 0.000279917 354.109 0.463086C354.23 7.64369 352.99 14.9414 351.767 22.1376C351.348 24.6 350.932 27.0504 350.572 29.4801C349.157 39.0441 348.703 49.1391 346.656 58.6011C346.614 59.0419 346.529 59.4763 346.408 59.9028L346.31 60.2271C345.446 62.8781 343.199 65.1251 340.442 65.8271C341.309 70.6311 342.126 75.4431 342.813 80.2811C343.993 88.5968 345.07 96.9248 346.129 105.255L347.397 115.253C348.594 124.675 349.758 134.101 350.909 143.528C353.836 144.752 356.823 145.762 359.882 146.637C366.927 148.653 374.143 149.473 381.413 150.186C396.219 151.638 411.138 152.311 425.995 153.136L429.178 153.315C445.882 154.272 462.677 154.442 479.339 152.728C487.601 151.878 495.798 150.452 503.855 148.431C507.949 147.404 511.928 145.87 516.014 144.866C517.369 144.533 518.58 143.765 519.938 142.945C520.541 142.183 521.387 141.606 522.489 141.383L522.788 141.331L523.083 141.288L523.185 141.242L523.177 141.274C524.013 141.161 524.807 141.162 525.556 141.264C525.854 133.914 526.177 126.564 526.582 119.216C526.811 115.057 527.125 110.861 527.441 106.644C528.623 90.8476 529.826 74.7689 526.664 59.3281C526.53 58.6701 527.425 58.4381 527.658 59.0541C534.512 77.1114 534.719 96.6403 534.922 115.795C534.952 118.61 534.982 121.417 535.032 124.21C535.353 141.854 535.247 159.509 535.141 177.159L535.141 177.248C535.119 180.892 535.097 184.537 535.079 188.181C536.606 188.831 537.968 189.712 539.047 190.948C541.202 193.418 541.822 197.712 539.047 200.096C537.817 201.153 536.456 201.887 535.012 202.396C534.935 220.919 534.804 239.444 534.618 257.968C538.141 260.689 538.47 267.15 534.485 269.835C533.822 329.823 532.732 389.813 531.828 449.792L529.934 575.63C529.682 592.396 529.264 609.161 529.114 625.925L529.233 625.972L529.653 626.166C530.358 626.498 531.409 627.034 531.626 627.582C531.683 627.726 531.698 627.824 531.691 627.898C532.847 628.06 533.992 628.606 534.983 629.546C537.429 631.87 536.932 635.373 534.983 637.74L534.462 638.373C533.247 639.848 530.94 640.416 529.056 640.116C529.063 643.51 529.074 646.904 529.085 650.299C529.108 657.368 529.132 664.438 529.109 671.507C529.099 674.703 529.05 677.899 528.995 681.095L528.863 688.758C528.776 693.13 528.388 698.688 523.909 700.652C518.856 702.869 514.325 701.053 512.279 695.921C511.725 694.531 511.844 693.236 512.046 691.862C512.02 690.998 511.948 690.076 511.876 689.156C511.777 687.877 511.677 686.602 511.7 685.488L511.867 677.499C511.893 676.267 511.943 675.036 511.978 673.804L511.832 673.819C498.225 674.48 484.546 674.395 470.891 674.311C466.528 674.284 462.168 674.257 457.814 674.255L449.815 674.266C443.142 674.272 436.454 674.236 429.79 673.981L427.292 673.875C422.303 673.641 417.056 673.566 411.884 673.12C412.543 678.429 413.159 683.742 413.708 689.06C414.228 694.103 409.023 698.388 404.38 698.388C398.866 698.388 395.712 694.054 395.052 689.06C391.936 665.504 390.661 641.728 387.684 618.157C385.018 597.045 382.706 575.885 380.356 554.733L379.57 547.682C370.97 470.706 362.62 393.701 354.633 316.658L350.915 280.643C347.159 244.343 343.381 208.041 340.195 171.688C338.373 150.904 336.694 130.116 335.114 109.312C333.955 94.0281 333.227 78.8291 332.753 63.5751C330.884 61.6521 329.947 58.8441 330.775 55.9441C331.259 54.2521 331.822 52.5691 332.416 50.8891C332.379 49.2381 332.34 47.5881 332.308 45.9351C332.278 44.3711 333.866 43.5661 335.137 43.8251C337.447 38.2321 339.991 32.6871 342.114 27.1481C345.55 18.1821 348.382 8.52109 353.236 0.226086ZM504.361 17.1903C504.06 16.6193 503.145 16.7583 502.99 17.3693C502.082 20.9491 502.348 24.958 502.6 28.7494C502.654 29.5556 502.707 30.352 502.748 31.1323C503.018 36.3133 503.851 41.4823 504.786 46.5813C506.701 57.0323 509.866 67.2583 513.717 77.1483C517.447 86.7323 531.64 80.4833 526.571 71.7293C521.453 62.8883 517.16 53.7173 513.521 44.1733C511.779 39.6053 510.306 34.9473 508.727 30.3233C507.26 26.0223 506.474 21.2043 504.361 17.1903ZM333.236 35.7456C333.734 35.5956 333.652 34.8246 333.112 34.8246C326.176 34.9006 319.89 36.6506 313.78 39.9306C307.555 43.2716 302.69 48.7056 296.491 51.9466C292.614 53.9736 290.343 55.7646 287.841 59.4386C285.608 62.7146 283.553 66.1116 281.637 69.5826C277.663 76.7806 274.3 84.2756 271.214 91.8906C263.414 111.133 256.311 130.683 248.895 150.076L237.225 180.595C235.339 185.525 233.5 190.471 231.666 195.42L231.487 195.899C231.247 196.535 231 197.172 230.752 197.811C229.069 202.149 227.357 206.564 227.725 211.276C228.139 216.564 231.377 220.739 235.348 223.991C240.164 227.933 245.127 231.709 250.013 235.563C256.07 240.34 262.067 245.226 268.139 250.006C264.017 251.529 259.879 253.006 255.771 254.539L255.302 254.711C248.846 257.053 240.423 258.822 235.517 263.816C230.492 268.931 231.077 275.665 232.105 282.129L233.604 291.198C234.633 297.364 235.683 303.526 236.754 309.685C242.41 342.215 248.655 374.643 255.483 406.947C269.259 472.126 284.835 537.148 304.601 600.788C315.726 636.604 326.499 672.529 338.275 708.143C341.087 716.646 354.628 712.969 351.745 704.43C341.527 674.149 330.826 643.674 322.693 612.755C314.54 581.755 305.984 550.861 298.006 519.814C282.211 458.335 268.362 396.38 256.77 333.969C253.493 316.32 250.388 298.64 247.459 280.93C247.199 279.36 246.746 277.695 246.713 276.097C246.703 275.622 246.657 275.295 246.624 275.06C246.551 274.539 246.54 274.461 247.108 274.206L249.222 273.293C252.694 271.843 256.351 270.7 259.864 269.386C268.56 266.132 277.209 262.69 286.037 259.814C291.305 258.097 294.244 250.733 289.52 246.621C282 240.072 274.048 233.979 266.295 227.71L255.421 218.919C252.263 216.366 246.692 213.43 244.603 209.916L244.519 209.769C244.765 209.337 245.093 207.558 245.196 207.263C245.946 205.102 246.828 202.983 247.648 200.848C249.543 195.92 251.439 190.993 253.283 186.045C256.621 177.083 259.96 168.12 263.297 159.158L273.654 131.343L284.018 103.532C288.777 90.7766 293.982 78.0376 301.409 66.5686L301.632 66.2208C302.933 64.1707 303.571 62.7453 304.016 60.1846L304.102 59.7103C304.37 58.2929 304.735 56.9258 305.396 55.6316C307.122 52.2496 309.937 49.3986 312.733 46.8866C318.577 41.6366 325.74 37.9996 333.236 35.7456ZM520.165 48.5119C528.066 47.7617 534.176 50.1329 541.188 52.8547C541.747 53.0717 542.312 53.2909 542.883 53.5109C546.257 54.8079 549.452 56.3069 552.689 57.8589C556.742 59.8019 559.348 63.2374 561.843 66.8696L563.177 68.8269C573.568 84.0509 580.558 101.615 588.445 118.19C597.671 137.579 606.989 156.926 616.018 176.407L620.474 186.005C622.702 190.804 624.923 195.606 627.11 200.423L630.891 208.807C634.688 217.31 638.093 226.305 632.68 235.077C627.647 243.235 618.724 249.547 611.659 255.853C605.765 261.115 599.87 266.376 593.973 271.636C606.162 283.842 614.345 299.211 619.155 315.693C625.989 312.846 634.33 312.3 641.396 311.068C651.287 309.344 652.499 324.318 643.164 324.135C641.252 324.097 639.248 324.125 637.196 324.152C631.86 324.225 626.22 324.301 621.11 323.252C622.339 328.668 623.231 334.166 623.798 339.679C626.77 368.574 620.276 397.637 613.504 425.595L612.946 427.89C605.591 458.15 598.617 488.489 592.378 519C586.125 549.576 580.5 580.281 575.507 611.088C570.425 642.445 566.829 673.975 562.964 705.498C562.379 710.269 559.377 714.358 554.105 714.358C549.713 714.358 544.693 710.259 545.245 705.498C549.233 671.17 554.889 637.022 560.508 602.929C570.187 544.216 582.368 486.014 596.381 428.194L598.829 418.125C605.134 392.01 610.854 365.102 607.691 338.165C605.115 316.23 595.944 292.844 577.818 279.22L577.266 278.81C573.032 275.705 571.403 269.767 575.573 265.678C578.227 263.076 580.884 260.476 583.542 257.879L599.498 242.301L602.715 239.155C605.398 236.536 608.093 233.933 610.868 231.41C612.548 229.884 617.103 226.974 617.436 224.464C617.609 223.16 616.416 221.072 615.525 219.513C615.296 219.113 615.088 218.747 614.927 218.439L611.325 211.17C609.28 207.025 607.298 202.85 605.301 198.681C601.163 190.045 596.965 181.435 592.917 172.756L568.596 120.644C561.735 105.942 555.623 90.4209 546.653 76.8289L544.885 74.1799C543.409 71.9489 542.105 69.8014 541.171 67.0729C540.274 64.4479 539.148 61.5659 537.49 59.3259C533.605 54.0689 526.179 51.0869 519.966 49.9859C519.068 49.8259 519.394 48.5859 520.165 48.5119ZM282.839 60.1634C240.016 58.4194 197.26 74.6174 161.341 97.1274C124.384 120.289 92.7882 152.412 72.3222 191.075C48.3504 236.362 36.39 287.58 26.4742 337.587L25.5502 342.271C14.9432 396.321 8.35623 451.14 4.58423 506.074C0.389231 567.182 -2.12377 629.309 2.41223 690.46C3.08923 699.597 16.4092 699.779 16.7552 690.46C18.7572 636.674 17.6002 582.858 20.4072 529.08C23.1662 476.213 28.3512 423.437 37.2572 371.236C41.7662 344.809 47.1892 318.54 53.7692 292.551C59.9872 267.994 67.1082 243.446 77.2672 220.194C94.6112 180.501 120.951 145.288 154.839 118.216C173.206 103.543 193.828 91.3334 215.516 82.2654C237.141 73.2244 260.234 67.0124 283.076 61.9124C284.087 61.6874 283.813 60.2034 282.839 60.1634ZM577.297 85.9873C576.145 85.5903 575.57 87.2543 576.503 87.8723C591.337 97.6963 605.193 110.208 617.767 122.785C630.262 135.284 641.533 148.751 651.523 163.331C674.028 196.173 689.721 233.482 701.104 271.488C725.613 353.331 740.204 438.886 747.114 523.956C749.1 548.396 750.47 572.907 751.455 597.407C751.948 609.667 752.436 621.933 752.775 634.199C752.936 640.016 752.942 645.812 752.848 651.631C752.824 653.061 752.757 654.516 752.682 655.98C752.223 656.912 752.023 657.996 752.258 659.167C752.34 659.576 752.414 659.976 752.482 660.37C752.37 663.422 752.387 666.468 752.819 669.415C752.348 678.273 766.678 679.89 768.786 671.223C769.792 667.089 769.636 662.714 769.483 658.411C769.436 657.11 769.39 655.816 769.377 654.537L769.266 645.821C769.233 642.916 769.214 640.011 769.238 637.104C769.332 625.802 769.343 614.512 769.006 603.214C768.352 581.252 767.051 559.353 765.113 537.467C761.179 493.038 755.193 448.721 747.434 404.8C739.798 361.582 730.446 318.486 718.299 276.298C706.906 236.731 692.797 197.187 669.981 162.658C658.609 145.451 645.23 128.942 629.503 115.517C621.905 109.031 613.952 102.985 605.339 97.9103C597.324 93.1871 588.237 89.7851 579.41 86.7176L577.297 85.9873ZM351.902 151.645C353.271 162.944 354.619 174.245 355.964 185.548L356.373 189.046C369.698 186.456 383.741 185.697 397.178 185.126C413.113 184.448 429.02 184.099 444.969 184.148C460.902 184.196 476.811 184.573 492.731 185.231C500.686 185.559 508.64 185.939 516.59 186.371C517.995 186.447 519.554 186.448 521.189 186.449C522.1 186.45 523.034 186.45 523.977 186.464C524.034 184.688 524.083 182.912 524.144 181.137C524.386 173.943 524.623 166.749 524.87 159.556C519.493 162.318 512.502 163.432 507.098 164.609L506.481 164.745C497.558 166.749 488.447 168.048 479.339 168.842C461.453 170.402 443.381 169.819 425.512 168.308L422.382 168.04C406.691 166.68 390.423 164.955 375.211 161.072C367.965 159.223 360.474 156.635 353.981 152.884C353.306 152.494 352.609 152.081 351.902 151.645ZM360.786 227.14C359.517 215.978 358.227 204.818 356.912 193.662C367.864 195.21 379.131 195.731 390.211 196.143L397.178 196.397C413.11 196.987 429.042 197.664 444.969 198.357C460.892 199.05 476.819 199.829 492.731 200.742C500.356 201.179 507.978 201.665 515.597 202.197C518.076 202.37 520.755 202.774 523.457 203.059C523.246 210.027 523.041 216.994 522.847 223.961C521.566 222.409 519.615 221.369 516.987 221.39C489.012 221.611 461.015 221.607 433.046 222.201C419.379 222.491 405.723 222.88 392.075 223.652C385.061 224.048 378.054 224.802 371.09 225.749C367.849 226.19 364.26 226.52 360.786 227.14ZM361.389 232.471C362.621 243.362 363.839 254.256 365.041 265.151C368.825 264.719 372.654 264.48 376.267 264.155C383.552 263.502 390.871 262.93 398.178 262.594L412.782 261.916C422.517 261.466 432.251 261.03 441.993 260.675C468.655 259.702 495.316 258.587 521.962 257.226C522.15 249.837 522.344 242.448 522.542 235.059C521.263 236.429 519.415 237.33 516.987 237.324C509.269 237.303 501.549 237.301 493.829 237.298C473.567 237.291 453.3 237.284 433.046 236.951C419.045 236.72 405.06 236.381 391.075 235.663C384.232 235.312 377.351 234.596 370.56 233.655C367.664 233.254 364.495 232.968 361.389 232.471ZM441.993 273.621C468.542 273.265 495.075 272.455 521.604 271.387L520.959 297.296L520.653 297.415C520.147 297.628 519.67 297.908 519.226 298.245C519.053 298.264 518.864 298.286 518.65 298.313L518.186 298.375C517.098 298.319 515.981 298.399 514.875 298.478C514.325 298.518 513.777 298.557 513.236 298.579C509.936 298.716 506.636 298.849 503.335 298.988C501.025 299.086 498.715 299.186 496.406 299.289L482.545 299.909C468.686 300.525 454.822 301.09 440.965 301.757C427.433 302.408 413.87 303.174 400.374 304.363C393.443 304.973 386.481 305.526 379.584 306.475L378.954 306.559C376.178 306.914 372.868 307.185 369.7 307.774C368.39 295.672 367.07 283.572 365.739 271.474C368.959 271.784 372.193 271.972 375.271 272.231L377.696 272.426C384.17 272.922 390.703 273.232 397.182 273.368C412.124 273.68 427.049 273.821 441.993 273.621ZM520.589 312.452C518.541 312.701 516.388 312.693 514.337 312.685C513.273 312.681 512.236 312.677 511.255 312.709C503.996 312.946 496.736 313.166 489.476 313.38L445.915 314.666C431.084 315.103 416.201 315.431 401.364 315.221C394.838 315.129 388.282 315.118 381.758 314.764L379.584 314.632C376.899 314.453 373.604 314.428 370.386 314.101L374.185 349.288C382.914 348.027 391.909 347.555 400.563 346.816L402.412 346.653C415.176 345.49 428.001 344.721 440.788 343.855C453.905 342.967 467.003 341.889 480.102 340.786C486.649 340.236 493.195 339.687 499.737 339.085L500.546 339.006C501.376 338.919 502.199 338.819 503.016 338.72C508.28 338.082 513.272 337.477 518.009 340.631C518.81 341.163 519.437 341.875 519.866 342.672C520.105 332.599 520.339 322.525 520.589 312.452ZM660.13 336.125C660.318 335.589 661.026 335.596 661.214 336.125C665.31 347.587 665.457 360.52 666.545 372.603L666.63 373.531C667.674 384.551 668.46 395.585 669.191 406.628L669.463 410.77C672.396 455.82 676.062 500.82 681.586 545.633C687.091 590.277 694.534 634.61 702.583 678.855C703.48 683.781 701.299 688.799 696.133 690.218C691.578 691.469 685.732 688.664 684.77 683.767C679.773 658.371 675.732 632.941 672.127 607.325C665.781 562.218 661.044 516.903 658 471.453C656.471 448.626 655.531 425.808 655.156 402.932C654.984 392.318 655.259 381.679 655.825 371.076L655.961 368.63C656.584 357.793 656.521 346.46 660.13 336.125ZM519.043 348.655C519.32 348.383 519.548 348.091 519.743 347.789C519.463 359.705 519.183 371.621 518.913 383.538C517.759 381.808 515.481 380.712 513.467 380.753C501.245 381.003 488.908 382.693 476.725 383.718L470.597 384.247C460.387 385.151 450.187 386.156 439.983 387.145C428.052 388.302 416.141 389.584 404.233 390.955C398.274 391.641 392.343 392.578 386.418 393.51C384.067 393.88 381.585 394.236 379.119 394.701C377.754 382.236 376.399 369.77 375.052 357.303C383.823 358.141 392.829 358.11 401.428 358.286C414.856 358.56 428.357 358.145 441.772 357.542C454.88 356.953 467.995 356.292 481.084 355.347C487.632 354.875 494.176 354.352 500.717 353.802L501.127 353.769C507.8 353.247 514.007 353.631 519.043 348.655ZM518.738 391.439C517.505 393.005 515.663 393.826 513.467 394.11C502.028 395.594 490.295 395.832 478.759 396.532L476.725 396.66C464.814 397.445 452.896 398.061 440.976 398.694C428.731 399.344 416.488 399.874 404.233 400.301C399.031 400.482 393.802 400.503 388.591 400.437L386.359 400.403C384.219 400.367 381.978 400.372 379.732 400.299C380.975 411.619 382.23 422.938 383.503 434.254C385.793 434.005 388.082 433.815 390.303 433.58C396.849 432.888 403.387 432.204 409.948 431.687C422.38 430.707 434.821 430.118 447.276 429.502C460.019 428.871 472.769 428.451 485.514 427.856C491.693 427.567 497.87 427.208 504.031 426.64C505.457 426.509 506.971 426.261 508.521 426.007C511.668 425.492 514.966 424.951 517.983 425.313C518.229 414.021 518.485 402.73 518.738 391.439ZM150.208 392.06C149.534 391.469 148.518 392.206 148.956 393.026C157.975 409.9 158.452 427.543 157.851 446.231L157.645 452.437C157.012 471.049 156.224 489.62 155.197 508.239L154.449 522.069C152.251 563.561 150.425 605.062 148.379 646.562L145.482 705.275C145.405 706.823 145.267 708.426 145.126 710.054C144.679 715.216 144.21 720.637 145.636 725.381L145.83 725.231L145.896 725.459C148.022 732.384 158.14 733.667 161.546 725.381C163.197 721.365 163.248 716.392 163.296 711.738C163.312 710.197 163.327 708.69 163.401 707.266L166.166 653.528C167.395 629.639 168.829 605.763 170.16 581.879C171.471 558.338 172.436 534.777 173.51 511.225C173.762 505.686 174.122 500.095 174.484 494.479C175.502 478.657 176.533 462.638 175.219 447.027C173.538 427.079 165.521 405.498 150.208 392.06ZM506.61 441.218C510.033 441.002 514.095 441.046 517.659 440.166L517.094 466.521C515.663 466.215 514.234 466.338 512.947 466.874C509.694 467.588 506.057 467.658 502.55 467.725C500.933 467.756 499.344 467.786 497.832 467.879C495.026 468.051 492.222 468.239 489.417 468.434L481.003 469.027C469.123 469.86 457.235 470.588 445.357 471.449C433.787 472.287 422.211 473.28 410.695 474.66C405.378 475.297 400.109 476.009 394.83 476.901C392.769 477.249 390.607 477.509 388.455 477.851C387.075 465.747 385.692 453.644 384.323 441.538C386.335 441.639 388.341 441.704 390.303 441.803C396.853 442.131 403.393 442.452 409.948 442.604C420.168 442.842 430.378 442.817 440.594 442.757L448.257 442.709C461.001 442.631 473.749 442.474 486.489 442.16C492.989 442 499.491 441.754 505.976 441.262L506.61 441.218ZM516.766 481.795C514.337 482.602 511.47 482.654 508.325 482.798L500.21 483.202C496.449 483.386 492.687 483.56 488.923 483.697C476.382 484.156 463.841 484.585 451.298 484.984C438.445 485.392 425.53 485.629 412.675 485.224C406.378 485.025 400.134 484.695 393.856 484.17C392.304 484.04 390.722 483.955 389.137 483.843C390.598 496.63 392.065 509.415 393.537 522.2C412.066 519.926 430.738 518.51 449.244 516.158L465.978 514.021C482.703 511.887 499.415 509.793 516.201 508.027L516.766 481.795ZM453.046 525.535C474.065 525.328 494.916 524.633 515.879 522.969L515.227 553.247C509.912 553.233 504.572 553.458 499.241 553.683C495.391 553.846 491.546 554.008 487.718 554.08C476.458 554.292 465.198 554.482 453.936 554.506C448.543 554.517 443.149 554.499 437.756 554.482L437.728 554.482C432.202 554.464 426.678 554.445 421.154 554.458C415.85 554.47 410.567 554.518 405.266 554.709C402.66 554.803 399.981 554.804 397.315 554.928C396.196 545.279 395.086 535.628 393.973 525.977C406.424 526.306 418.923 526.073 431.393 525.84C437.57 525.724 443.74 525.609 449.892 525.562L453.046 525.535ZM398.237 562.923C399.327 572.34 400.35 581.773 401.393 591.203C402.086 591.096 402.788 591.004 403.503 590.929C409.127 590.341 414.739 589.837 420.383 589.487C431.634 588.79 442.884 588.422 454.153 588.12C465.741 587.809 477.331 587.571 488.923 587.407C494.555 587.328 500.182 587.336 505.814 587.375C506.54 587.38 507.268 587.377 508 587.374L508.036 587.374C509.947 587.367 511.863 587.36 513.762 587.487C514.076 587.508 514.377 587.541 514.675 587.575L514.873 573.417C514.907 571.058 514.943 568.699 514.981 566.34C508.174 566.76 501.279 566.726 494.437 566.693L494.425 566.693C492.521 566.683 490.622 566.674 488.73 566.674L486.725 566.679C475.796 566.729 464.863 566.579 453.936 566.352C442.663 566.117 431.413 565.749 420.16 565.027C415.601 564.736 411.075 564.347 406.541 563.847L404.273 563.588C402.3 563.355 400.268 563.167 398.237 562.923ZM512.769 601.232C513.358 601.207 513.912 601.153 514.456 601.089C514.31 608.921 514.124 616.749 513.836 624.567L513.817 625.062L503.986 624.981C492.019 624.883 480.054 624.844 468.088 624.83C464.858 624.826 461.628 624.812 458.397 624.798C449.993 624.761 441.588 624.724 433.188 624.868L432.082 624.883C429.749 624.905 427.352 624.877 424.922 624.848C418.476 624.772 411.798 624.693 405.467 625.548C404.419 617.595 403.47 609.623 402.562 601.645C408.176 601.802 413.774 601.951 419.39 601.941C430.981 601.918 442.563 601.717 454.153 601.577C465.411 601.441 476.67 601.373 487.93 601.374C493.561 601.375 499.19 601.337 504.82 601.288C505.727 601.281 506.636 601.285 507.546 601.289L507.56 601.289C509.298 601.297 511.038 601.305 512.769 601.232ZM602.345 617.406C601.826 616.417 603.012 615.615 603.818 616.27C609.428 620.832 614.456 626.274 619.873 631.088C625.238 635.857 630.803 640.305 636.52 644.643C642.261 648.999 648.127 653.181 654.151 657.138C659.148 660.42 664.298 663.049 669.531 665.774C671.954 666.086 674.198 667.275 675.994 669.53C678.834 673.096 679.136 679.82 675.197 682.916L674.49 683.471C669.893 687.084 664.436 687.524 659.911 683.471C654.858 678.947 650.082 673.968 645.23 669.186L643.772 667.758C638.558 662.69 633.471 657.458 628.675 651.991L624.333 647.052C616.279 637.867 607.895 627.968 602.345 617.406ZM272.774 623.837C273.078 623.341 272.484 622.807 272.004 623.067C262.047 628.46 253.111 635.726 244.433 643.057L239.805 646.98C229.221 655.948 218.352 664.664 207.953 673.836C200.557 680.361 211.83 691.832 218.838 684.721C228.537 674.877 237.809 664.533 247.316 654.492C256.41 644.886 265.819 635.14 272.774 623.837ZM406.915 636.272L408.614 648.557C409.462 654.7 410.303 660.846 411.101 666.995C416.522 666.253 422.068 665.942 427.292 665.479C436.437 664.669 445.645 664.277 454.817 663.898C460.176 663.677 465.541 663.41 470.911 663.143C484.549 662.465 498.21 661.786 511.832 661.854C512.027 661.855 512.211 661.868 512.395 661.883L513.337 637.644L499.997 637.623C488.695 637.605 477.395 637.509 466.093 637.412C455.914 637.325 445.732 637.311 435.555 637.099L431.193 636.995C428.746 636.929 426.218 636.927 423.651 636.925C418.12 636.921 412.405 636.917 406.915 636.272Z" transform="translate(36.99977 0.9990142)" fill="#000000" fill-rule="evenodd" stroke="none"></path></g><g transform="translate(225 0)"><g><g><path d="M333.415 93.2216C329.554 69.8624 342.226 65.0158 333.415 42.8109C313.833 1.66731 260.468 3.44007 221.308 0.276637C177.63 -1.39736 133.422 4.36885 93.1557 21.875C83.5377 26.056 74.2867 30.9732 65.4187 36.5599C57.7507 41.3913 58.8047 50.5773 63.6397 55.5884C28.7747 104.96 48.7157 171.232 20.8967 223.202C15.7577 232.491 8.96066 240.821 4.49366 250.487C-2.29634 265.18 -2.73134 286.233 12.6667 295.99C34.3537 307.631 46.4557 284.584 57.1117 317.993C110.33 434.483 217.329 441.044 318.905 380.31C327.693 375.422 336.662 369.897 343.298 362.217C358.361 345.266 356.587 321.428 356.92 300.259C357.106 287.854 357.137 275.447 357.016 263.039C356.542 212.781 339.885 143.065 333.415 93.2216Z" transform="translate(52 80)" fill="#FFFFFF" stroke="none"></path><path d="M328.858 2.05735C261.958 -4.86265 192.397 5.68736 131.067 33.5074C98.6176 48.2274 68.8166 68.4874 42.6976 92.7374C37.9276 91.3974 32.7076 91.1174 28.3676 91.8674C21.2676 93.0974 14.7676 97.1574 10.5076 102.957C4.02762 111.757 4.25762 122.977 9.17762 131.897C8.39662 132.526 7.67762 133.247 7.01762 134.026C1.82762 140.217 2.36762 148.207 6.17762 154.977C7.24342 156.875 9.16081 158.976 11.1901 161.199C15.3299 165.734 19.9355 170.779 18.7276 175.657C17.9176 178.967 14.9776 182.067 13.2676 184.977C11.1376 188.597 9.33762 192.377 7.73762 196.257C-4.71818 226.333 -0.00202393 258.647 7.02466 289.34L7.65708 292.088C9.04719 298.235 10.3267 305.444 12.6176 312.087C-4.37238 335.487 -0.292376 375.167 27.4976 388.417C34.3276 391.677 41.9276 393.517 49.5176 393.267C53.4776 393.127 57.6076 392.587 61.3576 391.287C63.2276 390.637 65.0776 389.807 66.5276 388.477C70.0076 406.887 77.9576 423.847 87.9476 439.797C93.5776 448.767 100.108 457.727 107.668 465.177C115.658 473.037 129.448 480.717 139.189 471.047C142.508 467.757 141.439 462.647 137.788 460.207C130.948 455.607 123.708 452.787 117.668 446.937C110.948 440.427 104.588 433.397 98.5876 426.227C90.0312 416.005 82.5119 404.857 75.1567 393.666L69.1576 384.517C69.171 384.487 69.1821 384.457 69.1921 384.427L69.2476 384.237C69.2636 384.143 69.2788 384.052 69.2933 383.963L69.4386 383.026C69.4725 382.954 69.5155 382.863 69.5663 382.753L69.8076 382.207C71.6466 378.677 69.3576 374.617 65.3576 374.446C64.0719 374.446 63.8943 374.407 64.8177 374.321L65.1976 374.287C63.8276 373.487 62.3476 373.087 60.7476 373.087C58.8776 373.087 57.0976 373.727 55.3076 374.167C52.6676 374.817 50.3166 375.276 47.5976 375.267C42.0176 375.247 36.6376 373.637 31.9276 370.667C21.0476 363.807 17.9076 349.097 19.6676 337.057C20.1676 333.647 20.9876 330.427 22.1576 327.427C23.6076 328.657 25.2276 329.707 27.0376 330.557C27.3076 330.687 27.5276 330.317 27.2776 330.147C25.5076 329.007 23.9876 327.647 22.6886 326.127C25.9476 318.507 31.4576 312.337 39.2876 308.007C44.2276 305.276 49.8076 303.977 55.2976 304.167C55.3166 304.327 55.3476 304.487 55.3776 304.647C55.9783 307.776 57.4624 309.353 59.6223 311.246L60.3966 311.917C63.3476 314.437 67.1276 314.207 69.5076 311.837L69.5666 311.917C70.3276 311.167 70.9776 310.467 71.5376 309.776C72.6466 310.607 73.6976 311.537 74.6886 312.567C75.0576 312.946 75.6776 312.457 75.4276 311.997C74.6466 310.587 73.7676 309.257 72.7876 308.026C74.0576 305.907 74.5476 303.667 74.5576 300.387C74.5642 297.003 74.4699 293.608 74.3758 290.218C74.3414 288.98 74.307 287.743 74.2776 286.507C74.0666 277.577 73.6076 268.647 73.2576 259.717C73.1717 257.481 72.9894 255.167 72.8046 252.821C72.3654 247.245 71.9123 241.493 72.7076 236.207C73.3663 231.834 76.0088 230.809 79.648 229.747L84.3783 228.38C95.5003 225.123 106.766 221.046 109.178 207.897C110.675 199.71 108.189 192.058 105.694 184.378C103.907 178.879 102.116 173.364 101.778 167.627C101.058 155.577 104.758 143.307 111.608 133.337C118.248 135.057 124.858 136.887 131.608 138.237C140.948 140.117 150.317 141.797 159.718 143.317C178.189 146.307 196.718 148.696 215.388 150.087C252.808 152.867 290.508 151.467 327.628 145.877C332.908 145.087 338.168 144.157 343.388 143.007C343.358 143.897 343.317 144.797 343.268 145.696C342.978 150.717 342.838 155.707 342.828 160.727C342.658 162.037 342.698 163.457 342.939 165.007L343.218 166.817C343.418 168.077 343.918 169.227 344.658 170.237C346.439 198.037 350.189 225.687 353.758 253.327L354.608 259.939C358.846 293 362.863 326.098 366.238 359.257C366.538 362.197 366.894 365.184 367.254 368.201C368.86 381.673 370.537 395.733 367.588 408.797C364.668 421.767 356.388 431.847 346.078 439.907C321.848 458.877 291.468 471.398 261.888 479.077C246.048 483.187 228.918 487.287 212.468 487.097C206.578 487.026 200.328 486.317 194.939 483.776C190.335 481.617 187.444 477.727 184.805 473.541L184.298 472.727C182.098 469.177 175.678 469.377 174.788 473.967C172.138 487.557 184.439 496.017 196.168 499.297C209.517 503.032 223.421 501.296 236.916 499.236L239.248 498.877C274.208 493.457 307.478 481.776 339.088 466.087C353.078 459.147 366.088 449.797 375.628 437.317C386.258 423.397 389.548 406.927 388.618 389.677C387.578 370.667 384.578 351.607 382.178 332.737L381.43 326.903C379.178 309.4 376.826 291.908 374.198 274.457C369.168 241.026 363.718 207.397 354.698 174.776C354.897 174.757 355.098 174.737 355.298 174.707C360.998 173.847 364.358 169.497 364.848 163.887L365.768 153.357L366.267 153.389C382.813 154.407 404.315 152.364 411.948 135.227C414.608 129.257 415.278 122.627 414.038 116.637C425.078 113.776 435.328 107.807 443.228 99.5574C447.328 95.2764 447.038 89.0874 443.228 84.7474C440.968 82.1574 438.558 79.8374 436.018 77.7574C443.228 75.1964 449.988 70.3974 453.748 63.7074C458.588 55.0974 456.689 44.5574 449.918 37.5874C444.1 31.5899 435.848 28.6654 428.193 25.719L425.475 24.6686C394.464 12.7839 361.878 5.46756 328.858 2.05735ZM54.9381 328.377C45.4381 327.567 37.7381 330.787 30.7671 336.937C30.0781 337.537 30.8371 338.477 31.5971 338.347C38.5071 337.127 46.6771 338.497 53.2781 340.627C60.6271 343.007 64.5781 348.007 70.4981 352.437C76.9981 357.297 86.0281 347.807 81.5971 341.337C75.9881 333.147 64.4881 329.196 54.9381 328.377Z" transform="translate(37.99998 0.0003450957)" fill="#000000" fill-rule="evenodd" stroke="none"></path></g></g><g transform="translate(159 186)"><g><path d="M152.262 2.4138C143.68 -0.975204 133.548 -0.875203 125.215 3.2198C117.442 7.0418 111.469 14.8988 109.608 23.3168C108.327 29.1068 108.501 41.0438 116.013 42.7818C116.132 42.8098 116.296 42.7908 116.378 42.6858C118.897 39.4558 119.206 34.8768 120.846 31.1688C122.77 26.8148 125.585 22.4978 129.686 19.9338C136.448 15.7078 147.205 17.1658 152.002 23.8118C152.755 32.7648 167.612 34.3698 169.681 24.8978C171.943 14.5492 161.499 6.24101 152.831 2.6441L152.262 2.4138ZM164.478 67.716C162.933 66.6023 161.237 66.0004 159.464 66.0004C157.691 66.0004 155.995 66.6023 154.45 67.716C152.93 68.812 151.554 70.4118 150.408 72.407C148.239 76.1828 146.883 81.396 146.883 87.1604C146.883 92.9248 148.239 98.138 150.408 101.914C151.554 103.909 152.93 105.509 154.45 106.605C155.995 107.719 157.691 108.32 159.464 108.32C161.237 108.32 162.933 107.719 164.478 106.605C165.998 105.509 167.374 103.909 168.52 101.914C170.689 98.138 172.045 92.9248 172.045 87.1604C172.045 81.396 170.689 76.1828 168.52 72.407C167.374 70.4118 165.998 68.812 164.478 67.716ZM77.3467 71.88L78.0143 71.7534C81.909 71.045 83.8771 71.2835 87.2687 73.938C89.8177 75.933 89.0877 79.862 87.2687 81.96C84.5873 85.0541 81.9579 85.0658 78.5822 85.0809C77.9692 85.0836 77.3316 85.0865 76.6646 85.1079L76.3597 85.119C72.7427 85.266 69.1227 85.369 65.5027 85.424C64.5127 85.44 63.5217 85.436 62.5317 85.442C62.6367 94.603 57.3547 101.578 50.3987 106.881C45.9027 110.31 40.2157 106.354 38.6117 102.086C37.2847 98.554 36.9997 94.211 37.6877 90.344C37.9426 88.9186 38.4738 87.3713 39.2862 86.0519L39.5147 85.698L39.4777 85.192C39.4725 85.1194 39.4733 85.0483 39.4742 84.9768C39.4748 84.9251 39.4754 84.8734 39.4737 84.821C33.0162 84.4286 26.596 83.781 20.178 82.9673L18.0387 82.69C12.5607 81.965 4.51572 81.732 0.0827243 78.169C-0.0572757 78.055 -0.00727572 77.806 0.140724 77.727C2.57768 76.4145 5.05017 76.4888 7.77563 76.3678L8.16672 76.349C11.1307 76.196 14.088 76.0683 17.0503 75.9668L20.0147 75.874C27.5967 75.657 35.1857 75.289 42.7607 74.886C44.0777 74.816 45.3947 74.733 46.7137 74.652C48.0927 74.074 49.5587 73.728 51.0067 73.664C52.2067 73.61 53.3607 73.776 54.4457 74.121C57.2125 73.9072 59.9775 73.6744 62.7405 73.4241L65.5027 73.168C69.4007 72.797 73.4987 72.635 77.3467 71.88ZM120.814 117.367C128.366 121.957 139.872 132.66 131.748 144.04C122.636 153.601 109.704 143.603 102.636 138.139C102.288 137.87 101.953 137.611 101.634 137.366C95.3435 133.334 88.2755 143.705 94.112 148.413C143.136 184.708 163.031 118.568 124.634 111.971C120.406 111.244 118.836 115.947 120.814 117.367ZM97.0803 206.526C97.0773 206.465 96.9843 206.465 96.9873 206.526C97.1703 210.85 98.3953 214.896 100.64 218.595C100.671 218.647 100.752 218.6 100.721 218.547C98.4773 214.851 97.2633 210.846 97.0803 206.526ZM105.884 223.932C108.08 223.626 110.325 223.048 112.581 222.467C118.09 221.047 123.669 219.61 128.791 222.078C132.166 223.704 133.768 229.265 131.486 232.356C128.001 237.077 124.403 237.858 118.746 238.312C114.505 238.652 110.241 238.677 106.011 238.188L104.935 238.056C97.3873 237.082 89.5425 234.975 83.6949 229.903C82.4989 228.865 83.1119 226.623 84.6469 226.299C91.5909 224.838 98.8549 224.911 105.884 223.932Z" transform="translate(49.99998 26.9998)" fill="#000000" fill-rule="evenodd" stroke="none"></path></g></g><g transform="translate(123 338)"></g><g transform="translate(47 241)"></g></g></g></svg>