<?xml version="1.0" standalone="no"?>
<svg viewBox="-900 -300 2600 2600" style="width: 585px; height: 585px; justify-content: center; align-self: center; transform: scale(-1, 1);" xmlns="http://www.w3.org/2000/svg"><rect x="-900" y="-300" width="100%" height="100%" fill="#f9858b" rx="30"></rect><g transform="rotate(1 580.4679946899414 1016.4947090148926)"><g transform="translate(-172 456)"><path d="M667.834 1592.07C684.941 1595.67 702.504 1597.49 720.033 1597.49C748.379 1597.49 776.183 1592.81 802.671 1583.59L802.926 1583.5L803.187 1583.43C818.41 1579.6 836.335 1570.2 842.065 1557.81C844.741 1552.02 844.464 1546.12 841.221 1539.77L840.099 1537.57L840.891 1535.23C852.961 1499.72 782.781 1459.29 736.342 1432.53C722.147 1424.35 709.889 1417.29 701.673 1411.43L689.373 1402.66L704.437 1400.78C707.274 1400.42 708.618 1397.62 708.497 1395.73C708.312 1392.85 704.95 1392.24 702.163 1392.24C699.022 1392.24 693.433 1393.09 684.633 1397.12L681.547 1398.54L678.73 1396.66C674.363 1393.73 669.82 1390.56 664.841 1386.96L652.539 1378.07L667.695 1376.33C728.932 1369.29 848.992 1353 965.062 1323.03C1091.29 1290.44 1179.9 1250.67 1228.45 1204.8L1228.59 1204.67C1267 1170.71 1292.26 1117.91 1292.95 1070.14C1293.44 1036.34 1281.56 1007.05 1258.61 985.415C1225.68 961.591 1181.04 950.007 1122.17 950.007C1080.07 950.007 1036.51 955.609 994.391 961.027C966.669 964.593 940.484 967.962 916.253 969.525L910.747 969.881L909.928 964.506C899.559 896.507 896.631 826.945 893.798 759.674C891.115 695.941 888.341 630.037 879.22 565.75C863.14 442.82 844.91 303.483 800.568 174.123C792.301 151.555 781.368 136.747 766.163 127.52C752.042 118.95 733.644 114.959 708.265 114.959C707.618 114.959 706.176 114.968 706.176 114.968L706.033 114.962C695.591 114.553 684.803 113.632 674.371 112.741C660.525 111.56 646.209 110.338 632.826 110.338C631.191 110.338 629.57 110.356 627.908 110.394C622.144 110.487 617.602 111.311 614.019 112.912L608.479 115.388L606.043 109.895C603.675 104.555 601.557 98.8243 599.749 92.8599L599.496 92.0264L599.501 89.927L599.501 89.8809C599.52 82.3722 599.54 74.6095 598.924 67.1157C596.859 42.0207 588.527 24.5649 573.451 13.7514C560.475 4.44423 542.716 0.0768455 517.561 0.00492599L514.736 0C495.061 0 474.732 0.959584 461.341 12.4214C454.283 18.4626 450.024 28.159 449.657 39.0247C449.512 43.3153 449.935 47.7368 450.321 51.1092L450.46 52.321L450.1 53.4874C438.831 90.0777 421.66 114.897 397.606 129.362L396.16 130.231L393.544 130.227C265.203 130.227 162.696 189.665 104.907 297.593L104.722 297.94L104.49 298.26C93.228 313.866 82.396 330.631 72.289 348.095C70.949 350.926 69.187 353.799 67.324 356.835C59.439 369.69 57.613 375.066 63.081 379.634L66.284 382.308L64.83 386.189C54.199 414.566 44.22 443.737 34.568 471.947C30.266 484.521 25.819 497.521 21.367 510.295C20.072 514.764 18.3 519.252 16.585 523.594L16.5836 523.597C12.8312 533.1 9.28716 542.075 10.355 550.66L10.478 551.65L10.266 552.625C8.28802 561.668 9.05102 570.492 12.358 576.836L12.644 577.384L12.808 577.979C14.855 585.353 22.793 609.934 39.001 616.593L39.987 616.998L40.77 617.715C52.079 628.044 67.183 636.516 86.946 643.618L92.643 645.665L90.505 651.256C44.747 770.863 26.746 896.973 9.48702 1037.65C2.02602 1091.93 -4.46198 1155.56 3.98802 1215.91C13.266 1282.16 38.8 1332.01 82.052 1368.31L83.944 1369.9L84.141 1372.34C85.709 1391.74 97.049 1420.68 121.867 1420.91L124.313 1420.93L126.047 1422.63C132.183 1428.66 138.883 1431.46 147.134 1431.46C158.421 1431.46 170.814 1426.11 182.801 1420.94L183.52 1420.63L183.67 1420.57C216.82 1408.3 253.763 1400.04 296.606 1395.34L299.065 1395.07L301.003 1396.58C301.644 1397.09 302.603 1397.37 303.637 1397.37C305.004 1397.37 306.342 1396.87 307.128 1396.07L308.357 1394.81L310.084 1394.41C313.052 1393.73 316.19 1393.4 319.679 1393.4C327.611 1393.4 335.837 1395.19 343.094 1396.77C348.941 1398.04 354.466 1399.25 358.577 1399.25C363.318 1399.25 363.993 1397.85 364.54 1395.56L365.522 1391.45L369.793 1391.03C385.161 1389.54 400.766 1387.32 415.855 1385.17C429.455 1383.23 443.517 1381.22 457.469 1379.74L471.306 1378.27L462.89 1389.19C452.876 1402.19 452.203 1423.03 461.254 1439.88L462.699 1442.57L461.316 1445.29C452.575 1462.49 454.961 1477.53 468.823 1492.62C481.459 1506.38 501.622 1517.66 517.824 1526.72C520.025 1527.95 522.169 1529.15 524.282 1530.35C565.666 1554.32 614.301 1580.83 667.834 1592.07ZM701.918 970.847C712.823 951.988 717.401 929.68 715.162 906.32C706.865 861.194 705.22 811.674 709.983 750.517C711.319 726.327 712.645 702.133 713.97 677.941C716.983 622.924 720.099 566.035 723.31 510.092L735.246 509.632C739.407 539.855 743.696 570.582 747.845 600.295C763.608 713.215 779.908 829.98 792.803 945.24C793.049 947.385 793.236 949.552 793.418 951.649C794.093 959.453 794.73 966.824 798.172 972.906L802.452 980.475L793.739 981.641C780.13 983.465 763.193 985.733 746.906 985.733C731.08 985.733 717.413 983.643 705.123 979.345L698.37 976.983L701.918 970.847Z" transform="translate(106.9999 -77.0026)" fill="#FFFFFF" fill-rule="evenodd" stroke="none"></path><path d="M999.584 931.858C1092.6 919.895 1198 906.339 1268.44 957.565C1335.93 1020.74 1300.31 1131.14 1238.57 1185.72C1126.19 1291.87 829.644 1340.97 674.365 1358.82C678.875 1362.08 683.435 1365.28 688.075 1368.38C726.465 1350.78 725.925 1381.42 711.165 1383.26C719.144 1388.95 731.354 1395.98 745.346 1404.04C794.679 1432.46 866.172 1473.65 852.554 1513.71C866.345 1540.73 833.885 1559.9 810.644 1565.75C766.415 1581.15 718.394 1584.08 672.554 1574.43C620.415 1563.49 572.804 1538.44 527.215 1512.04C525.161 1510.88 523.027 1509.68 520.837 1508.46C487.018 1489.54 439.657 1463.06 461.925 1419.25C452.615 1401.92 451.724 1378.27 464.085 1362.24C434.755 1365.35 405.715 1370.69 376.355 1373.54C373.664 1384.8 361.753 1382.2 347.772 1379.16C337.847 1377 326.878 1374.61 317.425 1376.79C313.835 1380.46 307.275 1380.98 303.245 1377.83C265.655 1381.96 227.825 1389.36 191.755 1402.72L191.18 1402.97C169.966 1412.12 146.812 1422.12 127.785 1403.43C100.064 1403.18 86.0446 1373.06 84.1346 1349.43C-14.3054 1266.84 -6.19642 1127.82 9.51458 1013.53C25.5446 882.899 43.5536 749.554 90.8646 625.912C73.1246 619.539 56.1146 611.078 42.6646 598.794C26.8136 592.283 17.2546 571.637 12.9946 556.29C8.50458 547.681 8.41458 537.092 10.3746 528.138C9.12041 518.076 13.0896 508.028 16.9678 498.21C18.6897 493.851 20.3936 489.538 21.6146 485.288C36.0746 443.808 49.7546 402.082 65.1746 360.928C54.835 352.291 61.9385 340.713 68.1632 330.566C69.9756 327.612 71.7134 324.779 72.9246 322.176C82.9046 304.917 93.7946 287.956 105.575 271.633C165.775 159.221 272.314 100.858 400.455 101.144C435.644 79.985 449.775 37.7762 457.525 0C470.064 48.5722 440.185 112.353 386.955 127.424C394.595 138.367 400.545 150.494 407.445 161.891C443.144 218.925 528.335 243.393 589.965 216.521C625.234 197.835 633.144 154.838 631.865 118.835C615.755 136.004 601.885 92.1207 599.554 80.9701C596.335 65.4065 596.965 49.1829 602.885 34.3187C603.295 33.2844 604.675 33.4814 604.795 34.565C606.715 51.6357 610.515 68.5783 617.515 84.3586C622.495 82.1324 628.265 81.4035 633.785 81.3138C648.94 80.9586 664.899 82.3206 680.854 83.6822C691.398 84.5821 701.939 85.4817 712.245 85.8854C763.285 85.4914 794.285 100.03 812.205 148.987C855.625 275.604 873.855 409.598 891.144 541.751C909.915 674.031 901.695 808.252 921.835 940.317C945.869 938.766 972.189 935.381 999.584 931.858ZM623.625 96.1396C622.375 94.0021 621.185 91.8153 620.045 89.599C623.905 89.7467 627.665 89.8847 631.465 90.5151C631.354 94.511 631.46 98.528 631.567 102.553C631.624 104.689 631.68 106.827 631.705 108.965C629.804 104.453 626.085 100.336 623.625 96.1396ZM23.6046 531.112C21.7336 549.089 31.4146 566.032 43.7336 579.3C64.0046 599.967 92.7846 608.921 120.125 616.486C188.564 635.132 256.984 653.818 325.325 672.8C351.095 680.129 377.185 686.344 402.655 694.589C414.115 698.244 428.605 699.15 434.555 710.872C434.617 710.703 434.731 710.377 434.889 709.927C436.591 705.063 443.365 685.705 445.205 693.801C437.855 713.551 439.685 735.843 442.825 756.322C445.665 774.84 448.885 793.398 449.865 812.144C449.312 831.612 447.621 851.057 445.93 870.504C442.595 908.844 439.261 947.187 444.655 985.707C465.415 970.853 463.325 940.553 469.075 918.203C471.695 904.944 474.585 891.774 477.605 878.604C479.465 870.468 493.035 872.241 492.415 880.574C490.894 901.23 490.605 921.906 490.115 942.612C490.439 945.874 490.109 951.192 489.74 957.13C488.926 970.23 487.926 986.344 493.355 990.051C503.539 994.779 506.966 974.923 509.212 961.915C509.885 958.012 510.452 954.726 511.064 952.905C515.455 932.495 519.535 912.026 523.304 891.498C524.635 884.297 536.365 886.12 536.105 893.202C535.275 915.553 534.304 937.893 533.405 960.244C533.316 962.401 533.148 964.738 532.971 967.185C532.027 980.284 530.854 996.56 540.535 1005.51C548.611 997.826 549.07 986.19 549.512 975.015C549.688 970.555 549.861 966.168 550.515 962.135C552.425 940.326 554.335 918.508 556.245 896.689C556.955 888.612 569.644 888.415 569.215 896.689C568.195 925.551 569.015 957.003 575.135 984.111C575.495 986.022 575.875 987.923 576.265 989.834C576.535 989.509 576.795 989.193 577.045 988.859C576.155 987.48 575.595 985.914 575.415 984.22C583.275 983.964 585.405 969.73 584.285 962.736C585.035 953.388 585.045 943.881 585.415 934.594C587.314 886.819 587.275 838.257 574.365 791.793C555.215 720.062 512.345 684.207 456.505 639.997C381.935 577.577 300.465 522.72 221.575 466.681C216.535 467.715 213.255 463.421 213.925 458.79C217.035 444.163 235.445 430.993 244.385 418.336C237.938 419.834 231.951 416.028 226.365 412.477C224.863 411.522 223.39 410.585 221.945 409.776C215.435 406.121 208.845 402.595 202.185 399.195C165.984 380.293 127.605 365.902 88.5946 353.904C70.2546 401.126 54.6146 449.225 37.7646 496.96C33.4546 508.368 31.0046 521.242 23.6046 531.112ZM900.655 942.74C879.945 805.435 892.125 665.56 870.775 528.098C863.925 472.562 854.054 417.557 844.175 362.513C807.615 368.945 772.265 381.702 740.915 401.412C740.355 418.828 739.505 436.234 738.535 453.639C744.955 482.383 750.554 511.165 756.095 540.066C778.685 660.832 795.734 782.582 811.175 904.412C811.532 910.395 812.488 916.432 813.446 922.479C815.222 933.695 817.005 944.948 814.984 955.969C843.415 950.728 871.925 945.961 900.655 942.74ZM728.085 888.119C718.655 837.005 718.915 785.213 722.945 733.538C727.375 653.395 731.675 573.233 736.275 493.1C756.245 638.137 777.535 783.006 793.814 928.506C794.974 938.632 794.795 949.349 799.905 958.382C771.665 962.165 741.564 965.977 714.105 956.373C726.155 935.539 730.405 911.819 728.085 888.119ZM84.1046 1333.2C10.7746 1260.76 -3.45542 1140.08 23.6346 1045.22C26.0446 1010.05 38.3446 976.527 49.3646 943.222C84.4546 842.197 130.605 745.003 185.955 653.237C254.625 672.101 323.175 691.466 392.005 709.709C401.484 711.768 410.974 715.836 420.705 716.427C424.185 718.644 427.675 721.087 431.295 723.233C427.41 742.263 429.029 761.586 430.642 780.833C431.217 787.7 431.791 794.557 432.115 801.387C433.234 821.836 431.025 841.862 428.314 862.095C428.095 864.218 427.828 866.685 427.528 869.444C423.681 904.931 414.616 988.526 437.805 1004.79C442.583 1007.09 447.075 1004.25 450.739 1001.92C453.569 1000.13 455.904 998.648 457.495 1000.1C460.785 997.803 463.855 994.819 466.355 991.529C476.005 1022.73 491.775 1051.68 501.515 1082.92C505.574 1097.3 512.54 1114.47 519.901 1132.61C536.036 1172.38 554.074 1216.84 547.585 1246.91C540.275 1273.95 508.295 1279.78 485.215 1288.62C458.545 1297.9 431.575 1306.41 404.165 1313.33C390.785 1284.93 377.995 1256.27 365.445 1227.49C308.085 1094.74 257.285 959.219 211.885 822.083C211.035 819.039 200.595 786.06 198.685 795.26C198.525 794.314 197.335 791.871 196.885 793.96C204.585 826.161 212.394 858.352 220.845 890.375C200.085 887.469 177.765 886.337 158.765 896.512C157.785 897.034 158.505 898.323 159.474 898.167C178.557 894.858 197.065 899.656 215.431 904.417C218.719 905.269 222.003 906.121 225.285 906.924C255.635 1010.23 294.795 1110.92 336.245 1210.35C327.585 1207.59 317.986 1208.76 308.541 1209.91C304.005 1210.46 299.506 1211.01 295.165 1211.11C253.025 1215.47 211.365 1224.69 171.555 1239.03C121.515 1255.25 86.1346 1276.41 84.1046 1333.2ZM676.075 1346.37C677.905 1344.51 678.675 1342.06 676.965 1339.2C671.437 1332.14 660.942 1335.02 652.665 1337.29C651.045 1337.74 649.511 1338.16 648.115 1338.48C644.894 1335.8 641.695 1333.11 638.615 1330.27C639.337 1325.79 635.93 1322.32 632.631 1318.96C631.047 1317.35 629.489 1315.76 628.425 1314.1C625.205 1310.33 622.175 1306.04 618.314 1302.88C611.714 1297.73 603.327 1298.64 595.138 1299.52C591.649 1299.9 588.202 1300.27 584.945 1300.17C576.535 1289.47 567.875 1279.11 559.875 1268.06C569.095 1252.56 569.745 1234.41 566.685 1217.14C708.115 1163.48 830.535 1061.87 983.495 1038.39C988.755 1037.51 991.705 1031.12 990.394 1026.43C979.724 1000.97 826.394 1066.67 803.474 1078.57C735.875 1110.93 672.554 1151.28 606.855 1186.88C593.155 1194.16 578.085 1198.07 563.105 1201.85C540.085 1126.3 501.144 1057.04 471.285 984.2C473.224 980.841 474.875 977.315 476.275 973.69C475.285 1013.75 514.245 1013.19 519.625 975.187C517.405 994.996 532.385 1037.42 554.005 1009.58C559.075 1002.59 560.875 993.637 561.734 984.604C562.845 990.849 564.105 997.065 565.505 1003.26C571.054 1015.53 586.205 1000.61 589.724 994.208C591.755 993.844 593.655 992.918 595.045 991.785C633.275 997.094 678.304 996.789 706.355 966.607C744.593 981.276 786.112 973.595 825.92 966.23C835.645 964.43 845.267 962.65 854.715 961.219C878.209 958.518 901.725 955.477 925.266 952.432C999.839 942.789 1074.65 933.114 1149.74 934.111C1193.85 936.672 1245.89 943.794 1273.79 981.432C1309.58 1035.69 1289.35 1108.96 1249.87 1155.93C1154.9 1276.17 828.915 1328.46 676.075 1346.37ZM98.9046 1348.21C97.4446 1326.52 101.095 1299.52 117.165 1283.35C153.945 1252.26 205.445 1242.48 251.405 1231.22C272.814 1226.99 294.515 1224.18 316.305 1222.79C318.059 1222.65 319.921 1222.63 321.815 1222.61C328.267 1222.55 335.093 1222.49 339.314 1217.6C342.125 1224.26 344.974 1230.91 347.825 1237.56C256.325 1225.57 65.4246 1267.22 118.885 1392.57C107.564 1380.3 100.064 1365.37 98.9046 1348.21ZM317.705 1270.51C337.625 1266.27 359.175 1278.7 370.835 1293.89C372.905 1296.59 374.745 1299.45 376.355 1302.43C368.585 1285.15 360.915 1267.83 353.385 1250.46C273.655 1243.39 138.595 1254.55 121.495 1350.07C120.255 1366.22 124.685 1385.19 137.835 1396.06C150.719 1406.82 165.805 1400.38 179.974 1394.34C184.477 1392.42 188.887 1390.54 193.105 1389.26C217.925 1380.61 243.435 1374.26 269.325 1369.99C268.855 1350.48 268.325 1330.67 263.935 1311.71C272.655 1294.46 289.205 1361.67 288.974 1367.18C292.545 1366.74 296.105 1366.34 299.685 1365.97C299.025 1346.22 298.935 1326.29 301.665 1306.7C301.755 1305.9 302.825 1305.73 303.105 1306.51C306.974 1316.33 310.045 1326.53 312.715 1336.76C316.355 1345.64 313.775 1358.46 324.095 1363.01C334.525 1367.37 346.035 1368.05 356.945 1370.99C359.095 1370.89 361.205 1370.63 363.224 1370.14C366.635 1369.31 365.785 1364.66 362.894 1364.18C363.144 1363.56 363.335 1362.85 363.545 1362.05C364.115 1362.01 364.695 1361.98 365.275 1361.94C363.776 1355.8 365.341 1349.59 366.923 1343.31C368.413 1337.4 369.917 1331.43 368.894 1325.41C367.965 1297.96 344.465 1276.74 317.705 1273.1C316.394 1272.84 316.425 1270.79 317.705 1270.51ZM569.585 1306.21C562.855 1297.05 557.705 1287.03 553.495 1276.51C529.175 1300.3 487.175 1309.26 455.465 1321.23C457.906 1323.81 460.317 1326.39 462.699 1328.94C496.857 1365.49 524.932 1395.53 551.295 1326.56C555.695 1318.61 561.935 1311.21 569.585 1306.21ZM385.795 1323.42C385.165 1324.75 384.265 1326.15 384.245 1327.75C383.605 1322.25 382.355 1316.81 380.455 1311.6C382.234 1315.54 384.015 1319.48 385.795 1323.42ZM683.945 1388.39C682.215 1388.79 680.474 1389.22 678.745 1389.68C667.515 1392.69 656.625 1396.84 646.035 1401.56C645.155 1401.95 644.435 1401.01 645.025 1400.28C651.845 1391.99 660.325 1384.36 669.765 1378.13C660.045 1370.75 650.665 1362.77 642.135 1354.19C630.365 1357.21 619.535 1361.89 608.635 1367.51C599.575 1367.5 630.275 1344.77 633.224 1344.62C624.635 1335.08 618.314 1324.1 610.984 1313.67C610.755 1314.57 610.335 1315.6 609.865 1316.32C603.365 1310.46 593.415 1311.56 585.635 1316.82C570.885 1321.7 565.405 1338 559.125 1350.08C540.915 1389.9 504.765 1392.69 476.285 1360.66C446.224 1415.6 519.314 1448.15 560.984 1464.67C593.785 1479.05 630.085 1495.07 663.045 1509.57C673.245 1514.19 683.355 1518.97 694.554 1520.67C724.995 1526.99 756.564 1526.03 787.045 1520.48C796.474 1518.77 805.814 1516.6 815.064 1514.1C820.375 1512.66 828.775 1511.65 832.285 1507.2C839.359 1481.69 775.138 1443.95 727.591 1416C708.395 1404.71 691.917 1395.03 683.945 1388.39ZM388.365 1359.95C390.984 1359.66 393.605 1359.35 396.224 1359.02C419.835 1356.07 443.314 1351.88 467.015 1349.78C460.505 1341.36 455.205 1332.21 450.205 1322.92C437.525 1326.92 424.775 1330.68 411.945 1334.16C402.965 1337.42 388.825 1340.86 384.445 1329.54C385.255 1337 384.695 1344.59 383.185 1351.94C386.545 1353.02 388.635 1356.49 388.365 1359.95ZM819.265 1544.47C713.234 1592.1 600.984 1539.06 510.564 1482.52C489.695 1470.87 462.245 1454.35 466.465 1426.92C481.835 1449.4 507.175 1462.21 531.495 1473.31C572.355 1491.78 613.484 1509.66 654.445 1527.9C658.314 1540.74 676.814 1541.23 687.995 1544.08C737.765 1553.73 791.265 1548.93 838.105 1529.68C835.394 1537.71 826.525 1541.4 819.265 1544.47Z" transform="translate(99.99972 -53.9982)" fill="#000000" fill-rule="evenodd" stroke="none"></path></g><g transform="translate(225 0)"><g><g><path d="M252.793 0C297.565 0 351.283 21.7046 355.85 22.1387L355.973 22.1453C358.376 22.1453 367.765 29.2985 384.141 43.6049L366.404 78.1989L367.84 79.5695C374.708 86.1548 380.572 92.1572 385.201 96.8888C422.992 135.523 429.785 287.213 420.878 340.112C411.972 393.011 395.476 444.774 318.678 444.774C241.879 444.774 156.439 398.596 143.278 384.216C134.503 374.63 124.647 370.037 113.71 370.438C113.26 369.87 112.815 369.305 112.372 368.741L110.763 368.513C95.6259 366.321 84.7798 363.37 78.2251 359.662C65.4219 352.418 51.3497 314.339 51.3497 305.951C51.3497 297.646 30.3369 237.234 29.9167 230.841L29.9103 230.664C29.9103 225.319 2.45921 200.752 2.45921 192.95C2.45921 185.147 -3.07401 185.621 2.45921 158.127L4.06676 150.05C9.95497 120.778 21.4798 72.3064 65.4219 51.2442C113.71 28.0989 207.57 0 252.793 0Z" transform="translate(-7.992421 58.70615)" fill="#FFFFFF" stroke="none"></path><path d="M294.952 1.14476C225.78 -7.23636 89.0586 32.3017 64.9759 57.8635C33.2369 83.9005 9.06486 144.648 1.68586 171.493C-0.0351405 179.159 -0.806141 187.687 1.16686 195.963C2.83758 206.706 8.84988 217.802 15.2437 226.989C15.2209 226.951 15.2529 226.872 15.3112 226.763L15.3959 226.613C18.083 230.297 21.3818 234.904 24.3887 239.009L25.6569 240.733C25.6519 240.764 25.6363 240.821 25.618 240.886C25.5455 241.147 25.4312 241.559 25.772 241.147L25.9069 240.973C26.1669 241.193 26.5069 241.413 26.8859 241.623L27.6159 242.633C28.2069 243.093 28.8369 243.473 29.5069 243.793C30.1569 244.153 30.8459 244.433 31.5559 244.643C31.5959 244.643 31.6269 244.643 31.6569 244.633C30.7849 278.287 38.5211 293.702 45.069 306.749C48.7185 314.021 51.9988 320.557 53.2139 329.105C54.8469 346.847 61.1629 363.303 77.2319 372.203C95.3989 382.161 124.768 394.314 139.457 381.593C148.24 393.149 159.311 403.525 171.957 411.693C173.846 413.233 175.826 414.603 177.877 415.833C180.056 417.403 182.247 418.953 184.417 420.533C186.887 421.903 189.467 423.063 192.137 424.013C192.417 424.143 192.556 424.093 192.627 423.953C193.467 424.293 194.306 424.603 195.177 424.873C196.195 425.318 195.622 423.987 195.218 423.193L195.056 422.883C195.627 423.093 196.197 423.293 196.777 423.483C197.157 423.533 197.366 423.373 197.387 422.993C197.266 422.313 196.967 421.713 196.476 421.203C196.016 420.553 195.497 419.783 194.927 419.073C195.407 419.263 195.896 419.463 196.387 419.643L196.493 419.685C197.388 419.978 196.612 418.177 196.497 418.003C196.476 417.983 196.467 417.963 196.447 417.933C196.797 418.063 197.146 418.203 197.497 418.323C198.297 418.683 198.717 418.333 198.527 417.493C198.146 416.803 197.697 416.153 197.186 415.563C196.707 414.933 196.167 414.363 195.567 413.853L193.527 412.873L193.391 412.745L193.257 412.623C193.317 412.523 193.356 412.423 193.356 412.343C187.491 407.509 177.881 404 171.616 398.543C169.927 397.363 168.297 396.113 166.686 394.843C151.957 381.107 140.56 363.67 131.737 345.112C130.573 344.178 129.592 345.583 130.826 347.303C130.6 347.187 130.383 346.609 130.124 345.922C129.557 344.416 128.793 342.384 127.311 343.532C127.302 343.593 127.294 343.648 127.287 343.697C127.245 343.98 127.229 344.09 127.255 344.188C127.298 344.355 127.462 344.491 127.826 345.403C127.825 345.511 127.824 345.603 127.824 345.682C127.821 345.965 127.819 346.085 127.848 346.197C127.904 346.417 128.074 346.607 128.567 347.922L128.737 348.383C128.587 348.403 128.417 348.453 128.266 348.543C128.655 348.254 123.731 341.214 124.606 346.073C124.564 346.059 124.552 346.054 124.539 346.054C124.533 346.053 124.527 346.055 124.516 346.056C124.502 346.059 124.48 346.062 124.441 346.066L124.286 346.073C124.313 345.574 121.762 344.607 122.667 346.983C122.577 346.963 122.515 346.889 122.438 346.799C122.231 346.556 121.922 346.194 120.697 346.443C81.5229 354.093 71.6599 274.957 109.887 266.673C110.137 266.853 110.536 266.823 110.646 266.483C119.636 263.959 132.39 265.438 138.587 274.963C138.28 275.907 143.464 279.537 140.257 274.353C140.507 274.603 140.757 274.783 141.007 274.853C141.421 276.754 146.1 280.48 142.917 274.563C142.947 274.563 142.987 274.553 143.027 274.543C143.419 276.329 148.398 278.776 144.826 273.683C160.7 268.433 158.187 253.529 155.802 239.385C155.006 234.664 154.225 230.028 154.146 225.863C158.396 203.789 158.557 190.282 180.627 175.303C196.104 161.186 196.186 135.831 214.266 122.973C232.692 108.85 256.307 106.499 279.141 105.031L287.561 104.506C314.516 102.994 340.797 101.399 367.677 99.9335C369.516 100.543 371.356 101.063 373.217 101.533C378.636 103.113 384.136 104.133 389.707 104.583C391.697 107.543 393.547 110.583 395.277 113.703C397.786 117.863 400.067 122.163 402.106 126.583C423.072 172.469 427.338 224.568 427.846 275.258L427.873 278.359C429.612 436.884 322.225 487.363 248.226 430.473C247.586 430.246 246.859 429.399 246.059 428.468C244.748 426.941 243.244 425.188 241.616 425.573C241.322 424.346 237.133 422.478 239.377 425.623C239.333 425.694 239.292 425.759 239.254 425.819C238.842 426.468 238.789 426.552 239.755 427.499L240.837 428.543C240.766 428.683 240.747 428.813 240.766 428.943C239.606 427.843 238.467 426.713 237.346 425.533L237.012 425.371C234.491 424.2 235.502 426.034 237.188 427.832L237.246 427.892L237.059 427.742C236.694 427.458 236.226 427.135 235.606 426.763C235.467 426.613 235.326 426.483 235.197 426.333C232.27 425.813 234.84 428.474 236.823 430.309L237.877 431.263C237.856 431.393 237.866 431.513 237.917 431.633C236.797 430.553 235.697 429.453 234.627 428.323C232.097 429.226 236.684 433.118 240.421 436.289C241.995 437.624 243.417 438.83 244.096 439.633C284.463 474.319 340.731 473.379 376.652 445.404C436.114 401.256 443.6 319.705 440.606 251.433C439.706 215.498 433.561 178.844 423.686 143.623C418.035 129.628 411.054 114.914 402.237 101.903C403.286 99.3635 404.106 96.9135 404.457 94.2535C407.246 86.5525 405.706 76.8925 401.579 69.0735C410.462 51.5634 388.198 39.3046 372.762 30.8053C368.858 28.656 365.391 26.7471 362.975 25.0545C348.636 14.8035 330.71 8.66647 313.356 4.61347C307.987 3.17347 302.547 2.11347 297.027 1.41347L294.952 1.14476ZM156.839 33.4435C201.601 20.9345 247.738 10.6005 294.646 14.6335C298.377 14.7135 302.047 15.2035 305.667 16.0935C323.142 19.7765 341.23 24.9985 357.008 34.6495C364.927 37.5245 372.615 40.9075 379.392 45.9865C369.953 44.0345 360.964 39.8325 351.532 38.9945C350.641 38.6935 349.75 38.3955 348.859 38.1005C287.723 32.0575 199.849 49.1955 167.661 88.7365C132.051 131.723 110.594 207.831 109.657 252.943C63.9789 259.716 60.1489 331.365 97.2069 352.413C100.458 355.065 105.481 357.741 110.226 358.793C110.707 358.893 111.197 358.973 111.686 359.053C113.161 359.496 114.81 359.973 117.427 360.133L117.924 360.171C120.24 360.312 122.503 360.009 124.707 359.253C125.326 359.113 125.297 358.703 125.076 358.293C125.417 358.203 125.747 358.123 126.076 358.013C126.887 359.713 127.737 361.393 128.616 363.053C128.657 363.123 128.697 363.183 128.726 363.243C127.639 363.768 127.866 364.364 128.613 365.592L129.346 366.783C121.167 368.545 112.049 366.058 103.699 362.907L102.614 362.492C76.146 353.704 74.3219 342.648 72.0485 328.869C70.8792 321.782 69.5911 313.975 64.7709 305.385C41.5398 267.317 43.145 239.43 44.824 210.262C45.509 198.36 46.2064 186.246 45.2339 173.139C43.0119 173.481 43.7919 174.34 42.7609 176.962C37.8209 193.745 34.6599 210.664 32.8059 228.093C14.9859 210.554 8.94086 182.231 20.7659 157.113C34.3079 123.306 49.8259 86.6905 79.8769 63.6735C101.386 48.1287 128.299 41.5935 153.751 34.331L156.839 33.4435ZM223.167 35.1131C215.938 30.6631 195.125 25.2621 210.925 36.6171C223.019 46.7931 228.094 39.4581 223.167 35.1131ZM165.699 48.5083C155.76 37.6549 182.359 48.0521 186.343 50.9381L186.457 51.0233C189.43 53.1163 188.827 57.6243 186.034 58.9483C180.277 59.0576 175.622 55.6122 171.007 52.1967C169.251 50.897 167.501 49.6017 165.699 48.5083ZM140.627 75.682C134.193 73.5444 119.499 68.6624 120.798 73.5932C129.818 78.5722 139.693 83.0132 148.7 88.8992C153.093 91.5922 160.185 90.3572 156.681 84.3952C153.691 80.0803 147.959 78.3519 142.959 76.4889L142.176 76.1932C141.743 76.0526 141.22 75.879 140.627 75.682ZM118.811 125.522L115.534 123.39C97.8503 111.816 72.8511 94.2793 117.186 112.423C122.239 114.59 128.953 115.872 131.71 120.684C136.041 129.553 124.643 130.149 118.811 125.522ZM102.079 162.351C104.084 150.029 79.0213 140.725 70.5363 143.833C66.6403 145.531 68.2203 149.397 71.8903 151.218C78.633 154.887 84.2971 158.575 90.5774 162.781L94.1863 165.204C96.9513 166.801 100.885 165.18 102.079 162.351ZM107.566 289.183C109.2 288.296 109.623 288.569 109.889 288.741C110.023 288.828 110.117 288.889 110.306 288.763C127.972 287.322 147.021 302.789 156.896 315.683C156.182 316.425 154.355 314.478 153.766 313.851C153.712 313.792 153.668 313.746 153.636 313.713C153.586 313.763 153.526 313.803 153.466 313.823L153.741 314.211C157.744 319.955 149.809 313.196 149.066 311.803C148.936 311.873 148.806 311.913 148.656 311.883C149.285 312.5 151.206 314.109 151.536 315.253L152.045 315.677C156.848 319.79 156.449 322.883 150.997 317.043C151.126 317.313 151.176 317.563 151.086 317.763L151.274 317.888C153.955 319.762 156.16 324.985 150.556 319.623C151.01 322.672 147.392 318.76 145.674 316.902C145.185 316.374 144.85 316.012 144.806 316.023C134.188 307.688 118.555 299.582 105.236 298.493L104.778 298.441C102.334 298.127 101.178 297.401 102.036 295.803C99.0262 295.087 99.7312 293.605 101.156 293.653C99.0332 292.257 100.944 290.922 102.176 291.443C101.58 289.792 103.087 290.078 104.14 290.278C104.583 290.362 104.944 290.43 105.036 290.333C106.23 288.492 106.833 288.938 107.189 289.2C107.358 289.325 107.472 289.409 107.566 289.183ZM238.524 429.117L238.123 428.76L238.475 429.201C238.66 429.429 238.849 429.634 239.157 429.843C239.137 429.773 239.137 429.703 239.146 429.623C238.942 429.468 238.733 429.297 238.524 429.117Z" transform="translate(-14.99996 50.99953)" fill="#000000" fill-rule="evenodd" stroke="none"></path></g></g><g transform="translate(159 186)"><g><path d="M175.373 49.5872C175.699 49.4437 175.991 49.2049 176.203 48.8583C178.978 44.3099 179.267 38.8813 178.039 33.5637C176.563 27.172 172.899 20.9588 168.944 16.7559C163.959 11.4582 157.895 7.75374 151.246 4.94731C150.762 4.74287 150.267 4.53098 149.763 4.31514C142.964 1.40541 134.597 -2.01031 127.865 1.47064C125.161 2.86951 123.673 5.20381 123.256 7.7496C122.814 10.4534 123.597 13.4099 125.462 15.7216C128.557 19.5594 133.339 20.3533 138.087 21.0465C139.602 21.2677 141.106 21.486 142.53 21.8229C147.429 22.9821 152.604 24.4361 157.104 26.7244C166.253 31.3762 170.54 38.5898 172.747 48.2853C172.837 48.6781 173.037 48.9988 173.3 49.2406C173.575 49.4928 173.921 49.6579 174.285 49.7192C174.651 49.7808 175.032 49.7375 175.373 49.5872ZM58.3942 19.1934C55.0693 22.4329 51.1339 22.9347 47.1526 23.381C44.9405 23.6313 43.1746 23.8331 41.4369 24.2252C36.6605 25.3034 31.9393 26.9272 27.6319 29.2659C23.1292 31.7106 18.2224 34.659 14.6922 38.4361C13.8528 39.3349 13.0615 40.278 12.2691 41.2232C11.5465 42.0851 10.8505 42.9149 10.1169 43.7149C9.27449 44.6339 8.47449 45.597 7.67875 46.5576C7.1867 47.3681 7.0895 47.5675 6.99041 47.775C6.8413 48.0869 6.66786 48.4359 6.46976 48.8103C6.19845 49.323 5.88066 49.8843 5.54784 50.3932C4.9941 51.3234 4.69697 51.5796 4.44022 51.6942C4.01419 51.8839 3.61015 51.9774 3.21817 51.9268C2.85064 51.8793 2.50438 51.7028 2.16244 51.4138C0.455387 49.9715 -0.0480658 47.6046 0.00353523 45.092C0.0818393 41.2793 1.48813 37.0578 2.78452 34.4628C5.79888 28.4331 9.97938 22.1649 15.0062 17.6646C20.7422 12.5276 27.0177 8.63869 34.2256 5.95894C38.705 4.29304 43.8913 2.76391 48.7713 2.95706C52.284 3.09609 55.6373 4.14026 58.4066 6.74782C60.1072 8.34853 60.9235 10.6254 60.9235 12.9006C60.9235 15.2211 60.0757 17.5554 58.3942 19.1934ZM164.634 78.3299C166.478 78.8824 167.779 78.6212 169.441 77.7551C170.719 77.0896 171.589 76.0387 172.088 74.8117C172.599 73.5559 172.706 72.1077 172.454 70.7659C171.405 65.1948 168.042 60.2513 163.503 57.0672C159.091 53.9728 153.589 52.5435 148.048 53.7341C144.003 54.6036 138.007 58.4424 134.85 63.1243C133.504 65.1203 132.671 67.2595 132.581 69.3723C132.495 71.387 133.008 73.4183 135.676 76.096C135.935 76.177 136.208 76.2208 136.477 76.2208C137.138 76.2208 137.821 75.9439 138.274 75.5441C139.469 74.4935 140.311 73.1636 141.178 71.7329C141.641 70.9679 142.102 70.1976 142.69 69.5195C144.449 67.4927 147.002 65.7736 149.683 65.3262C152.167 64.911 154.406 65.6469 156.181 67.0355C158.256 68.6601 159.713 71.1522 160.252 73.8146C160.472 74.8933 161.036 75.8657 161.818 76.6477C162.607 77.4367 163.615 78.0237 164.634 78.3299ZM46.1749 69.1109C43.7479 67.5587 40.8928 67.0259 37.7287 68.4655C35.256 69.5899 30.9192 73.3385 27.9011 78.2662C25.8363 81.6374 24.3721 85.5922 24.6769 89.7117C24.7477 90.6684 24.3942 91.3738 23.8366 91.8954C23.3962 92.3073 22.7601 92.61 22.013 92.7047C21.3786 92.785 20.6686 92.7125 20.0913 92.5324C18.9931 92.1896 18.4119 91.4772 18.1929 90.8957C16.0797 85.2836 16.9901 79.0208 19.3585 73.3707C22.5547 65.7456 28.3592 59.3585 32.1622 57.2993C38.6698 53.7742 46.347 53.612 52.8639 57.2031C58.4114 60.2596 61.8802 65.1942 65.3301 70.2242C66.0635 71.2934 66.7914 72.3548 67.5436 73.3976C69.0513 75.487 69.2013 77.5593 68.6175 79.3363C67.9707 81.3049 66.3215 82.9663 64.2592 83.8357C62.353 84.6393 60.1407 84.7524 58.1831 83.9268C56.5293 83.2293 55.0117 81.8695 54.0513 79.5625C52.434 75.6771 49.7393 71.3904 46.1749 69.1109Z" transform="translate(54.00004 55.05923)" fill="#000000" fill-rule="evenodd" stroke="none"></path></g></g><g transform="translate(123 338)"></g><g transform="translate(47 241)"><g><path d="M379.584 5.44083C374.676 5.04763 361.281 0 337.809 0C322.496 0 301.24 4.68927 287.629 10.9038L286.824 11.2693C280.634 14.0632 274.177 16.647 267.464 17.7921C259.217 19.2079 251.031 17.4015 243.065 15.3129L241.551 14.9193C233.986 12.9714 226.468 11.3294 218.906 10.3325C214.682 9.34741 210.429 8.59431 206.136 8.01192C195.948 6.61618 185.67 6.17537 175.422 7.14937C165.484 8.10329 155.695 9.87959 146.278 13.2334C145.27 13.5949 144.233 13.9784 143.186 14.3751C138.049 15.8612 131.546 18.0813 126.898 21.3959C121.282 22.0084 114.562 21.4783 110.805 25.3522C104.733 26.5034 20.3682 25.8027 20.3682 25.8027C15.1403 26.8329 3.36676 30.0862 0.814798 35.4948C-0.876527 39.0896 0.134265 42.2626 3.20667 44.6434C7.63936 48.0673 18.1384 43.6483 18.1384 43.6483C23.6002 43.6483 92.0277 41.6027 103.436 39.19C104.866 39.0876 106.301 38.9822 107.739 38.8717C107.875 40.9121 108.43 42.9133 109.51 44.7027C111.973 48.8015 115.85 49.8994 120.051 50.6879L122.009 51.0397C131.215 52.6807 133.537 62.5902 136.45 70.2277L136.691 70.8501C140.724 81.1233 158.225 105.158 188.502 107.742C203.415 109.015 219.665 105.634 231.626 96.4252C234.918 93.8948 237.63 90.9728 239.822 87.6993C246.297 81.2037 249.339 72.4577 251.231 63.3001C252.512 57.0936 253.343 50.7485 253.703 44.4225L253.835 41.8901C255.753 40.155 257.831 39.0595 260.031 38.3958C262.045 37.9841 264.054 37.6818 266.087 37.4549C268.166 37.3625 270.307 37.4318 272.479 37.5091C277.025 37.6698 281.436 38.0142 285.242 39.8347L285.134 40.7543C284.406 47.4288 285.031 54.2635 286.368 60.8299C289.191 74.6055 297.887 86.2132 309.597 93.7653C318.004 99.1835 327.831 102.295 337.771 102.666C343.597 104 350.098 103.497 355.584 102.233C366.509 99.7157 385.73 92.8184 388.42 51.9474C389.927 45.2475 389.786 37.785 389.65 30.6239L389.65 30.622C389.59 27.4213 389.53 24.2818 389.619 21.2975C393.743 16.6273 392.592 9.21687 385.526 6.49569C383.605 5.75264 381.773 5.58193 379.732 5.4514L379.584 5.44083ZM359.696 19.3626C360.724 17.6003 363.403 16.6745 365.173 17.9216C369.215 20.7673 372.149 24.9997 372.344 30.0655C372.544 35.2438 364.537 35.2177 364.338 30.0655L364.321 29.8193C364.135 27.8505 362.654 25.9291 361.133 24.8571L360.964 24.7332C359.306 23.4637 358.565 21.3031 359.696 19.3626ZM218.087 22.7224C213.065 21.6178 210.92 29.3606 215.958 30.4682C219.526 31.2525 222.549 33.0515 224.592 36.0993L224.807 36.4307C227.548 40.7926 234.48 36.7661 231.72 32.376C228.614 27.4357 223.788 23.9755 218.087 22.7224Z" transform="translate(-1.98952E-12 15)" fill="#000000" fill-rule="evenodd" stroke="none"></path></g></g></g></g></svg>