<?xml version="1.0" standalone="no"?>
<svg viewBox="-350 -150 1500 1500" style="width: 585px; height: 585px; justify-content: center; align-self: center; transform: scale(-1, 1);" xmlns="http://www.w3.org/2000/svg"><rect x="-350" y="-150" width="100%" height="100%" fill="#fbeaeb" rx="30"></rect><g transform="rotate(1 402.7702217102051 620.1231460571289)"><g transform="translate(0 459)"><path d="M83.452 762.934C144.684 764.648 202.526 766.539 263.64 762.934C361.436 756.885 648.435 767.789 711.52 762.934C716.28 762.568 732.653 767.789 732.994 762.934C735.767 729.127 737.565 387.09 729.326 363.556C721.087 340.021 680.419 226.887 628.6 174.133C614.151 159.881 592.163 154.361 580.017 137.891C569.545 119.931 570.358 109.391 560.016 99.9416C555.528 95.8412 544.943 94.1789 537.078 88.4874C529.17 80.6284 536.658 63.3284 533.412 52.3844C526.722 25.0584 502.075 7.52744 475.136 3.39644C437.694 -5.56271 398.166 2.90801 380.231 32.3188C373.556 43.2663 377.108 56.5731 368.898 74.1154C369.484 87.3724 354.007 90.5754 344.756 95.8284L326.384 114.396C269.784 146.242 203.201 163.438 153.608 206.224C111.444 248.997 69.5059 298.435 50.7979 356.305C46.9249 372.074 45.6609 388.372 44.0559 404.485C39.4739 451.573 26.7149 497.276 15.7349 543.143C3.21489 600.932 -8.45577 662.278 8.41823 720.614C13.2832 732.961 72.377 762.357 83.452 762.934Z" transform="translate(13.32201 -54.02244)" fill="#FFFFFF" stroke="none"></path><path d="M384.071 1.37567C383.911 -0.145328 381.8 -0.595328 381.31 1.00567C376.54 16.5647 373.871 32.7557 369.17 48.3757C368.89 49.2857 368.59 50.2057 368.26 51.1357C365.93 57.5957 362.521 64.2657 362.05 70.9657C361.537 78.3994 366.491 83.0991 371.421 87.776C372.062 88.384 372.702 88.9915 373.33 89.6047L390.954 106.765L408.571 123.926C414.68 129.866 420.79 135.815 426.901 141.766C430.611 145.376 434.241 149.196 438.031 152.786C434.51 151.786 430.84 151.315 427.59 151.256C415.991 151.025 405.111 156.096 395.43 162.025C379.429 171.816 363.753 182.246 348.129 192.704L338.09 199.426C340.361 173.876 341.191 148.216 340.5 122.565C340.31 115.405 339.941 108.275 339.411 101.136C339.221 98.5795 338.912 95.984 338.602 93.3764C338.043 88.6791 337.478 83.9423 337.6 79.3247C337.765 73.2291 343.946 69.0902 348.377 65.4434L349.606 64.4185C354.953 59.9939 360.787 55.9969 365.35 50.7657C365.51 50.5747 365.361 50.3247 365.121 50.3657C358.202 51.6585 351.924 55.2909 345.975 58.9782L344.79 59.7157C339.79 62.8357 333.531 66.0957 330.231 71.1757C328.781 73.4047 328.021 75.8357 327.651 78.3457L326.651 78.1847L326.662 78.0692C326.691 77.449 326.285 76.7783 325.56 76.8357C300.18 78.8147 275.361 83.6357 251.411 92.4347C227.92 101.056 205.55 112.905 185.161 127.386C144.431 156.325 112.63 195.536 89.031 239.366C77.248 261.253 67.42 284.105 59.047 307.503C66.111 311.979 73.577 315.786 80.577 320.367C84.873 323.178 80.86 330.102 76.539 327.274C69.978 322.981 63.003 319.376 56.338 315.255C48.85 337.106 42.567 359.388 37.13 381.775C31.25 405.985 26.36 430.435 21.23 454.815L20.5194 458.196C15.3204 482.996 10.4019 507.875 6.681 532.956C2.79 559.136 0 585.556 0 612.056C0 624.655 0.641 637.266 2.19 649.775C3.5 660.395 5.01 671.185 8.92 681.216C11.398 687.569 14.661 693.458 18.637 698.764C24.128 695.536 29.734 692.497 35.067 689.007C39.393 686.177 43.396 693.106 39.105 695.914C34.156 699.152 28.974 702.003 23.865 704.975C28.891 710.258 34.772 714.751 41.451 718.266C56.281 726.056 73.01 729.096 89.55 730.426C104.448 731.616 119.404 731.301 134.33 730.79L141.79 730.525C156.447 730.005 171.096 729.952 185.752 730.016C179.95 695.505 176.008 660.685 175.934 625.644C175.923 620.487 183.923 620.497 183.934 625.644C184.008 660.724 187.994 695.54 193.85 730.061L208.571 730.165C270.47 730.575 332.371 730.775 394.271 730.775L417.235 730.782C429.64 730.789 442.044 730.8 454.448 730.811L454.499 730.811C495.662 730.849 536.819 730.887 577.981 730.766C617.521 730.655 657.113 730.65 696.683 730.224C694.326 711.088 693.245 691.794 689.868 672.788C688.972 667.745 696.683 665.6 697.582 670.661C701.079 690.343 702.111 710.33 704.649 730.128C723.158 729.9 741.661 729.583 760.151 729.096C765.59 728.956 770.93 728.546 775.861 726.105C780.755 723.681 783.354 720.401 786.138 716.109L786.68 715.266C790.39 709.446 781.14 704.075 777.451 709.866C777.161 710.325 776.651 710.706 776 711.025C777.111 709.075 777.71 706.806 777.72 704.775C778.3 612.855 769.111 520.696 754.56 430.016C749.824 400.47 744.169 371.047 737.812 341.784C726.087 346.238 713.61 348.581 702.656 354.923C698.188 357.51 694.164 350.594 698.619 348.015C710.314 341.243 723.592 338.728 736.085 333.921C733.281 321.281 730.362 308.669 727.31 296.096C717.42 255.355 705.441 214.185 683.441 178.155C663.361 145.275 635.901 117.216 600.25 102.145C599.06 101.456 589.55 98.5557 588.151 99.0157L587.151 96.0198C583.41 84.8617 579.339 73.5548 571.5 64.5747C568.062 60.6426 563.548 58.6051 558.917 56.4144L556.882 55.4438C551.986 53.1584 546.819 51.8947 541.401 52.4657C540.191 52.5957 539.81 54.2957 541.1 54.6757C546.38 56.2447 551.911 58.6447 555.771 62.7347C557.72 64.7957 558.3 67.3457 559.85 69.6547C561.34 71.8857 562.85 74.0957 564.17 76.4457C569.694 86.2436 572.738 97.4004 576.055 108.126L576.701 110.196C580.03 120.762 583.393 131.32 586.763 141.876L593.51 162.985C590.621 161.655 587.5 160.655 584.63 159.485L568.531 152.895C566.698 152.145 564.803 151.288 562.86 150.41C555.168 146.934 546.746 143.127 538.611 144.325C530.295 145.556 522.295 151.205 515.456 156.305L512.446 158.561C504.978 164.223 497.839 170.707 492.55 178.495C492.05 179.245 492.771 180.206 493.55 180.206C493.731 180.206 493.92 180.155 494.09 180.036C501.47 174.975 508.521 169.516 516.191 164.846C516.857 164.44 517.543 164.016 518.247 163.582C524.921 159.462 533.186 154.359 540.821 154.405C544.488 154.429 547.966 155.764 551.323 157.199C551.323 157.199 552.303 157.755 552.657 158.561C553.01 159.367 553.01 159.69 552.821 160.616C552.632 161.542 541.767 167.703 541.179 168.071L540.951 168.206C538.35 169.556 535.661 170.745 532.941 171.825C527.401 174.025 521.691 175.846 515.92 177.296C508.58 179.136 501.111 180.275 493.59 180.766C489.121 181.065 484.63 181.126 480.13 180.975C458.05 180.216 436.401 174.926 416.39 165.716C418.26 165.096 420.18 164.605 422.14 164.275C426.411 163.556 430.89 163.815 435.01 165.155C439.09 166.475 442.401 169.235 446.411 170.775C449.941 172.145 453.26 168.116 452.34 164.836C451.89 163.225 451.18 161.775 450.26 160.495C452.611 160.235 454.93 158.975 456.22 157.245C458.83 153.745 458.231 149.735 455.58 146.466C450.691 140.446 444.361 135.275 438.79 129.876L422.54 114.126C411.47 103.405 400.401 92.6757 389.33 81.9557L383.673 76.4794L380.85 73.7347C380.201 73.1047 378.84 72.1847 378.38 71.3657C378.54 70.6047 378.71 69.8357 378.89 69.0747C380.29 61.9457 380.821 54.4257 381.741 47.1957C383.661 32.2157 385.661 16.4557 384.071 1.37567ZM550.72 61.4655C550.6 61.1055 550.981 60.6955 551.35 60.8245C560.232 64.1362 555.655 75.6808 552.855 82.7425L552.766 82.9688L552.26 84.2555C547.89 95.5355 541.781 106.515 535.121 116.615C528.151 127.185 520.411 137.305 512.031 146.805C508.395 150.93 504.625 154.936 500.727 158.823L499.26 160.274C498.604 160.919 497.917 161.644 497.199 162.402C493.602 166.2 489.224 170.821 484.13 170.195C477.55 169.404 473.88 162.375 478.68 157.035C482.071 153.255 486.771 150.244 490.56 146.805C494.321 143.404 497.961 139.895 501.51 136.285C508.771 128.875 515.651 121.045 521.941 112.795C528.024 104.817 533.846 96.6186 539.139 88.0946L540.191 86.3855C541.054 84.9649 542.159 83.4012 543.336 81.7368C547.65 75.6329 552.921 68.1757 550.72 61.4655ZM228.603 152.171C224.373 149.28 228.379 142.35 232.641 145.264C240.415 150.576 247.268 157.021 255.681 161.392L255.841 161.478C260.159 163.93 256.151 170.64 251.643 168.299C243.224 163.927 236.381 157.487 228.603 152.171ZM466.871 237.822C461.875 236.553 464.005 228.839 468.997 230.108C478.133 232.43 486.834 235.563 495.296 239.727C499.92 242.003 495.862 248.899 491.258 246.635C483.393 242.765 475.356 239.978 466.871 237.822ZM627.433 280.569C631.15 277.077 625.659 271.519 621.909 274.793L621.777 274.913C614.83 281.439 604.837 283.19 595.894 285.403C590.899 286.641 593.015 294.357 598.021 293.118L602.095 292.112C611.234 289.831 620.404 287.175 627.433 280.569ZM195.023 305.535C198.176 301.742 204.922 305.684 201.82 309.712C197.373 315.484 192.276 320.669 186.578 325.216C182.663 328.341 178.204 331.988 173.022 332.429C167.884 332.866 167.93 324.862 173.022 324.429C176.371 324.143 180.71 319.798 183.094 317.77L183.847 317.124C187.851 313.661 191.683 309.866 194.912 305.674L195.023 305.535ZM423.202 317.18L422.378 316.385C418.696 312.78 413.035 318.433 416.721 322.042C425.927 331.052 436.811 337.892 447.79 344.506L449.787 345.707C454.212 348.362 458.239 341.448 453.825 338.799L450.894 337.037C441.133 331.15 431.485 325.073 423.202 317.18ZM545.984 394.091L544.905 394.668C541.344 396.648 538.095 399.134 534.464 401.003C529.889 403.356 525.847 396.451 530.426 394.095L531.505 393.517C535.067 391.536 538.316 389.051 541.947 387.183C546.521 384.829 550.564 391.734 545.984 394.091ZM244.837 415.481L245.509 415.229C250.319 413.502 248.245 405.768 243.382 407.516C236.054 410.149 230.353 415.122 223.996 419.438C219.76 422.315 223.758 429.249 228.033 426.347C233.51 422.627 238.606 417.916 244.837 415.481ZM689.117 429.196C683.961 429.194 683.969 421.194 689.117 421.196C695.414 421.199 701.471 421.319 707.264 424.047C711.923 426.241 707.858 433.136 703.226 430.954L702.772 430.75C699.012 429.133 694.774 429.162 690.71 429.189C690.504 429.19 690.298 429.192 690.093 429.193L689.117 429.196ZM391.617 479.339C395.851 476.462 391.853 469.526 387.579 472.431C381.747 476.393 376.463 481.075 370.724 485.157L369.147 486.255C364.913 489.132 368.911 496.066 373.185 493.163C379.546 488.84 385.256 483.66 391.617 479.339ZM103.617 516.202C108.223 513.899 104.176 506.997 99.58 509.295L71.932 523.118C67.326 525.421 71.373 532.325 75.969 530.026L103.617 516.202ZM649.949 525.965C644.803 525.82 644.799 517.82 649.949 517.965C656.273 518.141 662.46 520.382 668.096 523.118C672.731 525.37 668.67 532.266 664.058 530.026C659.747 527.933 654.788 526.1 649.949 525.965ZM568.785 543.224C565.085 539.628 570.748 533.977 574.442 537.568C577.497 540.539 581.018 543.185 585.437 543.308L585.664 543.319C590.582 543.688 590.51 551.45 585.437 551.308C578.843 551.126 573.402 547.714 568.785 543.224ZM296.197 589.531C291.205 588.266 289.075 595.98 294.071 597.245L296.531 597.862C304.892 599.928 312.855 601.468 321.541 599.55C326.5 598.453 324.495 590.927 319.611 591.795L319.414 591.835C311.816 593.513 304.784 591.72 297.469 589.854C297.046 589.746 296.622 589.638 296.197 589.531ZM418.486 670.171C430.087 667.956 441.268 667.956 452.869 670.171C457.928 671.138 455.773 678.846 450.742 677.886C440.595 675.948 430.759 675.948 420.613 677.886C415.574 678.848 413.435 671.136 418.486 670.171ZM609.001 671.2C605.357 667.554 599.699 673.209 603.345 676.856L605.273 678.776C608.493 681.988 611.685 685.299 613.913 689.27L614.24 689.871C616.641 694.427 623.549 690.389 621.147 685.833C618.178 680.202 613.455 675.656 609.001 671.2Z" transform="translate(8.9995 -18.00067)" fill="#000000" fill-rule="evenodd" stroke="none"></path></g><g transform="translate(225 0)"><g><g><path d="M364.424 212.603C358.153 167.36 343.81 123.432 341.751 77.5101C340.526 57.8591 339.301 38.2071 338.077 18.5541C337.612 6.28011 321.668 2.13911 315.578 13.0131C301.735 -2.33889 276.947 -0.0778906 258.036 0.388109C146.708 4.33311 40.9142 79.6031 2.69821 184.552C1.77921 187.054 2.05721 189.717 3.09621 192.1C-14.7168 251.5 48.2782 289.749 91.2422 316.233C108.671 334.651 129.158 349.953 152.291 360.433C178.902 372.952 208.524 379.932 237.925 380.6C244.379 380.748 248.256 375.53 248.722 370.129C258.102 367.946 274.153 370.466 279.113 360.854C335.68 336.285 372.537 274.013 364.424 212.603L364.424 212.603Z" transform="translate(54 125.0003)" fill="#FFFFFF" stroke="none"></path><path d="M187.799 3.91891L188.851 3.75731C230.651 -2.60369 274.631 -2.15269 313.921 15.0973C321.451 18.4063 328.821 22.3963 335.761 27.0263C340.732 26.5073 345.732 26.0863 350.642 26.0173C356.821 25.9363 362.851 29.1463 363.611 35.3963C369.401 36.1163 374.732 38.2463 378.142 42.5073C379.471 44.1663 380.361 46.0863 380.812 48.0863C384.371 48.9273 387.861 50.2163 391.171 51.9163C395.191 53.9863 397.511 59.7463 396.091 64.0073C395.763 64.9745 395.391 65.9167 394.973 66.8386L394.651 67.5263L394.841 67.7863C398.051 72.9463 395.821 79.7163 390.901 82.7963C387.211 85.1063 383.091 86.9463 378.851 87.8363C379.201 89.5363 379.521 91.2463 379.781 92.9763C379.881 93.6773 378.982 94.1773 378.581 93.4863C378.581 93.4863 380.101 98.2163 382.392 103.427C383.291 105.476 380.411 107.296 379.312 105.226C376.392 99.7063 374.581 94.0463 371.931 88.3563C369.482 88.1963 367.041 87.6363 364.691 86.5663C363.151 85.8663 361.982 84.6863 361.142 83.2763C361.091 83.3363 361.062 83.4063 361.011 83.4763C353.121 93.6263 337.701 97.1863 325.781 100.396C312.982 103.847 299.881 105.976 286.732 107.546C263.771 110.276 240.631 110.786 217.562 111.847C216.034 111.916 214.509 111.993 212.983 112.067C203.613 120.287 191.544 125.395 179.164 126.948C172.891 127.734 165.471 127.534 158.437 125.932C155.891 128.532 152.674 130.458 149.162 131.447C148.53 144.546 141.226 156.948 130.184 164.177L130.38 164.956C133.124 176.141 133.089 188.368 123.252 196.142C121.919 197.194 120.464 198.096 118.934 198.844L119.271 199.617C124.351 211.491 125.974 224.607 116.423 234.46C112.551 238.454 105.752 237.508 102.848 232.925L102.706 232.692C102.545 232.419 102.371 232.157 102.204 231.889C101.945 232.419 101.549 232.866 100.961 233.116C97.7343 234.504 96.2301 233.748 93.6103 232.432C93.2832 232.268 92.9387 232.095 92.5713 231.916C89.5113 230.416 86.2813 229.296 82.9823 228.427C80.2913 227.726 77.6113 227.226 74.9113 226.936C57.8513 233.456 46.8313 253.456 49.4513 272.226C50.8713 282.446 56.4823 292.566 66.2613 296.806C70.5413 298.666 75.5713 299.446 80.2013 298.816C82.3721 298.522 84.3691 297.856 86.3218 297.205C90.0092 295.976 93.5384 294.799 97.7813 296.276C100.341 297.166 101.942 299.177 102.081 301.927C102.312 306.246 100.781 309.486 98.2013 311.886C102.751 315.686 106.421 320.966 110.371 325.177C115.312 330.446 120.321 335.716 125.661 340.576C130.701 345.186 136.062 349.466 141.741 353.267L142.338 353.66C149.454 358.294 158.421 362.409 158.761 372.097C158.871 375.017 157.101 377.696 154.701 379.186C145.732 384.746 135.971 377.446 128.941 372.097C126.111 369.946 123.361 367.716 120.711 365.406C118.941 365.546 117.011 365.257 115.001 364.366C113.711 363.806 112.451 363.146 111.211 362.446C107.181 363.456 103.381 362.566 100.251 360.456C95.7413 361.566 90.9613 361.696 86.9013 360.806C83.1923 359.986 79.8813 358.236 77.1513 355.886C71.4513 357.706 65.1213 357.366 59.5013 353.916C56.1313 351.847 53.5013 348.896 52.0713 345.446C51.3433 344.307 50.8775 342.977 50.8422 341.512L50.8413 340.956C45.9413 341.066 41.0313 339.386 37.2413 335.507C33.7613 331.946 32.0623 327.507 31.8713 322.996C26.9413 321.597 22.4313 318.725 19.0013 314.296C13.3213 306.956 12.5623 297.886 15.4823 289.786C15.2913 289.356 15.1213 288.916 14.9713 288.476C10.4413 282.086 7.45132 274.376 7.69132 266.646C7.72132 265.446 7.88132 264.267 8.12132 263.097C3.66132 260.726 0.381323 256.566 0.0313228 251.276C-0.238677 247.126 1.25132 243.066 3.94132 239.996C2.63132 236.866 2.05132 233.466 2.45132 230.066C2.86132 226.576 4.09132 223.546 5.89232 221.017C5.85132 220.097 5.90132 219.166 6.05132 218.216C5.87132 217.286 5.72132 216.326 5.64232 215.347C4.79132 204.626 12.1913 195.246 21.2013 190.296C23.5713 188.996 26.1313 187.936 28.6913 187.036C30.5513 186.376 33.3513 186.156 34.9913 184.946C34.961 184.925 35.0713 184.748 35.2159 184.515C35.4052 184.212 35.6533 183.813 35.7213 183.546C35.8513 182.966 35.9913 182.396 36.0623 181.806C36.2666 179.923 36.2004 178 36.1349 176.093C36.1141 175.489 36.0934 174.886 36.0813 174.286C35.8613 162.986 36.2113 151.636 37.4013 140.396C39.6113 119.556 45.0623 99.1663 55.6813 80.9563C64.5913 65.6963 76.7913 52.8063 90.7813 42.1163C118.647 20.8335 153.421 9.26146 187.799 3.91891ZM382.351 108.83C381.915 107.642 379.797 107.687 379.957 109.154C381.752 125.599 383.207 141.952 385.634 158.328C388.118 175.088 390.181 191.919 391.806 208.784C392.076 211.585 392.35 214.394 392.626 217.208C395.536 246.966 398.512 277.393 396.607 307.167C394.734 336.429 382.006 361.8 360.293 381.403C341.614 398.267 317.701 409.468 293.087 414.324C279.551 416.994 265.321 417.462 251.627 415.693C245.055 414.843 238.508 413.306 232.178 411.335C228.873 410.305 225.648 409.089 222.429 407.827C218.301 406.209 214.485 405.506 210.101 404.945C201.826 403.884 199.09 415.122 203.77 420.228C212.67 429.937 228.246 433.802 241.117 436.136L242.855 436.446C256.804 438.883 270.889 439.421 284.953 437.714C313.917 434.201 340.76 423.332 363.616 405.142C386.973 386.554 405.841 360.199 411.786 330.62C413.317 323.002 414.131 315.317 414.468 307.606C415.809 306.789 416.939 305.679 417.693 304.298C421.015 300.193 423.297 295.649 424.818 290.763C429.193 286.795 428.061 280.877 430.089 275.621C432.798 268.597 434.781 262.15 431.074 254.951C430.892 254.599 430.699 254.267 430.504 253.937C433.065 248.404 433.985 242.316 431.13 236.516C430.046 234.314 428.553 232.396 426.796 230.841C427.618 228.539 428.303 226.189 428.863 223.827C429.561 220.883 428.447 217.088 425.537 215.653C419.336 212.593 412.751 212.951 407.716 216.883C405.36 200.4 402.512 183.97 399.2 167.66C397.203 157.832 395.231 147.962 392.493 138.311C389.653 128.297 385.936 118.597 382.351 108.83ZM76.6251 254.697C72.1099 254.283 55.0327 254.369 58.66 263.087C58.885 263.629 59.78 263.628 59.765 262.938C59.6297 256.703 76.3322 263.676 80.2465 265.452L80.832 265.724C81.16 265.88 81.479 266.056 81.803 266.218C81.396 267.128 81.116 268.082 80.955 269.125C80.413 272.66 81.109 276.076 82.847 279.189C86.111 285.04 94.906 278.097 89.988 273.679L89.7421 273.447C88.6987 272.415 87.9469 271.033 87.477 269.537C88.369 270.144 89.245 270.773 90.085 271.447C93.288 274.014 95.526 276.948 99.517 278.314C103.594 279.71 108.689 275.109 106.968 270.864C102.81 260.609 86.921 255.721 76.758 254.71L76.6251 254.697Z" transform="translate(11.99988 68.00089)" fill="#000000" fill-rule="evenodd" stroke="none"></path></g></g><g transform="translate(159 186)"><g><path d="M140.63 0.473197L139.193 0.179116C137.503 -0.15929 135.804 -0.0161244 134.311 0.591153C132.847 1.18684 131.572 2.2242 130.68 3.72083C129.495 5.71373 129.337 7.38618 129.887 9.59525C130.311 11.3022 131.242 12.5864 132.46 13.5139C133.744 14.4911 135.37 15.0612 137.06 15.2595C144.854 16.175 152.53 17.8896 159.992 20.3235C163.488 21.4643 166.788 23.0096 170.058 24.6132L172.877 26.002C175.477 27.2735 178.163 28.499 181.557 29.3885C181.824 29.4584 182.087 29.5243 182.349 29.5865C183.29 29.2909 183.45 28.9329 183.649 28.6733L183.73 28.5721C183.972 28.2679 184.271 27.8025 183.988 25.6306C176.583 10.2711 156.267 3.74181 140.63 0.473197ZM43.5878 4.83023L45.4652 4.50163C51.273 3.49719 58.4944 2.53203 62.6028 7.20123C64.7819 9.67723 65.5318 14.2792 62.6028 16.6492C58.7671 19.7539 54.6298 19.6513 50.2182 19.5419C48.7043 19.5044 47.1582 19.466 45.5808 19.5562C40.4928 19.8482 35.6028 20.6902 30.7018 22.0912C19.9498 25.1642 11.1888 30.7742 2.00585 36.9342C0.800849 37.7422 -0.429151 36.2012 0.145849 35.0742C5.44685 24.6912 15.7198 16.1622 26.0098 10.9632C31.5019 8.18823 37.5118 5.88623 43.5878 4.83023ZM29.9632 50.1461C30.7976 39.7899 46.5702 37.4381 48.1392 47.6861C49.5442 56.8661 47.8902 65.2991 43.7552 73.5641C39.8042 81.4601 29.8737 77.7763 29.1227 70.5863C28.3809 63.4843 28.9069 59.2482 29.4428 54.933C29.6341 53.3921 29.8267 51.8412 29.9632 50.1461ZM159.205 41.8262C155.401 40.7152 152.226 42.6812 150.027 45.5612C149.773 45.8932 149.566 46.2222 149.38 46.5482C142.515 52.8562 145.101 65.6452 150.501 72.0492C153.814 75.9762 161.145 74.8452 163.413 70.3852C167.587 62.1722 171.09 45.2992 159.205 41.8262ZM128.748 119.039C136.872 107.66 125.366 96.9569 117.814 92.3669C115.836 90.9469 117.406 86.2431 121.634 86.9701C160.031 93.5671 140.136 159.708 91.112 123.413C85.2754 118.704 92.3434 108.334 98.6342 112.366C98.9532 112.611 99.2876 112.869 99.6364 113.139C106.704 118.603 119.636 128.601 128.748 119.039ZM93.5865 188.926C86.8642 186.184 80.8663 181.61 76.4812 175.766C74.9566 173.735 74.5614 171.589 74.8812 169.627C75.2408 167.421 76.546 165.422 78.326 164.08C80.1115 162.735 82.345 162.072 84.5043 162.41C86.3806 162.704 88.2484 163.731 89.7265 165.862L90.0354 166.288C92.6424 169.815 96.0396 172.708 99.9104 174.574C103.641 176.372 107.814 177.211 112.132 176.723C120.356 175.794 126.024 171.346 132.049 165.306C132.796 164.544 133.543 163.757 134.294 162.958C134.768 162.234 135.426 161.768 136.157 161.524C136.968 161.253 137.886 161.268 138.726 161.562C139.537 161.845 140.262 162.381 140.747 163.094C141.209 163.772 141.471 164.61 141.386 165.574C140.835 171.833 137.562 177.419 132.914 181.805C127.752 186.677 120.909 190.047 114.466 191.229C107.368 192.531 100.136 191.598 93.5865 188.926Z" transform="translate(53.00005 52.00027)" fill="#000000" fill-rule="evenodd" stroke="none"></path></g></g><g transform="translate(123 338)"><g><path d="M57.4005 3.42841C64.6505 1.69041 84.6205 -2.68059 95.7415 2.32841C108.247 -2.15859 132.409 2.27041 146.695 13.1914C159.748 23.1704 164.542 47.8034 152.83 49.3394C146.82 50.1278 142.779 48.1512 138.106 45.8656C135.181 44.4347 132.008 42.8828 127.95 41.8124C115.573 38.5464 100.237 36.5274 93.4465 32.7924C84.1465 38.0664 73.6755 39.4194 63.7495 40.9694C58.8906 41.7217 53.7682 43.3334 48.6268 44.951C40.8306 47.404 32.9907 49.8707 25.9595 49.3754C24.2265 50.1684 12.4445 45.3134 18.3495 29.8904C23.5895 16.2054 40.5455 7.47041 57.4005 3.42841ZM106.754 85.109C107.748 94.2859 109.415 109.689 117.761 107.654C124.018 106.128 136.982 95.5207 144.652 91.4247C155.51 88.3318 159.242 93.9786 157.63 102.754C156.863 106.93 146.098 123.977 142.275 128.084C125.474 146.137 97.8637 153.49 74.2653 148.708C50.9963 146.91 -1.44122 127.033 0.0303418 120.343C3.35502 105.228 14.2105 108.644 24.5514 111.898C26.9282 112.646 29.2777 113.385 31.5023 113.889C41.6163 115.754 52.7443 116.403 62.3633 116.437C75.9374 113.479 73.4727 92.1514 72.5501 84.1674C72.4472 83.2774 72.3635 82.5532 72.3233 82.0387C71.7057 74.129 76.2826 61.4116 88.4583 60.7567C100.634 60.1018 105.437 75.2808 106.288 81.1667C106.443 82.2379 106.589 83.588 106.754 85.109Z" transform="translate(112.1728 28.99979)" fill="#000000" fill-rule="evenodd" stroke="none"></path></g></g><g transform="translate(47 241)"><g><path d="M409.463 3.8448C410.287 3.9658 411.111 4.0948 411.934 4.2318C418.27 5.2808 419.246 15.2398 413.729 17.9668C409.483 20.0668 406.817 24.2488 407.954 29.0788C408.779 32.5828 407.27 35.3698 404.887 36.8078C404.153 59.4058 400.438 84.7238 382.858 101.261C342.399 128.036 302.322 95.3878 310.705 43.7638C310.105 43.3428 309.577 42.8078 309.189 42.1368C308.911 41.6868 308.672 41.2368 308.449 40.7878C307.565 40.0648 301.03 37.7038 292.541 38.8798C284.052 40.0568 281.355 44.0148 277.062 48.3008C276.399 49.5928 275.264 50.5688 273.479 50.9698C270.103 69.9788 266.632 91.0678 252.071 105.304C215.602 139.383 152.661 111.085 154.989 59.2428C142.316 57.0798 152.882 42.2078 132.833 38.8798C129.215 37.6678 125.792 35.3518 123.536 32.6958C93.5503 29.4738 64.0323 30.9178 35.0393 41.3338C33.2654 42.076 31.4106 42.7524 29.5642 43.4257C19.2827 47.175 9.2641 50.8284 14.9483 65.2098C14.7313 69.9788 8.89832 72.8158 5.46132 69.2928L5.45832 69.2958C5.45332 69.2898 5.45032 69.2828 5.44632 69.2768C-14.0668 34.2407 22.9785 28.378 51.445 23.8729C52.0721 23.7736 52.6952 23.675 53.3133 23.5768C68.6263 20.2758 84.2953 18.8808 99.9463 19.2088C101.76 19.2865 103.703 19.3157 105.697 19.3457C111.762 19.4369 118.302 19.5352 123.121 21.0268C123.147 21.0348 123.172 21.0408 123.197 21.0478C129.862 0.847801 268.445 -3.8812 276.461 29.6238C280.189 29.5282 283.582 29.8068 286.814 30.0721C292.712 30.5563 298.071 30.9962 303.94 29.0368C306.664 4.6888 372.671 -4.4282 401.203 1.9928C403.191 2.1778 405.182 2.5208 407.187 3.0298C408.065 3.1988 408.82 3.4798 409.463 3.8448ZM379.696 25.3631C380.723 23.6008 383.403 22.675 385.173 23.9221C389.215 26.7678 392.148 31.0002 392.344 36.066C392.544 41.2443 384.536 41.2182 384.337 36.066L384.321 35.8198C384.135 33.851 382.654 31.9296 381.133 30.8576L380.964 30.7337C379.306 29.4642 378.564 27.3036 379.696 25.3631ZM238.087 28.7229C233.065 27.6183 230.92 35.3611 235.958 36.4687C239.526 37.253 242.549 39.052 244.592 42.0998L244.807 42.4312C247.548 46.7931 254.48 42.7666 251.719 38.3765C248.614 33.4362 243.788 29.976 238.087 28.7229Z" transform="translate(-12.99972 8.999499)" fill="#000000" fill-rule="evenodd" stroke="none"></path></g></g></g></g></svg>