<?xml version="1.0" standalone="no"?>
<svg viewBox="-350 -150 1500 1500" style="width: 585px; height: 585px; justify-content: center; align-self: center; transform: scale(-1, 1);" xmlns="http://www.w3.org/2000/svg"><rect x="-350" y="-150" width="100%" height="100%" fill="#fbeaeb" rx="30"></rect><g transform="rotate(1 493.7835159301758 597.3205947875977)"><g transform="translate(0 459)"><path d="M1102.99 305.357C1113.23 300.01 1123.24 294.201 1133.08 288.155C1140.01 284.008 1133.87 273.562 1126.76 277.336C1123.13 279.267 1119.51 281.217 1115.87 283.135C1118.73 280.672 1121.39 277.99 1123.76 275.067L1123.6 274.904C1132.76 266.693 1120.99 251.201 1110.57 257.946C1101.38 264.608 1092.1 271.406 1081.55 275.793C1059.7 285.059 1035.6 286.592 1012.14 286.86C1003.56 286.215 995.364 287.702 987.036 289.359C990.301 276.261 998.472 266.37 1002.81 253.684C1006 240.876 987.516 232.151 980.964 244.463C979.356 247.486 977.823 250.544 976.324 253.618C962.162 266.499 938.514 265.364 924.231 279.195C916.095 286.416 912.114 296.213 910.541 306.047C909.473 312.724 911.133 319.418 907.096 325.332C887.577 352.94 856.735 396.578 841.072 426.961C829.982 354.763 800.371 265.463 769.78 199.446C759.664 178.333 748.091 157.703 732.899 139.807C734.621 133.839 728.543 123.245 724.678 126.506C712.781 111.973 691.751 108.21 674.841 100.985C652.014 91.2244 633.075 70.9357 623.765 47.8762C611.803 3.96415 582.356 -1.61372 541.517 0.327016C502.433 0.277947 473.516 16.9946 464.988 56.7808C447.663 86.9784 406.757 81.9844 377.328 89.9786C355.76 94.9056 334.829 102.523 314.937 112.194C292.808 91.2034 213.553 179.298 206.349 201.97C210.59 202.792 214.805 203.781 218.982 204.987C222.702 206.063 221.14 211.682 217.388 210.782C212.719 209.661 208.02 208.889 203.299 208.353C203.155 208.804 203.029 209.253 202.935 209.697C202.405 209.661 201.876 209.616 201.346 209.58C202.521 210.191 203.652 210.901 204.754 211.817C207.418 214.029 203.95 218.298 201.119 216.535C198.452 214.54 194.959 214.855 191.76 214.185C191.57 220.763 168.097 213.404 164.451 211.224C148.246 209.197 131.575 211.372 116.447 203.557C96.3179 199.318 76.0379 194.63 56.1349 189.232C50.8659 191.286 45.9139 198.636 50.0989 204.03C52.4529 206.484 49.4269 210.492 46.4629 208.747C36.5219 202.896 28.8339 193.762 22.3159 183.922C19.2479 180.827 13.8019 181.493 9.67988 180.208C9.12888 181.199 8.80388 182.302 8.80888 183.434C-8.67612 186.312 3.79688 205.409 12.5869 211.359C7.92388 214.395 7.74688 220.341 8.15488 225.306C7.16688 227.074 6.83688 229.266 7.69688 231.248C10.9849 238.825 18.0959 245.206 23.5029 251.345C29.4729 258.124 34.7959 264.941 42.0599 270.437C69.7479 291.542 103.161 303.342 137.439 307.957C149.61 309.826 167.117 312.687 174.653 322.979C172.804 335.193 169.409 346.907 166.329 358.817C162.022 374.627 162.315 391.178 162.258 407.296C161.656 406.812 160.5 406.912 160.328 407.834C159.326 414.515 158.581 421.347 154.52 426.961C150.96 437.4 148.591 448.535 147.26 459.503C141.928 511.498 140.655 565.027 152.677 616.212C157.316 635.201 164.861 653.247 175.141 669.865C178.206 674.821 183.134 676.273 187.559 675.299C202.369 682.993 221.026 685.46 236.989 683.505C291.41 668.099 272.448 705.197 348.751 693.837C480.458 677.059 613.562 710.029 744.989 690.672C748.226 715.674 790.6 708.502 805.319 697.932C849.453 665.123 871.367 561.247 893.516 508.552C908.741 467.018 934.235 393.454 967.622 365.584C977.633 357.754 989.734 353.632 1001.84 350.304C1047.03 338.66 1092.39 327.648 1137.67 316.327C1145.34 314.437 1143.96 301.342 1135.75 302.182C1124.86 303.297 1113.92 304.306 1102.99 305.357Z" transform="translate(-86.00008 -22.00066)" fill="#FFFFFF" stroke="none"></path><path d="M99.7948 270.318C96.7348 269.938 93.7348 268.848 90.7548 267.988C86.2048 266.658 81.7448 265.108 77.3548 263.338C68.2948 259.709 59.5048 255.418 51.2648 250.168C37.9548 241.678 26.1948 230.798 17.3248 217.698L16.7159 216.785C11.652 209.071 2.31124 191.944 12.7848 186.088C6.03454 180.448 -0.345455 170.318 0.014545 162.498C0.524545 151.438 14.0845 151.589 21.0945 156.278C25.6845 159.348 29.1245 163.648 32.5745 167.879C36.3945 172.578 40.4745 177.058 44.7145 181.368C45.8395 182.508 46.9758 183.625 48.1317 184.725L49.2944 185.818C49.1145 185.388 48.9545 184.948 48.8145 184.497C46.4745 177.208 49.2645 167.718 56.5545 164.378C61.0158 162.333 65.6489 163.582 69.972 165.318L70.6345 165.588C76.4545 167.997 82.3445 170.128 88.4045 171.838C113.105 178.808 138.885 179.968 164.195 183.448C173.945 184.798 183.875 186.497 193.575 188.997C197.274 173.288 206.344 158.229 216.184 145.839C263.304 86.5676 341.014 66.9786 412.104 54.2986C415.495 53.6969 418.582 55.7589 421.295 57.5712C423.766 59.2224 425.927 60.666 427.725 59.6982C434.875 55.8582 441.165 50.4182 446.685 44.5082C458.455 31.8982 466.805 17.0682 476.615 3.01824C481.465 -3.92176 492.625 2.28824 488.125 9.73824L485.92 13.3792C476.843 28.2929 466.792 43.6624 453.775 55.2282C446.855 61.3682 439.175 66.2182 430.395 69.2472C423.745 71.5382 414.415 73.4682 407.135 71.2472L406.261 69.9746C406.55 70.4002 406.841 70.8246 407.135 71.2479C426.134 98.7778 449.974 122.078 475.094 144.068C500.45 166.252 527.803 186.117 555.321 205.54L557.614 207.158C602.444 174.459 640.314 131.808 666.884 83.0788C661.315 82.408 655.805 78.839 651.045 76.178C645.315 72.959 639.925 69.118 635.725 63.998C626.575 52.848 627.765 38.478 626.115 24.948C626.015 24.108 627.125 23.898 627.635 24.318C632.595 28.438 634.335 35.188 636.405 41.018C638.685 47.428 641.265 52.709 646.495 57.218C651.365 61.419 657.305 64.508 663.075 67.258C666.05 68.6691 680.822 72.2953 682.504 75.2985C708.025 69.3083 732.885 79.6583 751.795 97.1183C770.065 113.988 783.475 135.918 795.315 157.568C807.945 180.668 818.295 204.747 827.215 229.497C836.255 254.618 843.185 280.288 846.995 306.728C850.211 329.02 852.183 351.661 853.459 374.201L853.615 377.018C872.494 347.388 891.844 318.068 911.594 289.008C907.104 277.018 912.074 264.778 920.484 255.518C929.804 245.268 942.694 240.508 955.024 234.968L956.645 234.235C962.588 231.524 968.511 228.539 973.644 224.478C978.584 220.558 982.214 215.158 987.414 211.548C994.974 206.288 1008.69 207.408 1009.04 218.898C1009.22 225.209 1006.51 232.128 1004.03 237.798C1001.22 244.209 997.434 250.018 992.934 255.358C992.726 255.607 992.499 255.803 992.268 255.959L992.094 256.068C998.315 257.098 1004.58 257.928 1010.97 258.218C1023.86 258.808 1036.89 257.858 1049.51 255.138C1062.43 252.358 1074.95 247.839 1086.57 241.538C1096.5 236.158 1105.7 229.198 1116.98 227.558C1118.02 227.398 1119.07 227.298 1120.15 227.238C1121.95 227.138 1123.75 229.258 1123.04 231.037C1122.65 232.018 1122.24 232.988 1121.79 233.968C1117.89 242.558 1111.91 250.891 1104.45 257.216L1103.87 257.698C1106.5 256.788 1109.09 255.768 1111.64 254.618C1126.63 247.868 1140.23 237.668 1156.3 233.568C1157.06 233.368 1157.83 233.188 1158.6 233.018C1163.57 231.948 1166.19 237.348 1163.27 241.048C1162.8 241.648 1162.33 242.238 1161.84 242.828C1154.67 251.728 1146.76 259.988 1138.04 267.408C1135.05 269.948 1131.97 272.408 1128.83 274.759C1138.67 271.778 1148.37 268.248 1157.86 264.339C1161.63 262.788 1164.56 266.608 1164.96 269.748C1166.29 280.122 1154.95 287.666 1147.34 292.725L1147.02 292.938C1139.4 298.019 1131.01 301.879 1122.42 304.978C1105.91 310.947 1088.56 313.657 1071.24 316.086L1062.83 317.258C1029.53 321.914 994.755 327.48 970.864 353.389C957.474 367.908 948.414 385.948 940.124 403.698C931.844 421.429 924.574 439.629 917.674 457.929C910.524 476.868 904.294 496.158 897.674 515.288C891.594 532.853 884.332 550.194 877.139 567.359L876.004 570.068C860.734 606.549 842.494 640.908 817.074 671.368C812.884 676.398 806.114 669.259 809.984 664.278C836.574 629.998 855.074 589.549 870.344 549.198C877.294 530.839 883.114 512.038 889.794 493.578L893.769 482.612C899.077 467.993 904.43 453.393 910.014 438.889C917.084 420.538 924.854 402.408 933.744 384.868L934.688 383.021C943.391 366.1 953.732 349.423 967.964 336.618C993.582 313.559 1027.67 308.027 1060.63 303.646L1071 302.279C1084.93 300.428 1098.9 298.384 1112.45 294.658C1120.27 292.519 1127.91 289.778 1135.09 285.998C1137.95 284.498 1140.74 282.849 1143.44 281.049C1135.74 283.309 1127.93 285.158 1119.98 286.608C1116.09 287.318 1112.24 287.849 1108.4 288.219C1098.51 289.198 1088.7 289.158 1078.57 288.629C1077.71 288.578 1077.43 287.229 1078.35 287.059C1085.41 285.804 1092.47 284.235 1099.51 282.533L1101.61 282.018C1101.65 280.849 1102.11 279.608 1103.07 278.429C1106.57 274.169 1113.22 271.988 1117.83 268.978C1122.66 265.828 1127.34 262.429 1131.8 258.788C1135.88 255.459 1139.8 251.938 1143.57 248.258C1133.39 252.959 1123.74 258.988 1113.11 262.709C1104.66 265.678 1095.8 267.678 1086.86 268.388L1086.31 268.432L1085.75 268.468C1076.42 269.138 1067.03 268.868 1057.84 270.888C1056.81 271.118 1056.49 269.738 1057.41 269.348C1065.44 266.008 1073.79 264.718 1082.23 263.158C1082.41 262.498 1082.87 261.908 1083.67 261.528L1085.83 260.497C1092.26 257.409 1098.26 254.291 1103.6 249.278C1108.32 244.848 1112.25 239.669 1115.2 233.928C1103.39 236.518 1093.02 245.468 1082.28 250.498C1070.58 255.988 1058.2 259.928 1045.48 262.169L1044.04 262.417C1020.26 266.382 991.68 265.877 970.385 253.518C969.705 253.118 970.195 252.209 970.895 252.318C976.935 253.308 982.915 254.478 988.895 255.518C987.724 254.448 987.204 252.528 988.554 250.988C993.925 244.833 998.173 237.798 1000.89 230.1L1001.41 228.595C1001.46 228.431 1001.52 228.262 1001.58 228.09C1002.84 224.519 1004.67 219.331 1002.61 216.258C1000.55 213.188 995.704 213.608 992.804 214.908C986.774 217.628 982.764 224.419 977.684 228.518C972.144 232.998 965.844 236.318 959.394 239.288L958.032 239.907C946.876 244.925 934.956 249.15 926.184 258.008C921.464 262.768 917.404 268.718 916.044 275.388C915.424 278.448 915.424 281.598 916.244 284.628C916.439 285.339 916.698 285.968 916.944 286.566C917.518 287.96 918.02 289.182 917.474 290.868C916.454 293.978 912.844 297.698 910.984 300.468C908.824 303.669 906.674 306.878 904.524 310.088C900.234 316.508 895.964 322.948 891.694 329.378C883.154 342.258 874.704 355.198 866.324 368.178C863.598 372.405 860.88 376.636 858.171 380.871L854.115 387.228L854.04 387.346L854.115 387.228L854.155 388.178C854.305 391.548 852.285 393.448 849.835 393.938L848.315 396.327C848.445 396.858 848.435 397.418 848.265 397.907C847.641 399.683 846.474 400.897 845.023 401.777L844.764 401.928C823.424 435.658 802.424 469.608 781.214 503.419C780.084 513.738 779.024 524.068 778.104 534.398C776.014 557.778 774.584 581.219 774.124 604.688C773.964 612.986 774.406 621.321 774.847 629.634C775.01 632.703 775.172 635.768 775.304 638.828C775.544 644.245 775.873 649.656 776.302 655.064L776.617 658.898C777.04 664.167 777.279 669.397 775.384 674.419C773.704 678.828 768.584 679.818 765.554 676.459C726.025 674.868 686.465 673.658 646.905 672.908C576.095 671.548 505.255 671.758 434.435 673.128C398.865 673.818 363.285 674.788 327.725 675.988C310.205 676.568 292.675 677.388 275.145 677.628C265.7 677.757 250.835 674.318 250.073 663.692L250.055 663.368C248.875 663.688 247.655 663.948 246.405 664.138C245.848 664.224 245.314 664.199 244.82 664.084L244.575 664.019C232.232 667.78 217.024 663.539 204.447 660.031C202.677 659.538 200.959 659.059 199.309 658.619L198.205 658.328C185.435 654.998 175.175 650.238 166.805 639.658C152.155 621.129 147.155 596.248 144.555 573.318C142.115 551.738 141.975 529.759 144.945 508.219C143.195 490.669 144.905 472.559 146.895 455.108C147.875 446.478 149.025 437.858 150.405 429.278C151.175 424.488 152.185 419.748 153.215 415.018C153.626 413.128 153.968 411.093 154.49 409.126L154.725 408.288C153.125 408.498 151.375 408.148 149.685 407.219C145.665 405.009 144.495 400.538 144.425 396.259C144.22 384.277 145.534 371.978 146.812 360.016C146.91 359.098 147.008 358.182 147.105 357.269C148.475 344.469 150.355 331.618 152.815 318.978L153.451 315.719C155.315 306.264 157.448 296.503 161.205 287.618C147.095 285.219 133.025 282.669 119.335 278.328C112.655 276.198 106.075 273.549 99.7948 270.318ZM76.7444 254.219C77.4244 254.858 78.1144 255.498 78.8048 256.108C74.3249 254.328 69.9148 252.388 65.6049 250.188C52.9748 243.738 41.3048 235.448 31.6748 224.988C26.9248 219.838 22.7848 214.198 19.3548 208.088C17.2548 204.368 11.0448 191.928 18.5547 191.299C19.0947 191.248 19.7147 191.259 20.4147 191.349C26.9547 192.169 33.2147 197.719 38.8547 200.799C45.0847 204.209 51.5047 207.219 58.0747 209.898C63.9847 212.309 69.9948 214.568 76.0847 216.568L76.5197 216.712L76.9548 216.849C86.7048 220.038 96.6847 222.608 106.775 224.219C106.975 224.248 107.135 223.979 106.925 223.868C91.0747 215.959 74.0648 210.648 58.0447 203.118C49.9847 199.339 42.0747 195.299 34.5047 190.608C30.1447 187.908 24.9347 184.559 19.5547 184.419L19.0052 183.741C18.6867 183.353 18.3334 182.926 17.9534 182.467C12.6862 176.107 2.31046 163.578 9.12455 160.158C15.7195 156.844 23.3564 166.427 27.9968 172.251C28.8306 173.297 29.5677 174.222 30.1845 174.929L30.7569 175.58C42.2591 188.576 57.1065 199.56 73.4246 205.648C73.7945 205.778 73.9645 205.248 73.6845 205.049C72.6245 204.299 71.5745 203.549 70.5246 202.788L71.5406 203.19C72.8897 203.719 74.2145 204.216 75.4946 204.688C82.4345 207.258 89.5746 209.287 96.8245 210.718L96.9911 210.751C103.537 212.031 110.16 213.325 116.745 211.787C119.165 211.218 118.765 208.008 116.745 207.268C111.505 205.338 106.025 205.088 100.565 204.098C95.1046 203.108 89.7045 201.778 84.4146 200.098C75.6245 197.318 63.9445 193.738 58.1345 186.018C55.7645 182.868 54.8245 178.968 56.4045 175.218C58.6245 169.948 63.1845 170.918 67.6545 172.658L68.9836 173.175C78.73 176.936 88.4815 180.074 98.7545 182.188C129.335 188.488 162.465 187.908 192.855 196.098C203.485 198.948 213.785 202.878 223.515 208.548C237.105 216.458 248.835 227.488 256.915 240.878C257.245 247.528 257.535 254.028 258.495 260.638C259.207 265.557 260.041 270.453 260.903 275.344L262.465 284.148C265.095 299.108 268.265 313.988 271.205 328.898C277.085 358.728 282.985 388.568 287.325 418.668C295.645 476.278 297.465 535.218 282.795 591.997C277.135 613.938 269.475 635.678 252.605 650.609L252.595 650.618C251.951 650.867 251.311 651.118 250.673 651.367C243.376 654.223 236.409 656.95 228.225 656.059C218.635 655.009 209.035 651.538 199.735 649.089L199.172 648.939C188.892 646.171 180.851 642.352 174.065 633.759C160.759 616.919 155.849 593.448 153.297 572.524L153.115 570.998C150.525 548.868 150.415 526.068 153.945 504.038C159.225 471.059 171.055 439.658 181.365 408.028L181.973 406.163L182.921 403.221C192.481 373.386 200.96 342.17 198.915 310.778C199.595 309.998 199.955 308.899 199.775 307.469C199.455 305.028 198.815 302.689 197.865 300.519C197.535 298.179 195.725 296.669 195.725 296.669C193.845 293.939 191.355 291.618 188.265 289.889C185.085 288.109 180.275 286.618 176.055 286.969C172.265 285.769 160.824 282.575 160.824 282.575C141.037 277.273 120.89 272.806 102.884 263.209C100.224 261.799 97.6144 260.278 95.0645 258.618C83.9445 251.408 71.9445 240.509 67.7344 227.488L67.681 227.324C67.6242 227.152 67.5672 226.988 67.5127 226.832C67.0535 225.513 66.7759 224.715 68.3244 224.179C69.2345 223.853 70.5878 224.18 71.7215 224.511L73.657 225.082C77.1999 226.162 80.5245 227.737 83.7445 229.538C89.8145 232.929 95.4344 237.038 101.374 240.618C115.714 249.268 132.244 250.429 147.864 255.698C150.314 256.528 151.614 253.379 150.194 251.698C144.544 245.038 135.764 244.009 127.664 242.408L126.852 242.244C118.223 240.459 110.841 237.409 103.364 232.639C96.4645 228.238 89.8745 223.248 82.4044 219.818C80.6844 219.018 78.7544 218.179 76.7544 217.478C76.4644 217.379 76.1744 217.278 75.8845 217.188C71.4044 215.738 66.5644 215.139 62.5444 217.528C55.8158 221.522 59.3316 229.419 62.1948 234.963L63.1199 236.723C66.6353 243.228 71.383 249.147 76.7444 254.219ZM205.315 227.509C211.285 228.038 217.135 229.309 222.715 231.509L223.253 231.719C227.38 233.312 233.415 235.314 234.765 239.719C235.145 240.969 234.125 241.998 232.955 242.099C230.035 242.333 226.776 240.377 223.712 238.537C222.073 237.553 220.49 236.602 219.045 236.038C214.425 234.238 209.585 232.898 204.685 232.188C193.675 230.578 182.195 231.799 171.835 235.809C171.225 236.049 170.845 235.078 171.395 234.788C181.835 229.108 193.445 226.459 205.315 227.509ZM835.615 404.738C835.825 404.678 836.035 404.618 836.254 404.568C822.164 427.158 808.364 449.928 794.874 472.879C790.444 480.408 786.204 488.028 782.064 495.709L782.601 490.894C785.297 466.82 788.132 442.759 790.045 418.618C799.175 414.328 808.775 411.568 818.595 409.098C824.275 407.658 829.975 406.318 835.615 404.738ZM158.165 406.959C158.186 409.001 157.888 411.101 157.599 413.136C157.482 413.96 157.367 414.773 157.275 415.568C156.755 420.049 156.335 424.549 155.805 429.028C154.725 438.028 153.805 447.038 153.135 456.078C152.705 461.849 152.425 467.639 152.175 473.429C157.845 452.238 165.355 431.509 172.495 410.748C171.301 410.622 170.081 410.33 168.823 409.996L166.704 409.426C165.455 409.104 161.402 408.107 158.165 406.959Z" transform="translate(-88.75005 5.250063)" fill="#000000" fill-rule="evenodd" stroke="none"></path></g><g transform="translate(225 0)"><g><g><path d="M395.901 175.053C392.111 112.851 371.927 42.3305 312.523 11.7905C181.564 -40.7675 9.3796 91.5885 0.263603 226.8C-2.9144 273.085 22.7836 323.66 69.7446 336.527C80.1856 350.36 95.9756 358.809 111.561 366.141C297.188 462.448 417.095 384.16 395.901 175.053L395.901 175.053Z" transform="translate(36 94.99951)" fill="#FFFFFF" stroke="none"></path><path d="M559.189 199.517C552.629 181.297 545.699 163.217 538.409 145.277C531.309 127.817 524.896 109.98 516.079 93.3471C463.419 -5.99291 367.659 -5.99291 318.159 6.98709C292.489 -4.07291 244.408 -0.95317 217.679 9.02709C174.407 25.1841 121.658 88.7421 103.623 117.298C63.8039 180.347 38.9539 264.264 65.4039 337.12C68.8609 346.642 73.2699 355.461 78.2339 363.96C75.1069 368.198 71.5079 372.212 67.5209 376.156C55.6729 387.878 43.8249 399.214 33.5899 412.435C23.4189 425.574 14.9869 439.546 8.70993 454.951C-3.12608 484.003 -3.69607 516.899 11.9519 544.62C25.5659 568.74 49.6829 586.701 76.8539 588.414C78.2489 588.608 79.6459 588.786 81.0489 588.927C84.6489 594.857 89.0389 600.317 94.0489 605.077C109.399 619.677 145.989 627.167 166.859 627.647C167.929 628.507 169.009 629.367 170.089 630.217C182.859 640.267 196.259 650.407 210.919 657.557C220.849 662.407 233.869 666.457 244.229 662.957C248.929 666.097 256.639 665.437 261.299 662.867C268.959 658.647 275.189 651.047 278.979 643.267C288.169 624.377 285.959 603.707 283.599 583.527C280.999 561.237 278.499 538.937 275.959 516.647C273.969 499.217 271.889 481.497 266.589 464.707C263.849 456.007 260.259 447.647 255.619 439.787C255.739 439.127 255.719 438.467 255.529 437.847C254.009 432.907 250.869 430.317 247.149 426.957C246.669 426.527 246.189 426.087 245.719 425.637C243.859 423.517 241.869 421.547 239.739 419.877C238.919 419.047 238.109 418.207 237.299 417.367C230.569 410.317 224.209 402.907 218.559 394.967C213.079 387.267 208.129 379.227 203.419 371.037C198.629 362.707 195.459 353.517 190.679 345.247C190.269 344.537 189.229 344.397 188.649 344.987C187.169 346.517 186.219 348.217 186.399 350.007L185.659 350.117C185.379 347.417 182.889 345.217 179.509 345.807C174.449 346.687 170.289 347.017 165.909 345.337C166.679 340.227 167.389 335.107 168.089 329.977C169.369 320.537 170.559 311.067 171.579 301.597C174.049 302.187 176.499 303.037 178.899 304.117C182.319 305.647 185.549 307.707 188.309 310.237C191.029 312.737 192.909 316.107 196.229 317.847C200.049 319.837 204.659 316.547 203.539 312.227C201.269 303.497 188.419 298.497 180.469 296.847C177.739 296.277 174.949 296.037 172.159 296.097C172.789 290.017 173.349 283.937 173.809 277.847C174.029 274.967 174.229 272.087 174.419 269.197C180.599 267.327 187.219 266.767 193.649 267.647C195.769 269.337 197.889 271.007 199.939 272.697C206.449 278.077 212.929 283.487 219.329 288.997C219.909 289.487 220.479 289.977 221.059 290.477C224.859 293.747 229.599 290.507 228.959 285.877C223.739 247.937 246.979 217.757 274.189 194.377C304.309 168.487 359.069 165.472 394.889 120.627C411.386 123.985 448.219 133.957 463.419 158.177C484.699 192.117 481.919 222.527 483.539 261.027C485.159 299.557 489.279 339.747 480.529 377.737C472.459 412.767 450.609 442.697 416.709 456.457C415.869 456.797 415.019 457.127 414.169 457.447C396.639 464.057 377.509 465.927 359.069 462.447C338.659 458.587 321.619 449.247 304.639 437.757C303.659 437.107 302.229 438.447 302.969 439.427C325.349 469.087 369.309 478.997 404.179 471.167C405.809 470.797 407.429 470.397 409.039 469.957C401.239 492.387 402.809 517.007 412.969 538.847C419.079 551.987 428.399 563.357 439.749 572.327C452.259 582.207 467.779 590.187 476.459 604.057C484.409 616.767 482.049 631.047 468.439 638.387C465.009 640.247 463.689 646.257 467.089 648.897C468.389 649.897 469.689 650.917 471.019 651.917C478.639 657.667 499.569 668.467 502.959 668.867C533.059 672.437 553.299 650.337 566.269 624.267C581.499 593.667 577.539 556.377 560.759 527.237C547.299 503.857 520.789 480.817 531.329 451.227C535.089 440.657 542.779 431.647 550.249 423.507C558.769 414.237 567.929 405.557 576.099 395.957C584.219 386.427 591.419 376.057 595.439 364.097C601.309 346.617 598.389 327.717 593.979 310.267C584.529 272.807 572.259 235.847 559.189 199.517Z" transform="translate(-84.99982 31.84301)" fill="#000000" stroke="none"></path></g></g><g transform="translate(159 186)"><g><path d="M175.373 49.5872C175.699 49.4437 175.991 49.2049 176.203 48.8583C178.978 44.3099 179.267 38.8813 178.039 33.5637C176.563 27.172 172.899 20.9588 168.944 16.7559C163.959 11.4582 157.895 7.75374 151.246 4.94731C150.762 4.74287 150.267 4.53098 149.763 4.31514C142.964 1.40541 134.597 -2.01031 127.865 1.47064C125.161 2.86951 123.673 5.20381 123.256 7.7496C122.814 10.4534 123.597 13.4099 125.462 15.7216C128.557 19.5594 133.339 20.3533 138.087 21.0465C139.602 21.2677 141.106 21.486 142.53 21.8229C147.429 22.9821 152.604 24.4361 157.104 26.7244C166.253 31.3762 170.54 38.5898 172.747 48.2853C172.837 48.6781 173.037 48.9988 173.3 49.2406C173.575 49.4928 173.921 49.6579 174.285 49.7192C174.651 49.7808 175.032 49.7375 175.373 49.5872ZM58.3942 19.1934C55.0693 22.4329 51.1339 22.9347 47.1526 23.381C44.9405 23.6313 43.1746 23.8331 41.4369 24.2252C36.6605 25.3034 31.9393 26.9272 27.6319 29.2659C23.1292 31.7106 18.2224 34.659 14.6922 38.4361C13.8528 39.3349 13.0615 40.278 12.2691 41.2232C11.5465 42.0851 10.8505 42.9149 10.1169 43.7149C9.27449 44.6339 8.47449 45.597 7.67875 46.5576C7.1867 47.3681 7.0895 47.5675 6.99041 47.775C6.8413 48.0869 6.66786 48.4359 6.46976 48.8103C6.19845 49.323 5.88066 49.8843 5.54784 50.3932C4.9941 51.3234 4.69697 51.5796 4.44022 51.6942C4.01419 51.8839 3.61015 51.9774 3.21817 51.9268C2.85064 51.8793 2.50438 51.7028 2.16244 51.4138C0.455387 49.9715 -0.0480658 47.6046 0.00353523 45.092C0.0818393 41.2793 1.48813 37.0578 2.78452 34.4628C5.79888 28.4331 9.97938 22.1649 15.0062 17.6646C20.7422 12.5276 27.0177 8.63869 34.2256 5.95894C38.705 4.29304 43.8913 2.76391 48.7713 2.95706C52.284 3.09609 55.6373 4.14026 58.4066 6.74782C60.1072 8.34853 60.9235 10.6254 60.9235 12.9006C60.9235 15.2211 60.0757 17.5554 58.3942 19.1934ZM164.634 78.3299C166.478 78.8824 167.779 78.6212 169.441 77.7551C170.719 77.0896 171.589 76.0387 172.088 74.8117C172.599 73.5559 172.706 72.1077 172.454 70.7659C171.405 65.1948 168.042 60.2513 163.503 57.0672C159.091 53.9728 153.589 52.5435 148.048 53.7341C144.003 54.6036 138.007 58.4424 134.85 63.1243C133.504 65.1203 132.671 67.2595 132.581 69.3723C132.495 71.387 133.008 73.4183 135.676 76.096C135.935 76.177 136.208 76.2208 136.477 76.2208C137.138 76.2208 137.821 75.9439 138.274 75.5441C139.469 74.4935 140.311 73.1636 141.178 71.7329C141.641 70.9679 142.102 70.1976 142.69 69.5195C144.449 67.4927 147.002 65.7736 149.683 65.3262C152.167 64.911 154.406 65.6469 156.181 67.0355C158.256 68.6601 159.713 71.1522 160.252 73.8146C160.472 74.8933 161.036 75.8657 161.818 76.6477C162.607 77.4367 163.615 78.0237 164.634 78.3299ZM46.1749 69.1109C43.7479 67.5587 40.8928 67.0259 37.7287 68.4655C35.256 69.5899 30.9192 73.3385 27.9011 78.2662C25.8363 81.6374 24.3721 85.5922 24.6769 89.7117C24.7477 90.6684 24.3942 91.3738 23.8366 91.8954C23.3962 92.3073 22.7601 92.61 22.013 92.7047C21.3786 92.785 20.6686 92.7125 20.0913 92.5324C18.9931 92.1896 18.4119 91.4772 18.1929 90.8957C16.0797 85.2836 16.9901 79.0208 19.3585 73.3707C22.5547 65.7456 28.3592 59.3585 32.1622 57.2993C38.6698 53.7742 46.347 53.612 52.8639 57.2031C58.4114 60.2596 61.8802 65.1942 65.3301 70.2242C66.0635 71.2934 66.7914 72.3548 67.5436 73.3976C69.0513 75.487 69.2013 77.5593 68.6175 79.3363C67.9707 81.3049 66.3215 82.9663 64.2592 83.8357C62.353 84.6393 60.1407 84.7524 58.1831 83.9268C56.5293 83.2293 55.0117 81.8695 54.0513 79.5625C52.434 75.6771 49.7393 71.3904 46.1749 69.1109ZM127.748 115.98C135.872 104.601 124.366 93.898 116.814 89.3079C114.836 87.8879 116.406 83.1842 120.634 83.9112C159.031 90.5082 139.136 156.649 90.112 120.354C84.2754 115.645 91.3434 105.275 97.6342 109.307C97.9532 109.552 98.2876 109.81 98.6364 110.08C105.704 115.544 118.636 125.542 127.748 115.98ZM117.042 185.1C109.675 187.233 101.768 187.424 94.2589 185.221C87.4481 183.222 80.4549 178.823 75.4423 173.003C70.9894 167.832 68.1055 161.549 68.2187 154.842C68.2316 154.076 68.5055 153.436 68.9268 152.94C69.3804 152.406 70.014 152.039 70.6926 151.88C71.3906 151.716 72.1285 151.774 72.7568 152.059C73.3256 152.318 73.8129 152.757 74.1176 153.398C74.8879 154.41 75.6553 155.407 76.4257 156.376C82.6196 164.024 88.618 169.74 97.9319 171.79C102.985 172.903 108.032 172.409 112.663 170.712C117.62 168.895 122.102 165.7 125.613 161.612C127.2 159.765 129.074 159.011 130.905 158.998C132.982 158.983 135.034 159.948 136.579 161.49C138.099 163.006 139.116 165.065 139.209 167.219C139.29 169.11 138.673 171.085 137.032 172.848C131.626 178.652 124.621 182.904 117.042 185.1Z" transform="translate(54.00004 55.05923)" fill="#000000" fill-rule="evenodd" stroke="none"></path></g></g><g transform="translate(123 338)"></g><g transform="translate(47 241)"></g></g></g></svg>