<svg xmlns="http://www.w3.org/2000/svg" xmlns:xlink="http://www.w3.org/1999/xlink" width="500" zoomAndPan="magnify" viewBox="0 0 375 142.499996" height="190" preserveAspectRatio="xMidYMid meet" version="1.0"><defs><g/></defs><g fill="#ff0000" fill-opacity="1"><g transform="translate(27.102112, 100.887086)"><g><path d="M 36.890625 -79.96875 C 42.984375 -79.96875 47.800781 -78.003906 51.34375 -74.078125 C 54.882812 -70.160156 56.65625 -64.960938 56.65625 -58.484375 C 56.65625 -56.660156 56.582031 -55.253906 56.4375 -54.265625 C 55.820312 -49.390625 54.390625 -45.082031 52.140625 -41.34375 C 49.898438 -37.613281 47.007812 -34.738281 43.46875 -32.71875 C 39.925781 -30.707031 36.019531 -29.703125 31.75 -29.703125 L 25.46875 -29.703125 C 25.09375 -29.703125 24.90625 -29.507812 24.90625 -29.125 L 21.46875 -1.71875 C 21.394531 -1.175781 21.1875 -0.753906 20.84375 -0.453125 C 20.5 -0.148438 20.097656 0 19.640625 0 L 2.0625 0 C 1.601562 0 1.238281 -0.148438 0.96875 -0.453125 C 0.707031 -0.753906 0.613281 -1.175781 0.6875 -1.71875 L 10.046875 -78.25 C 10.128906 -78.78125 10.335938 -79.195312 10.671875 -79.5 C 11.015625 -79.8125 11.414062 -79.96875 11.875 -79.96875 Z M 29.015625 -46.265625 C 30.691406 -46.265625 32.117188 -46.890625 33.296875 -48.140625 C 34.472656 -49.398438 35.21875 -51.285156 35.53125 -53.796875 C 35.601562 -54.253906 35.640625 -54.90625 35.640625 -55.75 C 35.640625 -57.65625 35.21875 -59.101562 34.375 -60.09375 C 33.539062 -61.082031 32.398438 -61.578125 30.953125 -61.578125 L 29.359375 -61.578125 C 28.972656 -61.578125 28.78125 -61.382812 28.78125 -61 L 27.078125 -46.84375 C 26.921875 -46.457031 27.070312 -46.265625 27.53125 -46.265625 Z M 29.015625 -46.265625 "/></g></g></g><g fill="#ff0000" fill-opacity="1"><g transform="translate(88.557576, 100.887086)"><g><path d="M 52.78125 -63.28125 C 52.695312 -62.75 52.484375 -62.332031 52.140625 -62.03125 C 51.804688 -61.726562 51.367188 -61.578125 50.828125 -61.578125 L 29.59375 -61.578125 C 29.207031 -61.578125 29.015625 -61.382812 29.015625 -61 L 27.640625 -49.8125 C 27.492188 -49.425781 27.648438 -49.234375 28.109375 -49.234375 L 39.1875 -49.234375 C 39.71875 -49.234375 40.113281 -49.082031 40.375 -48.78125 C 40.644531 -48.476562 40.742188 -48.054688 40.671875 -47.515625 L 38.84375 -32.5625 C 38.613281 -31.414062 37.960938 -30.84375 36.890625 -30.84375 L 25.8125 -30.84375 C 25.4375 -30.84375 25.25 -30.648438 25.25 -30.265625 L 23.875 -18.96875 C 23.71875 -18.582031 23.867188 -18.390625 24.328125 -18.390625 L 45.578125 -18.390625 C 46.109375 -18.390625 46.503906 -18.238281 46.765625 -17.9375 C 47.035156 -17.632812 47.132812 -17.210938 47.0625 -16.671875 L 45.234375 -1.71875 C 45.160156 -1.175781 44.953125 -0.753906 44.609375 -0.453125 C 44.265625 -0.148438 43.828125 0 43.296875 0 L 2.28125 0 C 1.820312 0 1.457031 -0.148438 1.1875 -0.453125 C 0.925781 -0.753906 0.832031 -1.175781 0.90625 -1.71875 L 10.28125 -78.25 C 10.351562 -78.78125 10.5625 -79.195312 10.90625 -79.5 C 11.25 -79.8125 11.648438 -79.96875 12.109375 -79.96875 L 53.125 -79.96875 C 53.65625 -79.96875 54.050781 -79.8125 54.3125 -79.5 C 54.582031 -79.195312 54.679688 -78.78125 54.609375 -78.25 Z M 52.78125 -63.28125 "/></g></g></g><g fill="#ff0000" fill-opacity="1"><g transform="translate(145.900803, 100.887086)"><g><path d="M 23.765625 0.90625 C 17.210938 0.90625 12.03125 -0.785156 8.21875 -4.171875 C 4.414062 -7.554688 2.515625 -12.066406 2.515625 -17.703125 C 2.515625 -18.234375 2.585938 -19.1875 2.734375 -20.5625 L 3.203125 -24.109375 C 3.273438 -24.640625 3.484375 -25.054688 3.828125 -25.359375 C 4.171875 -25.660156 4.570312 -25.8125 5.03125 -25.8125 L 22.390625 -25.8125 C 22.847656 -25.8125 23.207031 -25.660156 23.46875 -25.359375 C 23.738281 -25.054688 23.835938 -24.640625 23.765625 -24.109375 L 23.53125 -21.59375 C 23.375 -20.375 23.523438 -19.382812 23.984375 -18.625 C 24.441406 -17.863281 25.128906 -17.484375 26.046875 -17.484375 C 27.035156 -17.484375 27.875 -17.898438 28.5625 -18.734375 C 29.25 -19.566406 29.59375 -20.59375 29.59375 -21.8125 C 29.59375 -22.957031 29.039062 -24.140625 27.9375 -25.359375 C 26.832031 -26.578125 24.71875 -28.441406 21.59375 -30.953125 C 18.539062 -33.472656 16.023438 -35.703125 14.046875 -37.640625 C 12.066406 -39.578125 10.351562 -41.972656 8.90625 -44.828125 C 7.457031 -47.691406 6.734375 -50.953125 6.734375 -54.609375 C 6.734375 -55.285156 6.8125 -56.460938 6.96875 -58.140625 C 7.800781 -64.921875 10.617188 -70.40625 15.421875 -74.59375 C 20.222656 -78.78125 26.203125 -80.875 33.359375 -80.875 C 39.910156 -80.875 45.066406 -79.125 48.828125 -75.625 C 52.597656 -72.125 54.484375 -67.398438 54.484375 -61.453125 C 54.484375 -60.773438 54.410156 -59.671875 54.265625 -58.140625 L 53.921875 -55.625 C 53.835938 -55.09375 53.625 -54.675781 53.28125 -54.375 C 52.945312 -54.070312 52.550781 -53.921875 52.09375 -53.921875 L 34.84375 -53.921875 C 34.382812 -53.921875 34.019531 -54.070312 33.75 -54.375 C 33.488281 -54.675781 33.394531 -55.09375 33.46875 -55.625 L 33.8125 -58.609375 C 33.882812 -59.742188 33.671875 -60.671875 33.171875 -61.390625 C 32.679688 -62.117188 31.984375 -62.484375 31.078125 -62.484375 C 30.003906 -62.484375 29.125 -62.023438 28.4375 -61.109375 C 27.757812 -60.203125 27.421875 -58.984375 27.421875 -57.453125 C 27.421875 -56.160156 27.953125 -54.828125 29.015625 -53.453125 C 30.078125 -52.085938 32.054688 -50.1875 34.953125 -47.75 C 38.835938 -44.476562 41.804688 -41.832031 43.859375 -39.8125 C 45.921875 -37.789062 47.539062 -35.582031 48.71875 -33.1875 C 49.894531 -30.789062 50.484375 -28.066406 50.484375 -25.015625 C 50.484375 -24.410156 50.410156 -23.34375 50.265625 -21.8125 C 49.347656 -14.882812 46.472656 -9.363281 41.640625 -5.25 C 36.804688 -1.144531 30.847656 0.90625 23.765625 0.90625 Z M 23.765625 0.90625 "/></g></g></g><g fill="#ff0000" fill-opacity="1"><g transform="translate(205.300157, 100.887086)"><g><path d="M 35.53125 0 C 34.457031 0 33.960938 -0.53125 34.046875 -1.59375 L 33.8125 -10.28125 C 33.882812 -10.4375 33.84375 -10.570312 33.6875 -10.6875 C 33.539062 -10.800781 33.394531 -10.859375 33.25 -10.859375 L 23.296875 -10.859375 C 22.921875 -10.859375 22.65625 -10.664062 22.5 -10.28125 L 20.328125 -1.59375 C 20.097656 -0.53125 19.453125 0 18.390625 0 L 1.03125 0 C -0.113281 0 -0.535156 -0.609375 -0.234375 -1.828125 L 24.90625 -78.484375 C 25.207031 -79.472656 25.890625 -79.96875 26.953125 -79.96875 L 47.171875 -79.96875 C 48.242188 -79.96875 48.816406 -79.472656 48.890625 -78.484375 L 55.171875 -1.828125 L 55.171875 -1.59375 C 55.171875 -0.53125 54.601562 0 53.46875 0 Z M 27.1875 -27.875 C 27.03125 -27.488281 27.144531 -27.296875 27.53125 -27.296875 L 32.90625 -27.296875 C 33.132812 -27.296875 33.320312 -27.488281 33.46875 -27.875 L 33.015625 -49 C 33.015625 -49.3125 32.914062 -49.445312 32.71875 -49.40625 C 32.53125 -49.363281 32.4375 -49.226562 32.4375 -49 Z M 27.1875 -27.875 "/></g></g></g><g fill="#ff0000" fill-opacity="1"><g transform="translate(272.238595, 100.887086)"><g><path d="M 42.375 -78.25 C 42.457031 -78.78125 42.664062 -79.195312 43 -79.5 C 43.34375 -79.8125 43.785156 -79.96875 44.328125 -79.96875 L 61.578125 -79.96875 C 62.109375 -79.96875 62.503906 -79.8125 62.765625 -79.5 C 63.035156 -79.195312 63.132812 -78.78125 63.0625 -78.25 L 53.578125 -1.71875 C 53.503906 -1.175781 53.3125 -0.753906 53 -0.453125 C 52.695312 -0.148438 52.28125 0 51.75 0 L 31.984375 0 C 31.066406 0 30.535156 -0.492188 30.390625 -1.484375 L 26.046875 -36.5625 C 26.046875 -36.78125 25.96875 -36.890625 25.8125 -36.890625 C 25.664062 -36.890625 25.59375 -36.78125 25.59375 -36.5625 L 21.46875 -1.71875 C 21.394531 -1.175781 21.1875 -0.753906 20.84375 -0.453125 C 20.5 -0.148438 20.097656 0 19.640625 0 L 2.28125 0 C 1.820312 0 1.457031 -0.148438 1.1875 -0.453125 C 0.925781 -0.753906 0.832031 -1.175781 0.90625 -1.71875 L 10.28125 -78.25 C 10.351562 -78.78125 10.5625 -79.195312 10.90625 -79.5 C 11.25 -79.8125 11.648438 -79.96875 12.109375 -79.96875 L 31.640625 -79.96875 C 32.554688 -79.96875 33.09375 -79.472656 33.25 -78.484375 L 37.703125 -43.1875 C 37.703125 -42.957031 37.773438 -42.878906 37.921875 -42.953125 C 38.078125 -43.023438 38.191406 -43.140625 38.265625 -43.296875 Z M 42.375 -78.25 "/></g></g></g><g fill="#00ffff" fill-opacity="1"><g transform="translate(36.284922, 98.767068)"><g><path d="M 36.890625 -79.96875 C 42.984375 -79.96875 47.800781 -78.003906 51.34375 -74.078125 C 54.882812 -70.160156 56.65625 -64.960938 56.65625 -58.484375 C 56.65625 -56.660156 56.582031 -55.253906 56.4375 -54.265625 C 55.820312 -49.390625 54.390625 -45.082031 52.140625 -41.34375 C 49.898438 -37.613281 47.007812 -34.738281 43.46875 -32.71875 C 39.925781 -30.707031 36.019531 -29.703125 31.75 -29.703125 L 25.46875 -29.703125 C 25.09375 -29.703125 24.90625 -29.507812 24.90625 -29.125 L 21.46875 -1.71875 C 21.394531 -1.175781 21.1875 -0.753906 20.84375 -0.453125 C 20.5 -0.148438 20.097656 0 19.640625 0 L 2.0625 0 C 1.601562 0 1.238281 -0.148438 0.96875 -0.453125 C 0.707031 -0.753906 0.613281 -1.175781 0.6875 -1.71875 L 10.046875 -78.25 C 10.128906 -78.78125 10.335938 -79.195312 10.671875 -79.5 C 11.015625 -79.8125 11.414062 -79.96875 11.875 -79.96875 Z M 29.015625 -46.265625 C 30.691406 -46.265625 32.117188 -46.890625 33.296875 -48.140625 C 34.472656 -49.398438 35.21875 -51.285156 35.53125 -53.796875 C 35.601562 -54.253906 35.640625 -54.90625 35.640625 -55.75 C 35.640625 -57.65625 35.21875 -59.101562 34.375 -60.09375 C 33.539062 -61.082031 32.398438 -61.578125 30.953125 -61.578125 L 29.359375 -61.578125 C 28.972656 -61.578125 28.78125 -61.382812 28.78125 -61 L 27.078125 -46.84375 C 26.921875 -46.457031 27.070312 -46.265625 27.53125 -46.265625 Z M 29.015625 -46.265625 "/></g></g></g><g fill="#00ffff" fill-opacity="1"><g transform="translate(97.740385, 98.767068)"><g><path d="M 52.78125 -63.28125 C 52.695312 -62.75 52.484375 -62.332031 52.140625 -62.03125 C 51.804688 -61.726562 51.367188 -61.578125 50.828125 -61.578125 L 29.59375 -61.578125 C 29.207031 -61.578125 29.015625 -61.382812 29.015625 -61 L 27.640625 -49.8125 C 27.492188 -49.425781 27.648438 -49.234375 28.109375 -49.234375 L 39.1875 -49.234375 C 39.71875 -49.234375 40.113281 -49.082031 40.375 -48.78125 C 40.644531 -48.476562 40.742188 -48.054688 40.671875 -47.515625 L 38.84375 -32.5625 C 38.613281 -31.414062 37.960938 -30.84375 36.890625 -30.84375 L 25.8125 -30.84375 C 25.4375 -30.84375 25.25 -30.648438 25.25 -30.265625 L 23.875 -18.96875 C 23.71875 -18.582031 23.867188 -18.390625 24.328125 -18.390625 L 45.578125 -18.390625 C 46.109375 -18.390625 46.503906 -18.238281 46.765625 -17.9375 C 47.035156 -17.632812 47.132812 -17.210938 47.0625 -16.671875 L 45.234375 -1.71875 C 45.160156 -1.175781 44.953125 -0.753906 44.609375 -0.453125 C 44.265625 -0.148438 43.828125 0 43.296875 0 L 2.28125 0 C 1.820312 0 1.457031 -0.148438 1.1875 -0.453125 C 0.925781 -0.753906 0.832031 -1.175781 0.90625 -1.71875 L 10.28125 -78.25 C 10.351562 -78.78125 10.5625 -79.195312 10.90625 -79.5 C 11.25 -79.8125 11.648438 -79.96875 12.109375 -79.96875 L 53.125 -79.96875 C 53.65625 -79.96875 54.050781 -79.8125 54.3125 -79.5 C 54.582031 -79.195312 54.679688 -78.78125 54.609375 -78.25 Z M 52.78125 -63.28125 "/></g></g></g><g fill="#00ffff" fill-opacity="1"><g transform="translate(155.083613, 98.767068)"><g><path d="M 23.765625 0.90625 C 17.210938 0.90625 12.03125 -0.785156 8.21875 -4.171875 C 4.414062 -7.554688 2.515625 -12.066406 2.515625 -17.703125 C 2.515625 -18.234375 2.585938 -19.1875 2.734375 -20.5625 L 3.203125 -24.109375 C 3.273438 -24.640625 3.484375 -25.054688 3.828125 -25.359375 C 4.171875 -25.660156 4.570312 -25.8125 5.03125 -25.8125 L 22.390625 -25.8125 C 22.847656 -25.8125 23.207031 -25.660156 23.46875 -25.359375 C 23.738281 -25.054688 23.835938 -24.640625 23.765625 -24.109375 L 23.53125 -21.59375 C 23.375 -20.375 23.523438 -19.382812 23.984375 -18.625 C 24.441406 -17.863281 25.128906 -17.484375 26.046875 -17.484375 C 27.035156 -17.484375 27.875 -17.898438 28.5625 -18.734375 C 29.25 -19.566406 29.59375 -20.59375 29.59375 -21.8125 C 29.59375 -22.957031 29.039062 -24.140625 27.9375 -25.359375 C 26.832031 -26.578125 24.71875 -28.441406 21.59375 -30.953125 C 18.539062 -33.472656 16.023438 -35.703125 14.046875 -37.640625 C 12.066406 -39.578125 10.351562 -41.972656 8.90625 -44.828125 C 7.457031 -47.691406 6.734375 -50.953125 6.734375 -54.609375 C 6.734375 -55.285156 6.8125 -56.460938 6.96875 -58.140625 C 7.800781 -64.921875 10.617188 -70.40625 15.421875 -74.59375 C 20.222656 -78.78125 26.203125 -80.875 33.359375 -80.875 C 39.910156 -80.875 45.066406 -79.125 48.828125 -75.625 C 52.597656 -72.125 54.484375 -67.398438 54.484375 -61.453125 C 54.484375 -60.773438 54.410156 -59.671875 54.265625 -58.140625 L 53.921875 -55.625 C 53.835938 -55.09375 53.625 -54.675781 53.28125 -54.375 C 52.945312 -54.070312 52.550781 -53.921875 52.09375 -53.921875 L 34.84375 -53.921875 C 34.382812 -53.921875 34.019531 -54.070312 33.75 -54.375 C 33.488281 -54.675781 33.394531 -55.09375 33.46875 -55.625 L 33.8125 -58.609375 C 33.882812 -59.742188 33.671875 -60.671875 33.171875 -61.390625 C 32.679688 -62.117188 31.984375 -62.484375 31.078125 -62.484375 C 30.003906 -62.484375 29.125 -62.023438 28.4375 -61.109375 C 27.757812 -60.203125 27.421875 -58.984375 27.421875 -57.453125 C 27.421875 -56.160156 27.953125 -54.828125 29.015625 -53.453125 C 30.078125 -52.085938 32.054688 -50.1875 34.953125 -47.75 C 38.835938 -44.476562 41.804688 -41.832031 43.859375 -39.8125 C 45.921875 -37.789062 47.539062 -35.582031 48.71875 -33.1875 C 49.894531 -30.789062 50.484375 -28.066406 50.484375 -25.015625 C 50.484375 -24.410156 50.410156 -23.34375 50.265625 -21.8125 C 49.347656 -14.882812 46.472656 -9.363281 41.640625 -5.25 C 36.804688 -1.144531 30.847656 0.90625 23.765625 0.90625 Z M 23.765625 0.90625 "/></g></g></g><g fill="#00ffff" fill-opacity="1"><g transform="translate(214.482967, 98.767068)"><g><path d="M 35.53125 0 C 34.457031 0 33.960938 -0.53125 34.046875 -1.59375 L 33.8125 -10.28125 C 33.882812 -10.4375 33.84375 -10.570312 33.6875 -10.6875 C 33.539062 -10.800781 33.394531 -10.859375 33.25 -10.859375 L 23.296875 -10.859375 C 22.921875 -10.859375 22.65625 -10.664062 22.5 -10.28125 L 20.328125 -1.59375 C 20.097656 -0.53125 19.453125 0 18.390625 0 L 1.03125 0 C -0.113281 0 -0.535156 -0.609375 -0.234375 -1.828125 L 24.90625 -78.484375 C 25.207031 -79.472656 25.890625 -79.96875 26.953125 -79.96875 L 47.171875 -79.96875 C 48.242188 -79.96875 48.816406 -79.472656 48.890625 -78.484375 L 55.171875 -1.828125 L 55.171875 -1.59375 C 55.171875 -0.53125 54.601562 0 53.46875 0 Z M 27.1875 -27.875 C 27.03125 -27.488281 27.144531 -27.296875 27.53125 -27.296875 L 32.90625 -27.296875 C 33.132812 -27.296875 33.320312 -27.488281 33.46875 -27.875 L 33.015625 -49 C 33.015625 -49.3125 32.914062 -49.445312 32.71875 -49.40625 C 32.53125 -49.363281 32.4375 -49.226562 32.4375 -49 Z M 27.1875 -27.875 "/></g></g></g><g fill="#00ffff" fill-opacity="1"><g transform="translate(281.421404, 98.767068)"><g><path d="M 42.375 -78.25 C 42.457031 -78.78125 42.664062 -79.195312 43 -79.5 C 43.34375 -79.8125 43.785156 -79.96875 44.328125 -79.96875 L 61.578125 -79.96875 C 62.109375 -79.96875 62.503906 -79.8125 62.765625 -79.5 C 63.035156 -79.195312 63.132812 -78.78125 63.0625 -78.25 L 53.578125 -1.71875 C 53.503906 -1.175781 53.3125 -0.753906 53 -0.453125 C 52.695312 -0.148438 52.28125 0 51.75 0 L 31.984375 0 C 31.066406 0 30.535156 -0.492188 30.390625 -1.484375 L 26.046875 -36.5625 C 26.046875 -36.78125 25.96875 -36.890625 25.8125 -36.890625 C 25.664062 -36.890625 25.59375 -36.78125 25.59375 -36.5625 L 21.46875 -1.71875 C 21.394531 -1.175781 21.1875 -0.753906 20.84375 -0.453125 C 20.5 -0.148438 20.097656 0 19.640625 0 L 2.28125 0 C 1.820312 0 1.457031 -0.148438 1.1875 -0.453125 C 0.925781 -0.753906 0.832031 -1.175781 0.90625 -1.71875 L 10.28125 -78.25 C 10.351562 -78.78125 10.5625 -79.195312 10.90625 -79.5 C 11.25 -79.8125 11.648438 -79.96875 12.109375 -79.96875 L 31.640625 -79.96875 C 32.554688 -79.96875 33.09375 -79.472656 33.25 -78.484375 L 37.703125 -43.1875 C 37.703125 -42.957031 37.773438 -42.878906 37.921875 -42.953125 C 38.078125 -43.023438 38.191406 -43.140625 38.265625 -43.296875 Z M 42.375 -78.25 "/></g></g></g><g fill="#191919" fill-opacity="1"><g transform="translate(31.693517, 99.827077)"><g><path d="M 36.890625 -79.96875 C 42.984375 -79.96875 47.800781 -78.003906 51.34375 -74.078125 C 54.882812 -70.160156 56.65625 -64.960938 56.65625 -58.484375 C 56.65625 -56.660156 56.582031 -55.253906 56.4375 -54.265625 C 55.820312 -49.390625 54.390625 -45.082031 52.140625 -41.34375 C 49.898438 -37.613281 47.007812 -34.738281 43.46875 -32.71875 C 39.925781 -30.707031 36.019531 -29.703125 31.75 -29.703125 L 25.46875 -29.703125 C 25.09375 -29.703125 24.90625 -29.507812 24.90625 -29.125 L 21.46875 -1.71875 C 21.394531 -1.175781 21.1875 -0.753906 20.84375 -0.453125 C 20.5 -0.148438 20.097656 0 19.640625 0 L 2.0625 0 C 1.601562 0 1.238281 -0.148438 0.96875 -0.453125 C 0.707031 -0.753906 0.613281 -1.175781 0.6875 -1.71875 L 10.046875 -78.25 C 10.128906 -78.78125 10.335938 -79.195312 10.671875 -79.5 C 11.015625 -79.8125 11.414062 -79.96875 11.875 -79.96875 Z M 29.015625 -46.265625 C 30.691406 -46.265625 32.117188 -46.890625 33.296875 -48.140625 C 34.472656 -49.398438 35.21875 -51.285156 35.53125 -53.796875 C 35.601562 -54.253906 35.640625 -54.90625 35.640625 -55.75 C 35.640625 -57.65625 35.21875 -59.101562 34.375 -60.09375 C 33.539062 -61.082031 32.398438 -61.578125 30.953125 -61.578125 L 29.359375 -61.578125 C 28.972656 -61.578125 28.78125 -61.382812 28.78125 -61 L 27.078125 -46.84375 C 26.921875 -46.457031 27.070312 -46.265625 27.53125 -46.265625 Z M 29.015625 -46.265625 "/></g></g></g><g fill="#191919" fill-opacity="1"><g transform="translate(93.14898, 99.827077)"><g><path d="M 52.78125 -63.28125 C 52.695312 -62.75 52.484375 -62.332031 52.140625 -62.03125 C 51.804688 -61.726562 51.367188 -61.578125 50.828125 -61.578125 L 29.59375 -61.578125 C 29.207031 -61.578125 29.015625 -61.382812 29.015625 -61 L 27.640625 -49.8125 C 27.492188 -49.425781 27.648438 -49.234375 28.109375 -49.234375 L 39.1875 -49.234375 C 39.71875 -49.234375 40.113281 -49.082031 40.375 -48.78125 C 40.644531 -48.476562 40.742188 -48.054688 40.671875 -47.515625 L 38.84375 -32.5625 C 38.613281 -31.414062 37.960938 -30.84375 36.890625 -30.84375 L 25.8125 -30.84375 C 25.4375 -30.84375 25.25 -30.648438 25.25 -30.265625 L 23.875 -18.96875 C 23.71875 -18.582031 23.867188 -18.390625 24.328125 -18.390625 L 45.578125 -18.390625 C 46.109375 -18.390625 46.503906 -18.238281 46.765625 -17.9375 C 47.035156 -17.632812 47.132812 -17.210938 47.0625 -16.671875 L 45.234375 -1.71875 C 45.160156 -1.175781 44.953125 -0.753906 44.609375 -0.453125 C 44.265625 -0.148438 43.828125 0 43.296875 0 L 2.28125 0 C 1.820312 0 1.457031 -0.148438 1.1875 -0.453125 C 0.925781 -0.753906 0.832031 -1.175781 0.90625 -1.71875 L 10.28125 -78.25 C 10.351562 -78.78125 10.5625 -79.195312 10.90625 -79.5 C 11.25 -79.8125 11.648438 -79.96875 12.109375 -79.96875 L 53.125 -79.96875 C 53.65625 -79.96875 54.050781 -79.8125 54.3125 -79.5 C 54.582031 -79.195312 54.679688 -78.78125 54.609375 -78.25 Z M 52.78125 -63.28125 "/></g></g></g><g fill="#191919" fill-opacity="1"><g transform="translate(150.492208, 99.827077)"><g><path d="M 23.765625 0.90625 C 17.210938 0.90625 12.03125 -0.785156 8.21875 -4.171875 C 4.414062 -7.554688 2.515625 -12.066406 2.515625 -17.703125 C 2.515625 -18.234375 2.585938 -19.1875 2.734375 -20.5625 L 3.203125 -24.109375 C 3.273438 -24.640625 3.484375 -25.054688 3.828125 -25.359375 C 4.171875 -25.660156 4.570312 -25.8125 5.03125 -25.8125 L 22.390625 -25.8125 C 22.847656 -25.8125 23.207031 -25.660156 23.46875 -25.359375 C 23.738281 -25.054688 23.835938 -24.640625 23.765625 -24.109375 L 23.53125 -21.59375 C 23.375 -20.375 23.523438 -19.382812 23.984375 -18.625 C 24.441406 -17.863281 25.128906 -17.484375 26.046875 -17.484375 C 27.035156 -17.484375 27.875 -17.898438 28.5625 -18.734375 C 29.25 -19.566406 29.59375 -20.59375 29.59375 -21.8125 C 29.59375 -22.957031 29.039062 -24.140625 27.9375 -25.359375 C 26.832031 -26.578125 24.71875 -28.441406 21.59375 -30.953125 C 18.539062 -33.472656 16.023438 -35.703125 14.046875 -37.640625 C 12.066406 -39.578125 10.351562 -41.972656 8.90625 -44.828125 C 7.457031 -47.691406 6.734375 -50.953125 6.734375 -54.609375 C 6.734375 -55.285156 6.8125 -56.460938 6.96875 -58.140625 C 7.800781 -64.921875 10.617188 -70.40625 15.421875 -74.59375 C 20.222656 -78.78125 26.203125 -80.875 33.359375 -80.875 C 39.910156 -80.875 45.066406 -79.125 48.828125 -75.625 C 52.597656 -72.125 54.484375 -67.398438 54.484375 -61.453125 C 54.484375 -60.773438 54.410156 -59.671875 54.265625 -58.140625 L 53.921875 -55.625 C 53.835938 -55.09375 53.625 -54.675781 53.28125 -54.375 C 52.945312 -54.070312 52.550781 -53.921875 52.09375 -53.921875 L 34.84375 -53.921875 C 34.382812 -53.921875 34.019531 -54.070312 33.75 -54.375 C 33.488281 -54.675781 33.394531 -55.09375 33.46875 -55.625 L 33.8125 -58.609375 C 33.882812 -59.742188 33.671875 -60.671875 33.171875 -61.390625 C 32.679688 -62.117188 31.984375 -62.484375 31.078125 -62.484375 C 30.003906 -62.484375 29.125 -62.023438 28.4375 -61.109375 C 27.757812 -60.203125 27.421875 -58.984375 27.421875 -57.453125 C 27.421875 -56.160156 27.953125 -54.828125 29.015625 -53.453125 C 30.078125 -52.085938 32.054688 -50.1875 34.953125 -47.75 C 38.835938 -44.476562 41.804688 -41.832031 43.859375 -39.8125 C 45.921875 -37.789062 47.539062 -35.582031 48.71875 -33.1875 C 49.894531 -30.789062 50.484375 -28.066406 50.484375 -25.015625 C 50.484375 -24.410156 50.410156 -23.34375 50.265625 -21.8125 C 49.347656 -14.882812 46.472656 -9.363281 41.640625 -5.25 C 36.804688 -1.144531 30.847656 0.90625 23.765625 0.90625 Z M 23.765625 0.90625 "/></g></g></g><g fill="#191919" fill-opacity="1"><g transform="translate(209.891562, 99.827077)"><g><path d="M 35.53125 0 C 34.457031 0 33.960938 -0.53125 34.046875 -1.59375 L 33.8125 -10.28125 C 33.882812 -10.4375 33.84375 -10.570312 33.6875 -10.6875 C 33.539062 -10.800781 33.394531 -10.859375 33.25 -10.859375 L 23.296875 -10.859375 C 22.921875 -10.859375 22.65625 -10.664062 22.5 -10.28125 L 20.328125 -1.59375 C 20.097656 -0.53125 19.453125 0 18.390625 0 L 1.03125 0 C -0.113281 0 -0.535156 -0.609375 -0.234375 -1.828125 L 24.90625 -78.484375 C 25.207031 -79.472656 25.890625 -79.96875 26.953125 -79.96875 L 47.171875 -79.96875 C 48.242188 -79.96875 48.816406 -79.472656 48.890625 -78.484375 L 55.171875 -1.828125 L 55.171875 -1.59375 C 55.171875 -0.53125 54.601562 0 53.46875 0 Z M 27.1875 -27.875 C 27.03125 -27.488281 27.144531 -27.296875 27.53125 -27.296875 L 32.90625 -27.296875 C 33.132812 -27.296875 33.320312 -27.488281 33.46875 -27.875 L 33.015625 -49 C 33.015625 -49.3125 32.914062 -49.445312 32.71875 -49.40625 C 32.53125 -49.363281 32.4375 -49.226562 32.4375 -49 Z M 27.1875 -27.875 "/></g></g></g><g fill="#191919" fill-opacity="1"><g transform="translate(276.829999, 99.827077)"><g><path d="M 42.375 -78.25 C 42.457031 -78.78125 42.664062 -79.195312 43 -79.5 C 43.34375 -79.8125 43.785156 -79.96875 44.328125 -79.96875 L 61.578125 -79.96875 C 62.109375 -79.96875 62.503906 -79.8125 62.765625 -79.5 C 63.035156 -79.195312 63.132812 -78.78125 63.0625 -78.25 L 53.578125 -1.71875 C 53.503906 -1.175781 53.3125 -0.753906 53 -0.453125 C 52.695312 -0.148438 52.28125 0 51.75 0 L 31.984375 0 C 31.066406 0 30.535156 -0.492188 30.390625 -1.484375 L 26.046875 -36.5625 C 26.046875 -36.78125 25.96875 -36.890625 25.8125 -36.890625 C 25.664062 -36.890625 25.59375 -36.78125 25.59375 -36.5625 L 21.46875 -1.71875 C 21.394531 -1.175781 21.1875 -0.753906 20.84375 -0.453125 C 20.5 -0.148438 20.097656 0 19.640625 0 L 2.28125 0 C 1.820312 0 1.457031 -0.148438 1.1875 -0.453125 C 0.925781 -0.753906 0.832031 -1.175781 0.90625 -1.71875 L 10.28125 -78.25 C 10.351562 -78.78125 10.5625 -79.195312 10.90625 -79.5 C 11.25 -79.8125 11.648438 -79.96875 12.109375 -79.96875 L 31.640625 -79.96875 C 32.554688 -79.96875 33.09375 -79.472656 33.25 -78.484375 L 37.703125 -43.1875 C 37.703125 -42.957031 37.773438 -42.878906 37.921875 -42.953125 C 38.078125 -43.023438 38.191406 -43.140625 38.265625 -43.296875 Z M 42.375 -78.25 "/></g></g></g><g fill="#d9d9d9" fill-opacity="1"><g transform="translate(29.211869, 130.356376)"><g><path d="M 6.265625 -18.125 L 3.984375 -18.125 L 3.984375 1.921875 L 6.265625 1.921875 L 6.265625 3.734375 L 1.75 3.734375 L 1.75 -19.9375 L 6.265625 -19.9375 Z M 6.265625 -18.125 "/></g></g></g><g fill="#d9d9d9" fill-opacity="1"><g transform="translate(37.561867, 130.356376)"><g/></g></g><g fill="#d9d9d9" fill-opacity="1"><g transform="translate(45.480381, 130.356376)"><g><path d="M 12.640625 -6.34375 C 12.640625 -4.363281 12.1875 -2.769531 11.28125 -1.5625 C 10.375 -0.363281 9.148438 0.234375 7.609375 0.234375 C 6.035156 0.234375 4.796875 -0.265625 3.890625 -1.265625 L 3.890625 4.984375 L 1.671875 4.984375 L 1.671875 -12.96875 L 3.703125 -12.96875 L 3.8125 -11.53125 C 4.71875 -12.644531 5.972656 -13.203125 7.578125 -13.203125 C 9.128906 -13.203125 10.359375 -12.613281 11.265625 -11.4375 C 12.179688 -10.269531 12.640625 -8.640625 12.640625 -6.546875 Z M 10.421875 -6.59375 C 10.421875 -8.050781 10.109375 -9.203125 9.484375 -10.046875 C 8.859375 -10.898438 8.003906 -11.328125 6.921875 -11.328125 C 5.578125 -11.328125 4.566406 -10.734375 3.890625 -9.546875 L 3.890625 -3.34375 C 4.554688 -2.15625 5.570312 -1.5625 6.9375 -1.5625 C 8 -1.5625 8.84375 -1.984375 9.46875 -2.828125 C 10.101562 -3.671875 10.421875 -4.925781 10.421875 -6.59375 Z M 10.421875 -6.59375 "/></g></g></g><g fill="#d9d9d9" fill-opacity="1"><g transform="translate(61.093704, 130.356376)"><g><path d="M 7.0625 0.234375 C 5.300781 0.234375 3.867188 -0.335938 2.765625 -1.484375 C 1.660156 -2.640625 1.109375 -4.1875 1.109375 -6.125 L 1.109375 -6.53125 C 1.109375 -7.820312 1.351562 -8.972656 1.84375 -9.984375 C 2.34375 -10.992188 3.03125 -11.78125 3.90625 -12.34375 C 4.789062 -12.914062 5.75 -13.203125 6.78125 -13.203125 C 8.46875 -13.203125 9.78125 -12.644531 10.71875 -11.53125 C 11.65625 -10.425781 12.125 -8.835938 12.125 -6.765625 L 12.125 -5.84375 L 3.328125 -5.84375 C 3.359375 -4.570312 3.734375 -3.539062 4.453125 -2.75 C 5.171875 -1.957031 6.078125 -1.5625 7.171875 -1.5625 C 7.960938 -1.5625 8.628906 -1.722656 9.171875 -2.046875 C 9.710938 -2.367188 10.1875 -2.789062 10.59375 -3.3125 L 11.953125 -2.265625 C 10.859375 -0.597656 9.226562 0.234375 7.0625 0.234375 Z M 6.78125 -11.390625 C 5.882812 -11.390625 5.132812 -11.0625 4.53125 -10.40625 C 3.925781 -9.757812 3.550781 -8.847656 3.40625 -7.671875 L 9.90625 -7.671875 L 9.90625 -7.84375 C 9.832031 -8.96875 9.523438 -9.835938 8.984375 -10.453125 C 8.441406 -11.078125 7.707031 -11.390625 6.78125 -11.390625 Z M 6.78125 -11.390625 "/></g></g></g><g fill="#d9d9d9" fill-opacity="1"><g transform="translate(75.939942, 130.356376)"><g><path d="M 9.234375 -3.4375 C 9.234375 -4.039062 9.003906 -4.503906 8.546875 -4.828125 C 8.097656 -5.160156 7.3125 -5.445312 6.1875 -5.6875 C 5.0625 -5.925781 4.171875 -6.210938 3.515625 -6.546875 C 2.859375 -6.890625 2.367188 -7.289062 2.046875 -7.75 C 1.734375 -8.21875 1.578125 -8.769531 1.578125 -9.40625 C 1.578125 -10.46875 2.023438 -11.363281 2.921875 -12.09375 C 3.828125 -12.832031 4.976562 -13.203125 6.375 -13.203125 C 7.84375 -13.203125 9.035156 -12.820312 9.953125 -12.0625 C 10.867188 -11.3125 11.328125 -10.34375 11.328125 -9.15625 L 9.09375 -9.15625 C 9.09375 -9.757812 8.832031 -10.28125 8.3125 -10.71875 C 7.800781 -11.164062 7.15625 -11.390625 6.375 -11.390625 C 5.570312 -11.390625 4.941406 -11.210938 4.484375 -10.859375 C 4.023438 -10.503906 3.796875 -10.046875 3.796875 -9.484375 C 3.796875 -8.941406 4.003906 -8.535156 4.421875 -8.265625 C 4.847656 -7.992188 5.613281 -7.734375 6.71875 -7.484375 C 7.832031 -7.242188 8.734375 -6.953125 9.421875 -6.609375 C 10.109375 -6.265625 10.617188 -5.847656 10.953125 -5.359375 C 11.285156 -4.878906 11.453125 -4.289062 11.453125 -3.59375 C 11.453125 -2.4375 10.988281 -1.507812 10.0625 -0.8125 C 9.132812 -0.113281 7.929688 0.234375 6.453125 0.234375 C 5.410156 0.234375 4.488281 0.0507812 3.6875 -0.3125 C 2.894531 -0.675781 2.269531 -1.1875 1.8125 -1.84375 C 1.363281 -2.507812 1.140625 -3.222656 1.140625 -3.984375 L 3.359375 -3.984375 C 3.398438 -3.242188 3.695312 -2.65625 4.25 -2.21875 C 4.800781 -1.78125 5.535156 -1.5625 6.453125 -1.5625 C 7.285156 -1.5625 7.957031 -1.734375 8.46875 -2.078125 C 8.976562 -2.421875 9.234375 -2.875 9.234375 -3.4375 Z M 9.234375 -3.4375 "/></g></g></g><g fill="#d9d9d9" fill-opacity="1"><g transform="translate(90.438594, 130.356376)"><g><path d="M 1.59375 -7.078125 C 1.59375 -8.890625 1.832031 -10.625 2.3125 -12.28125 C 2.800781 -13.945312 3.523438 -15.457031 4.484375 -16.8125 C 5.441406 -18.175781 6.4375 -19.132812 7.46875 -19.6875 L 7.921875 -18.234375 C 6.753906 -17.335938 5.796875 -15.96875 5.046875 -14.125 C 4.304688 -12.289062 3.898438 -10.234375 3.828125 -7.953125 L 3.8125 -6.9375 C 3.8125 -3.851562 4.375 -1.175781 5.5 1.09375 C 6.175781 2.445312 6.984375 3.507812 7.921875 4.28125 L 7.46875 5.640625 C 6.40625 5.046875 5.390625 4.050781 4.421875 2.65625 C 2.535156 -0.0625 1.59375 -3.304688 1.59375 -7.078125 Z M 1.59375 -7.078125 "/></g></g></g><g fill="#d9d9d9" fill-opacity="1"><g transform="translate(100.670343, 130.356376)"><g><path d="M 9.6875 0 C 9.5625 -0.257812 9.457031 -0.710938 9.375 -1.359375 C 8.34375 -0.296875 7.113281 0.234375 5.6875 0.234375 C 4.40625 0.234375 3.351562 -0.125 2.53125 -0.84375 C 1.71875 -1.570312 1.3125 -2.488281 1.3125 -3.59375 C 1.3125 -4.945312 1.820312 -5.992188 2.84375 -6.734375 C 3.875 -7.484375 5.316406 -7.859375 7.171875 -7.859375 L 9.34375 -7.859375 L 9.34375 -8.875 C 9.34375 -9.65625 9.109375 -10.273438 8.640625 -10.734375 C 8.179688 -11.191406 7.5 -11.421875 6.59375 -11.421875 C 5.800781 -11.421875 5.132812 -11.21875 4.59375 -10.8125 C 4.0625 -10.414062 3.796875 -9.9375 3.796875 -9.375 L 1.5625 -9.375 C 1.5625 -10.019531 1.789062 -10.644531 2.25 -11.25 C 2.71875 -11.851562 3.34375 -12.328125 4.125 -12.671875 C 4.914062 -13.023438 5.78125 -13.203125 6.71875 -13.203125 C 8.21875 -13.203125 9.390625 -12.828125 10.234375 -12.078125 C 11.078125 -11.335938 11.515625 -10.3125 11.546875 -9 L 11.546875 -3.03125 C 11.546875 -1.84375 11.703125 -0.894531 12.015625 -0.1875 L 12.015625 0 Z M 6 -1.6875 C 6.695312 -1.6875 7.359375 -1.863281 7.984375 -2.21875 C 8.609375 -2.582031 9.0625 -3.050781 9.34375 -3.625 L 9.34375 -6.296875 L 7.59375 -6.296875 C 4.882812 -6.296875 3.53125 -5.5 3.53125 -3.90625 C 3.53125 -3.207031 3.757812 -2.660156 4.21875 -2.265625 C 4.6875 -1.878906 5.28125 -1.6875 6 -1.6875 Z M 6 -1.6875 "/></g></g></g><g fill="#d9d9d9" fill-opacity="1"><g transform="translate(115.864166, 130.356376)"><g><path d="M 3.78125 -12.96875 L 3.84375 -11.34375 C 4.832031 -12.582031 6.128906 -13.203125 7.734375 -13.203125 C 10.472656 -13.203125 11.851562 -11.65625 11.875 -8.5625 L 11.875 0 L 9.65625 0 L 9.65625 -8.578125 C 9.65625 -9.515625 9.441406 -10.207031 9.015625 -10.65625 C 8.597656 -11.101562 7.945312 -11.328125 7.0625 -11.328125 C 6.34375 -11.328125 5.707031 -11.132812 5.15625 -10.75 C 4.613281 -10.363281 4.191406 -9.859375 3.890625 -9.234375 L 3.890625 0 L 1.671875 0 L 1.671875 -12.96875 Z M 3.78125 -12.96875 "/></g></g></g><g fill="#d9d9d9" fill-opacity="1"><g transform="translate(131.249765, 130.356376)"><g><path d="M 6.796875 -6.96875 C 6.796875 -5.1875 6.5625 -3.476562 6.09375 -1.84375 C 5.625 -0.207031 4.90625 1.300781 3.9375 2.6875 C 2.976562 4.070312 1.972656 5.054688 0.921875 5.640625 L 0.453125 4.28125 C 1.679688 3.332031 2.671875 1.867188 3.421875 -0.109375 C 4.171875 -2.097656 4.550781 -4.300781 4.5625 -6.71875 L 4.5625 -7.109375 C 4.5625 -8.785156 4.382812 -10.34375 4.03125 -11.78125 C 3.6875 -13.226562 3.195312 -14.519531 2.5625 -15.65625 C 1.9375 -16.800781 1.234375 -17.695312 0.453125 -18.34375 L 0.921875 -19.6875 C 1.972656 -19.101562 2.976562 -18.128906 3.9375 -16.765625 C 4.894531 -15.398438 5.609375 -13.894531 6.078125 -12.25 C 6.554688 -10.601562 6.796875 -8.84375 6.796875 -6.96875 Z M 6.796875 -6.96875 "/></g></g></g><g fill="#d9d9d9" fill-opacity="1"><g transform="translate(141.625342, 130.356376)"><g/></g></g><g fill="#d9d9d9" fill-opacity="1"><g transform="translate(149.543854, 130.356376)"><g><path d="M 8.03125 -9.359375 L 12.890625 -9.359375 L 12.890625 -7.265625 L 8.03125 -7.265625 L 8.03125 -1.75 L 5.796875 -1.75 L 5.796875 -7.265625 L 0.9375 -7.265625 L 0.9375 -9.359375 L 5.796875 -9.359375 L 5.796875 -14.453125 L 8.03125 -14.453125 Z M 8.03125 -9.359375 "/></g></g></g><g fill="#d9d9d9" fill-opacity="1"><g transform="translate(165.301004, 130.356376)"><g/></g></g><g fill="#d9d9d9" fill-opacity="1"><g transform="translate(173.219516, 130.356376)"><g><path d="M 1.59375 -7.078125 C 1.59375 -8.890625 1.832031 -10.625 2.3125 -12.28125 C 2.800781 -13.945312 3.523438 -15.457031 4.484375 -16.8125 C 5.441406 -18.175781 6.4375 -19.132812 7.46875 -19.6875 L 7.921875 -18.234375 C 6.753906 -17.335938 5.796875 -15.96875 5.046875 -14.125 C 4.304688 -12.289062 3.898438 -10.234375 3.828125 -7.953125 L 3.8125 -6.9375 C 3.8125 -3.851562 4.375 -1.175781 5.5 1.09375 C 6.175781 2.445312 6.984375 3.507812 7.921875 4.28125 L 7.46875 5.640625 C 6.40625 5.046875 5.390625 4.050781 4.421875 2.65625 C 2.535156 -0.0625 1.59375 -3.304688 1.59375 -7.078125 Z M 1.59375 -7.078125 "/></g></g></g><g fill="#d9d9d9" fill-opacity="1"><g transform="translate(183.451265, 130.356376)"><g><path d="M 5.296875 -6 L 3.90625 -4.546875 L 3.90625 0 L 1.6875 0 L 1.6875 -18.40625 L 3.90625 -18.40625 L 3.90625 -7.28125 L 5.09375 -8.703125 L 9.140625 -12.96875 L 11.828125 -12.96875 L 6.78125 -7.546875 L 12.421875 0 L 9.8125 0 Z M 5.296875 -6 "/></g></g></g><g fill="#d9d9d9" fill-opacity="1"><g transform="translate(197.734176, 130.356376)"><g><path d="M 7.0625 0.234375 C 5.300781 0.234375 3.867188 -0.335938 2.765625 -1.484375 C 1.660156 -2.640625 1.109375 -4.1875 1.109375 -6.125 L 1.109375 -6.53125 C 1.109375 -7.820312 1.351562 -8.972656 1.84375 -9.984375 C 2.34375 -10.992188 3.03125 -11.78125 3.90625 -12.34375 C 4.789062 -12.914062 5.75 -13.203125 6.78125 -13.203125 C 8.46875 -13.203125 9.78125 -12.644531 10.71875 -11.53125 C 11.65625 -10.425781 12.125 -8.835938 12.125 -6.765625 L 12.125 -5.84375 L 3.328125 -5.84375 C 3.359375 -4.570312 3.734375 -3.539062 4.453125 -2.75 C 5.171875 -1.957031 6.078125 -1.5625 7.171875 -1.5625 C 7.960938 -1.5625 8.628906 -1.722656 9.171875 -2.046875 C 9.710938 -2.367188 10.1875 -2.789062 10.59375 -3.3125 L 11.953125 -2.265625 C 10.859375 -0.597656 9.226562 0.234375 7.0625 0.234375 Z M 6.78125 -11.390625 C 5.882812 -11.390625 5.132812 -11.0625 4.53125 -10.40625 C 3.925781 -9.757812 3.550781 -8.847656 3.40625 -7.671875 L 9.90625 -7.671875 L 9.90625 -7.84375 C 9.832031 -8.96875 9.523438 -9.835938 8.984375 -10.453125 C 8.441406 -11.078125 7.707031 -11.390625 6.78125 -11.390625 Z M 6.78125 -11.390625 "/></g></g></g><g fill="#d9d9d9" fill-opacity="1"><g transform="translate(212.580413, 130.356376)"><g><path d="M 3.890625 -11.40625 C 4.878906 -12.601562 6.160156 -13.203125 7.734375 -13.203125 C 10.472656 -13.203125 11.851562 -11.65625 11.875 -8.5625 L 11.875 0 L 9.65625 0 L 9.65625 -8.578125 C 9.65625 -9.515625 9.441406 -10.207031 9.015625 -10.65625 C 8.597656 -11.101562 7.945312 -11.328125 7.0625 -11.328125 C 6.34375 -11.328125 5.707031 -11.132812 5.15625 -10.75 C 4.613281 -10.363281 4.191406 -9.859375 3.890625 -9.234375 L 3.890625 0 L 1.671875 0 L 1.671875 -18.40625 L 3.890625 -18.40625 Z M 3.890625 -11.40625 "/></g></g></g><g fill="#d9d9d9" fill-opacity="1"><g transform="translate(227.942047, 130.356376)"><g><path d="M 4.09375 0 L 1.875 0 L 1.875 -12.96875 L 4.09375 -12.96875 Z M 1.6875 -16.40625 C 1.6875 -16.769531 1.796875 -17.070312 2.015625 -17.3125 C 2.234375 -17.5625 2.554688 -17.6875 2.984375 -17.6875 C 3.421875 -17.6875 3.75 -17.5625 3.96875 -17.3125 C 4.195312 -17.070312 4.3125 -16.769531 4.3125 -16.40625 C 4.3125 -16.050781 4.195312 -15.753906 3.96875 -15.515625 C 3.75 -15.273438 3.421875 -15.15625 2.984375 -15.15625 C 2.554688 -15.15625 2.234375 -15.273438 2.015625 -15.515625 C 1.796875 -15.753906 1.6875 -16.050781 1.6875 -16.40625 Z M 1.6875 -16.40625 "/></g></g></g><g fill="#d9d9d9" fill-opacity="1"><g transform="translate(235.740702, 130.356376)"><g><path d="M 1.140625 -6.59375 C 1.140625 -8.582031 1.609375 -10.179688 2.546875 -11.390625 C 3.492188 -12.597656 4.726562 -13.203125 6.25 -13.203125 C 7.769531 -13.203125 8.972656 -12.6875 9.859375 -11.65625 L 9.859375 -18.40625 L 12.078125 -18.40625 L 12.078125 0 L 10.046875 0 L 9.9375 -1.390625 C 9.050781 -0.304688 7.816406 0.234375 6.234375 0.234375 C 4.734375 0.234375 3.507812 -0.378906 2.5625 -1.609375 C 1.613281 -2.835938 1.140625 -4.441406 1.140625 -6.421875 Z M 3.359375 -6.34375 C 3.359375 -4.875 3.660156 -3.722656 4.265625 -2.890625 C 4.867188 -2.054688 5.707031 -1.640625 6.78125 -1.640625 C 8.1875 -1.640625 9.210938 -2.269531 9.859375 -3.53125 L 9.859375 -9.5 C 9.203125 -10.71875 8.1875 -11.328125 6.8125 -11.328125 C 5.71875 -11.328125 4.867188 -10.90625 4.265625 -10.0625 C 3.660156 -9.226562 3.359375 -7.988281 3.359375 -6.34375 Z M 3.359375 -6.34375 "/></g></g></g><g fill="#d9d9d9" fill-opacity="1"><g transform="translate(251.425937, 130.356376)"><g><path d="M 9.6875 -1.28125 C 8.820312 -0.269531 7.554688 0.234375 5.890625 0.234375 C 4.503906 0.234375 3.445312 -0.164062 2.71875 -0.96875 C 2 -1.769531 1.632812 -2.957031 1.625 -4.53125 L 1.625 -12.96875 L 3.84375 -12.96875 L 3.84375 -4.59375 C 3.84375 -2.625 4.644531 -1.640625 6.25 -1.640625 C 7.9375 -1.640625 9.0625 -2.269531 9.625 -3.53125 L 9.625 -12.96875 L 11.84375 -12.96875 L 11.84375 0 L 9.734375 0 Z M 9.6875 -1.28125 "/></g></g></g><g fill="#d9d9d9" fill-opacity="1"><g transform="translate(266.799545, 130.356376)"><g><path d="M 12.640625 -6.34375 C 12.640625 -4.363281 12.1875 -2.769531 11.28125 -1.5625 C 10.375 -0.363281 9.148438 0.234375 7.609375 0.234375 C 6.035156 0.234375 4.796875 -0.265625 3.890625 -1.265625 L 3.890625 4.984375 L 1.671875 4.984375 L 1.671875 -12.96875 L 3.703125 -12.96875 L 3.8125 -11.53125 C 4.71875 -12.644531 5.972656 -13.203125 7.578125 -13.203125 C 9.128906 -13.203125 10.359375 -12.613281 11.265625 -11.4375 C 12.179688 -10.269531 12.640625 -8.640625 12.640625 -6.546875 Z M 10.421875 -6.59375 C 10.421875 -8.050781 10.109375 -9.203125 9.484375 -10.046875 C 8.859375 -10.898438 8.003906 -11.328125 6.921875 -11.328125 C 5.578125 -11.328125 4.566406 -10.734375 3.890625 -9.546875 L 3.890625 -3.34375 C 4.554688 -2.15625 5.570312 -1.5625 6.9375 -1.5625 C 8 -1.5625 8.84375 -1.984375 9.46875 -2.828125 C 10.101562 -3.671875 10.421875 -4.925781 10.421875 -6.59375 Z M 10.421875 -6.59375 "/></g></g></g><g fill="#d9d9d9" fill-opacity="1"><g transform="translate(282.412866, 130.356376)"><g><path d="M 6.796875 -6.96875 C 6.796875 -5.1875 6.5625 -3.476562 6.09375 -1.84375 C 5.625 -0.207031 4.90625 1.300781 3.9375 2.6875 C 2.976562 4.070312 1.972656 5.054688 0.921875 5.640625 L 0.453125 4.28125 C 1.679688 3.332031 2.671875 1.867188 3.421875 -0.109375 C 4.171875 -2.097656 4.550781 -4.300781 4.5625 -6.71875 L 4.5625 -7.109375 C 4.5625 -8.785156 4.382812 -10.34375 4.03125 -11.78125 C 3.6875 -13.226562 3.195312 -14.519531 2.5625 -15.65625 C 1.9375 -16.800781 1.234375 -17.695312 0.453125 -18.34375 L 0.921875 -19.6875 C 1.972656 -19.101562 2.976562 -18.128906 3.9375 -16.765625 C 4.894531 -15.398438 5.609375 -13.894531 6.078125 -12.25 C 6.554688 -10.601562 6.796875 -8.84375 6.796875 -6.96875 Z M 6.796875 -6.96875 "/></g></g></g><g fill="#d9d9d9" fill-opacity="1"><g transform="translate(292.788455, 130.356376)"><g><path d="M 9.6875 0 C 9.5625 -0.257812 9.457031 -0.710938 9.375 -1.359375 C 8.34375 -0.296875 7.113281 0.234375 5.6875 0.234375 C 4.40625 0.234375 3.351562 -0.125 2.53125 -0.84375 C 1.71875 -1.570312 1.3125 -2.488281 1.3125 -3.59375 C 1.3125 -4.945312 1.820312 -5.992188 2.84375 -6.734375 C 3.875 -7.484375 5.316406 -7.859375 7.171875 -7.859375 L 9.34375 -7.859375 L 9.34375 -8.875 C 9.34375 -9.65625 9.109375 -10.273438 8.640625 -10.734375 C 8.179688 -11.191406 7.5 -11.421875 6.59375 -11.421875 C 5.800781 -11.421875 5.132812 -11.21875 4.59375 -10.8125 C 4.0625 -10.414062 3.796875 -9.9375 3.796875 -9.375 L 1.5625 -9.375 C 1.5625 -10.019531 1.789062 -10.644531 2.25 -11.25 C 2.71875 -11.851562 3.34375 -12.328125 4.125 -12.671875 C 4.914062 -13.023438 5.78125 -13.203125 6.71875 -13.203125 C 8.21875 -13.203125 9.390625 -12.828125 10.234375 -12.078125 C 11.078125 -11.335938 11.515625 -10.3125 11.546875 -9 L 11.546875 -3.03125 C 11.546875 -1.84375 11.703125 -0.894531 12.015625 -0.1875 L 12.015625 0 Z M 6 -1.6875 C 6.695312 -1.6875 7.359375 -1.863281 7.984375 -2.21875 C 8.609375 -2.582031 9.0625 -3.050781 9.34375 -3.625 L 9.34375 -6.296875 L 7.59375 -6.296875 C 4.882812 -6.296875 3.53125 -5.5 3.53125 -3.90625 C 3.53125 -3.207031 3.757812 -2.660156 4.21875 -2.265625 C 4.6875 -1.878906 5.28125 -1.6875 6 -1.6875 Z M 6 -1.6875 "/></g></g></g><g fill="#d9d9d9" fill-opacity="1"><g transform="translate(307.982289, 130.356376)"><g><path d="M 3.78125 -12.96875 L 3.84375 -11.34375 C 4.832031 -12.582031 6.128906 -13.203125 7.734375 -13.203125 C 10.472656 -13.203125 11.851562 -11.65625 11.875 -8.5625 L 11.875 0 L 9.65625 0 L 9.65625 -8.578125 C 9.65625 -9.515625 9.441406 -10.207031 9.015625 -10.65625 C 8.597656 -11.101562 7.945312 -11.328125 7.0625 -11.328125 C 6.34375 -11.328125 5.707031 -11.132812 5.15625 -10.75 C 4.613281 -10.363281 4.191406 -9.859375 3.890625 -9.234375 L 3.890625 0 L 1.671875 0 L 1.671875 -12.96875 Z M 3.78125 -12.96875 "/></g></g></g><g fill="#d9d9d9" fill-opacity="1"><g transform="translate(323.367894, 130.356376)"><g/></g></g><g fill="#d9d9d9" fill-opacity="1"><g transform="translate(331.286406, 130.356376)"><g><path d="M 0.109375 -19.9375 L 4.640625 -19.9375 L 4.640625 3.734375 L 0.109375 3.734375 L 0.109375 1.921875 L 2.421875 1.921875 L 2.421875 -18.125 L 0.109375 -18.125 Z M 0.109375 -19.9375 "/></g></g></g></svg>